{"glyphs":{"0":{"ha":990,"x_min":0,"x_max":0,"o":"m 494 -15 b 40 492 69 -15 40 314 b 494 986 40 657 67 986 b 946 492 926 986 946 646 b 494 -15 946 321 919 -15 m 494 231 b 649 483 638 231 649 358 b 494 739 649 614 639 739 b 343 483 351 739 343 618 b 494 231 343 354 351 231 "},"1":{"ha":646,"x_min":0,"x_max":0,"o":"m 290 968 l 586 968 l 586 0 l 290 0 l 290 619 l 28 619 l 28 822 l 150 822 b 290 939 188 822 290 821 "},"2":{"ha":961,"x_min":0,"x_max":0,"o":"m 917 243 l 917 0 l 56 0 l 56 240 b 578 626 208 274 578 443 b 464 731 578 699 543 731 b 315 583 390 731 329 672 l 29 603 b 472 979 29 806 236 979 b 871 665 719 979 871 856 b 524 243 871 503 758 326 "},"3":{"ha":1015,"x_min":0,"x_max":0,"o":"m 506 -15 b 32 326 267 -15 32 89 l 322 342 b 514 214 322 268 411 214 b 683 308 611 214 683 253 b 454 403 683 382 654 403 l 454 601 b 621 686 575 601 621 638 b 506 754 621 739 567 754 b 381 657 436 754 383 713 l 90 674 b 513 983 90 874 294 983 b 914 703 722 983 914 885 b 821 536 914 644 888 575 b 979 314 969 497 979 388 b 506 -15 979 86 740 -15 "},"4":{"ha":969,"x_min":0,"x_max":0,"o":"m 846 410 l 926 410 l 926 179 l 846 179 l 846 0 l 554 0 l 554 179 l 33 179 l 33 422 l 561 968 l 846 968 m 322 410 l 554 410 l 554 642 "},"5":{"ha":1003,"x_min":0,"x_max":0,"o":"m 549 678 b 960 349 799 678 960 543 b 493 -17 960 164 806 -17 b 29 294 218 -17 54 121 l 315 336 b 490 213 322 264 396 213 b 650 349 585 213 650 268 b 486 465 650 421 589 465 b 329 390 428 465 388 447 l 64 447 l 188 968 l 908 968 l 908 733 l 422 733 l 401 656 b 549 678 451 671 501 678 "},"6":{"ha":1001,"x_min":0,"x_max":0,"o":"m 549 678 b 969 339 801 676 969 540 b 503 -17 969 128 782 -17 b 31 338 215 -17 31 124 b 139 574 31 417 56 471 l 460 968 l 797 968 m 503 213 b 672 339 613 213 672 258 b 503 468 672 422 613 468 b 329 339 390 468 329 421 b 503 213 329 258 390 213 "},"7":{"ha":886,"x_min":0,"x_max":0,"o":"m 31 968 l 858 968 l 858 754 l 425 0 l 83 0 l 524 733 l 31 733 "},"8":{"ha":1047,"x_min":0,"x_max":0,"o":"m 526 -17 b 39 294 217 -17 39 110 b 167 526 39 394 82 479 b 89 689 117 561 89 611 b 524 985 89 863 249 985 b 957 692 790 985 957 864 b 879 526 957 618 933 561 b 1008 296 960 483 1008 397 b 526 -17 1008 122 850 -17 m 524 593 b 663 672 611 593 663 622 b 524 757 663 725 610 757 b 383 672 431 757 383 724 b 524 593 383 621 436 593 m 525 217 b 715 333 646 217 715 265 b 525 435 715 397 643 435 b 331 332 406 435 331 399 b 525 217 331 267 400 217 "},"9":{"ha":1001,"x_min":0,"x_max":0,"o":"m 497 985 b 969 631 785 985 969 844 b 863 394 969 551 944 497 l 540 0 l 204 0 l 451 290 b 31 629 199 293 31 428 b 497 985 31 840 219 985 m 497 500 b 672 629 610 500 672 547 b 497 756 672 710 611 756 b 329 629 388 756 329 710 b 497 500 329 546 388 500 "}," ":{"ha":451,"x_min":0,"x_max":0,"o":""},"A":{"ha":1181,"x_min":0,"x_max":0,"o":"m 815 0 l 771 128 l 407 128 l 361 0 l -12 0 l 410 968 l 771 968 l 1192 0 m 497 379 l 682 379 l 590 639 "},"Á":{"ha":1181,"x_min":0,"x_max":0,"o":"m 911 1251 l 671 1053 l 504 1053 l 663 1251 m 815 0 l 771 128 l 407 128 l 361 0 l -12 0 l 410 968 l 771 968 l 1192 0 m 497 379 l 682 379 l 590 639 "},"Ă":{"ha":1181,"x_min":0,"x_max":0,"o":"m 588 1033 b 328 1251 403 1033 328 1111 l 515 1251 b 588 1165 515 1175 556 1165 b 661 1251 624 1165 661 1175 l 847 1251 b 588 1033 847 1100 761 1033 m 815 0 l 771 128 l 407 128 l 361 0 l -12 0 l 410 968 l 771 968 l 1192 0 m 497 379 l 682 379 l 590 639 "},"Ắ":{"ha":1181,"x_min":0,"x_max":0,"o":"m 911 1535 l 671 1336 l 504 1336 l 663 1535 m 588 1033 b 328 1251 403 1033 328 1111 l 515 1251 b 588 1165 515 1175 556 1165 b 661 1251 624 1165 661 1175 l 847 1251 b 588 1033 847 1100 761 1033 m 815 0 l 771 128 l 407 128 l 361 0 l -12 0 l 410 968 l 771 968 l 1192 0 m 497 379 l 682 379 l 590 639 "},"Ặ":{"ha":1181,"x_min":0,"x_max":0,"o":"m 588 1033 b 328 1251 403 1033 328 1111 l 515 1251 b 588 1165 515 1175 556 1165 b 661 1251 624 1165 661 1175 l 847 1251 b 588 1033 847 1100 761 1033 m 1192 0 l 815 0 l 771 128 l 407 128 l 361 0 l -12 0 l 410 968 l 771 968 m 497 379 l 682 379 l 590 639 m 432 -269 l 432 -74 l 743 -74 l 743 -269 "},"Ằ":{"ha":1181,"x_min":0,"x_max":0,"o":"m 672 1336 l 501 1336 l 282 1535 l 528 1535 m 588 1165 b 661 1251 624 1165 661 1175 l 847 1251 b 588 1033 847 1100 761 1033 b 328 1251 403 1033 328 1111 l 515 1251 b 588 1165 515 1175 556 1165 m 815 0 l 771 128 l 407 128 l 361 0 l -12 0 l 410 968 l 771 968 l 1192 0 m 497 379 l 682 379 l 590 639 "},"Ẳ":{"ha":1181,"x_min":0,"x_max":0,"o":"m 590 1396 b 499 1424 590 1428 547 1424 l 476 1424 l 476 1564 l 499 1564 b 751 1414 651 1564 751 1510 b 547 1271 751 1303 629 1282 l 521 1364 b 590 1396 557 1368 590 1369 m 588 1033 b 328 1251 403 1033 328 1111 l 515 1251 b 588 1165 515 1175 556 1165 b 661 1251 624 1165 661 1175 l 847 1251 b 588 1033 847 1100 761 1033 m 815 0 l 771 128 l 407 128 l 361 0 l -12 0 l 410 968 l 771 968 l 1192 0 m 497 379 l 682 379 l 590 639 "},"Ẵ":{"ha":1181,"x_min":0,"x_max":0,"o":"m 499 1396 b 476 1333 485 1396 476 1371 l 346 1333 b 510 1538 346 1458 410 1538 b 671 1461 597 1538 646 1461 b 692 1535 682 1461 692 1483 l 829 1535 b 668 1322 829 1393 767 1322 b 499 1396 565 1322 529 1396 m 588 1033 b 328 1251 403 1033 328 1111 l 515 1251 b 588 1165 515 1175 556 1165 b 661 1251 624 1165 661 1175 l 847 1251 b 588 1033 847 1100 761 1033 m 815 0 l 771 128 l 407 128 l 361 0 l -12 0 l 410 968 l 771 968 l 1192 0 m 497 379 l 682 379 l 590 639 "},"Ǎ":{"ha":1181,"x_min":0,"x_max":0,"o":"m 813 1251 l 588 1010 l 363 1251 l 538 1251 l 588 1194 l 639 1251 m 815 0 l 771 128 l 407 128 l 361 0 l -12 0 l 410 968 l 771 968 l 1192 0 m 497 379 l 682 379 l 590 639 "},"Â":{"ha":1181,"x_min":0,"x_max":0,"o":"m 588 1093 l 536 1026 l 363 1026 l 588 1288 l 813 1026 l 639 1026 m 815 0 l 771 128 l 407 128 l 361 0 l -12 0 l 410 968 l 771 968 l 1192 0 m 497 379 l 682 379 l 590 639 "},"Ấ":{"ha":1181,"x_min":0,"x_max":0,"o":"m 911 1511 l 671 1313 l 504 1313 l 663 1511 m 588 1093 l 536 1026 l 363 1026 l 588 1288 l 813 1026 l 639 1026 m 815 0 l 771 128 l 407 128 l 361 0 l -12 0 l 410 968 l 771 968 l 1192 0 m 497 379 l 682 379 l 590 639 "},"Ậ":{"ha":1181,"x_min":0,"x_max":0,"o":"m 588 1093 l 536 1026 l 363 1026 l 588 1288 l 813 1026 l 639 1026 m 1192 0 l 815 0 l 771 128 l 407 128 l 361 0 l -12 0 l 410 968 l 771 968 m 497 379 l 682 379 l 590 639 m 432 -269 l 432 -74 l 743 -74 l 743 -269 "},"Ầ":{"ha":1181,"x_min":0,"x_max":0,"o":"m 672 1313 l 501 1313 l 282 1511 l 528 1511 m 363 1026 l 588 1288 l 813 1026 l 639 1026 l 588 1093 l 536 1026 m 815 0 l 771 128 l 407 128 l 361 0 l -12 0 l 410 968 l 771 968 l 1192 0 m 497 379 l 682 379 l 590 639 "},"Ẩ":{"ha":1181,"x_min":0,"x_max":0,"o":"m 536 1026 l 363 1026 l 554 1249 b 547 1247 551 1247 549 1247 l 521 1340 b 590 1372 557 1344 590 1346 b 499 1400 590 1404 547 1400 l 476 1400 l 476 1540 l 499 1540 b 751 1390 651 1540 751 1486 b 613 1258 751 1307 682 1274 l 813 1026 l 639 1026 l 588 1093 m 815 0 l 771 128 l 407 128 l 361 0 l -12 0 l 410 968 l 771 968 l 1192 0 m 497 379 l 682 379 l 590 639 "},"Ẫ":{"ha":1181,"x_min":0,"x_max":0,"o":"m 499 1372 b 476 1310 485 1372 476 1347 l 346 1310 b 510 1514 346 1435 410 1514 b 671 1438 597 1514 646 1438 b 692 1511 682 1438 692 1460 l 829 1511 b 668 1299 829 1369 767 1299 b 499 1372 565 1299 529 1372 m 363 1026 l 588 1288 l 813 1026 l 639 1026 l 588 1093 l 536 1026 m 815 0 l 771 128 l 407 128 l 361 0 l -12 0 l 410 968 l 771 968 l 1192 0 m 497 379 l 682 379 l 590 639 "},"Ä":{"ha":1181,"x_min":0,"x_max":0,"o":"m 560 1251 l 560 1056 l 310 1056 l 310 1251 m 865 1251 l 865 1056 l 615 1056 l 615 1251 m 815 0 l 771 128 l 407 128 l 361 0 l -12 0 l 410 968 l 771 968 l 1192 0 m 497 379 l 682 379 l 590 639 "},"Ạ":{"ha":1181,"x_min":0,"x_max":0,"o":"m 1192 0 l 815 0 l 771 128 l 407 128 l 361 0 l -12 0 l 410 968 l 771 968 m 497 379 l 682 379 l 590 639 m 432 -269 l 432 -74 l 743 -74 l 743 -269 "},"À":{"ha":1181,"x_min":0,"x_max":0,"o":"m 672 1053 l 501 1053 l 282 1251 l 528 1251 m 815 0 l 771 128 l 407 128 l 361 0 l -12 0 l 410 968 l 771 968 l 1192 0 m 497 379 l 682 379 l 590 639 "},"Ả":{"ha":1181,"x_min":0,"x_max":0,"o":"m 590 1113 b 499 1140 590 1144 547 1140 l 476 1140 l 476 1281 l 499 1281 b 751 1131 651 1281 751 1226 b 547 988 751 1019 629 999 l 521 1081 b 590 1113 557 1085 590 1086 m 815 0 l 771 128 l 407 128 l 361 0 l -12 0 l 410 968 l 771 968 l 1192 0 m 497 379 l 682 379 l 590 639 "},"Ā":{"ha":1181,"x_min":0,"x_max":0,"o":"m 782 1160 l 782 1028 l 394 1028 l 394 1160 m 815 0 l 771 128 l 407 128 l 361 0 l -12 0 l 410 968 l 771 968 l 1192 0 m 497 379 l 682 379 l 590 639 "},"Ą":{"ha":1181,"x_min":0,"x_max":0,"o":"m 1261 -217 b 1092 -319 1229 -271 1182 -319 b 910 -157 988 -319 910 -253 b 1011 0 910 -62 979 -17 l 815 0 l 771 128 l 407 128 l 361 0 l -12 0 l 410 968 l 771 968 l 1192 0 b 1046 -132 1174 -1 1046 -57 b 1086 -178 1046 -169 1065 -178 b 1142 -139 1115 -178 1131 -162 m 497 379 l 682 379 l 590 639 "},"Å":{"ha":1181,"x_min":0,"x_max":0,"o":"m 815 0 l 771 128 l 407 128 l 361 0 l -12 0 l 410 968 l 432 968 b 367 1124 392 1010 367 1065 b 588 1344 367 1244 465 1344 b 808 1124 704 1344 808 1247 b 746 968 808 1063 785 1008 l 771 968 l 1192 0 m 588 1186 b 524 1124 551 1186 524 1158 b 588 1060 524 1089 551 1060 b 651 1124 624 1060 651 1089 b 588 1186 651 1158 621 1186 m 497 379 l 682 379 l 590 639 "},"Ã":{"ha":1181,"x_min":0,"x_max":0,"o":"m 499 1113 b 476 1050 485 1113 476 1088 l 346 1050 b 510 1254 346 1175 410 1254 b 671 1178 597 1254 646 1178 b 692 1251 682 1178 692 1200 l 829 1251 b 668 1039 829 1110 767 1039 b 499 1113 565 1039 529 1113 m 815 0 l 771 128 l 407 128 l 361 0 l -12 0 l 410 968 l 771 968 l 1192 0 m 497 379 l 682 379 l 590 639 "},"Æ":{"ha":1579,"x_min":0,"x_max":0,"o":"m -12 0 l 449 968 l 1526 968 l 1526 718 l 1033 718 l 1033 614 l 1510 614 l 1510 361 l 1033 361 l 1033 250 l 1526 250 l 1526 0 l 689 0 l 689 136 l 410 136 l 361 0 m 519 382 l 689 382 l 689 743 l 649 743 "},"B":{"ha":1108,"x_min":0,"x_max":0,"o":"m 56 0 l 56 968 l 679 968 b 1032 721 896 968 1032 872 b 956 532 1032 644 1006 578 b 1088 300 1046 482 1088 407 b 749 0 1088 119 953 0 m 403 601 l 611 601 b 682 672 658 601 682 628 b 615 732 682 708 658 732 l 403 732 m 403 242 l 663 242 b 740 321 714 242 740 269 b 657 385 740 364 713 385 l 403 385 "},"C":{"ha":1224,"x_min":0,"x_max":0,"o":"m 642 -31 b 15 483 256 -31 15 176 b 635 999 15 789 250 999 b 1211 696 926 999 1119 883 l 888 596 b 635 739 843 693 761 739 b 360 486 456 739 360 640 b 642 229 360 332 458 229 b 888 381 779 229 847 279 l 1213 285 b 642 -31 1133 85 936 -31 "},"Ć":{"ha":1224,"x_min":0,"x_max":0,"o":"m 564 1053 l 722 1251 l 971 1251 l 731 1053 m 642 -31 b 15 483 256 -31 15 176 b 635 999 15 789 250 999 b 1211 696 926 999 1119 883 l 888 596 b 635 739 843 693 761 739 b 360 486 456 739 360 640 b 642 229 360 332 458 229 b 888 381 779 229 847 279 l 1213 285 b 642 -31 1133 85 936 -31 "},"Č":{"ha":1224,"x_min":0,"x_max":0,"o":"m 647 1010 l 422 1251 l 597 1251 l 647 1194 l 699 1251 l 872 1251 m 642 -31 b 15 483 256 -31 15 176 b 635 999 15 789 250 999 b 1211 696 926 999 1119 883 l 888 596 b 635 739 843 693 761 739 b 360 486 456 739 360 640 b 642 229 360 332 458 229 b 888 381 779 229 847 279 l 1213 285 b 642 -31 1133 85 936 -31 "},"Ç":{"ha":1224,"x_min":0,"x_max":0,"o":"m 1213 285 b 683 -29 1138 94 954 -19 l 664 -49 b 724 -79 688 -56 708 -67 b 767 -187 756 -107 767 -147 b 589 -362 767 -283 694 -362 b 482 -337 574 -362 531 -364 l 551 -225 b 596 -233 569 -231 585 -233 b 633 -196 617 -233 633 -221 b 586 -143 633 -167 614 -151 b 490 -136 557 -135 526 -136 l 561 -28 b 15 483 222 0 15 199 b 635 999 15 789 250 999 b 1211 696 926 999 1119 883 l 888 596 b 635 739 843 693 761 739 b 360 486 456 739 360 640 b 642 229 360 332 458 229 b 888 381 779 229 847 279 "},"Ċ":{"ha":1224,"x_min":0,"x_max":0,"o":"m 493 1056 l 493 1251 l 801 1251 l 801 1056 m 642 -31 b 15 483 256 -31 15 176 b 635 999 15 789 250 999 b 1211 696 926 999 1119 883 l 888 596 b 635 739 843 693 761 739 b 360 486 456 739 360 640 b 642 229 360 332 458 229 b 888 381 779 229 847 279 l 1213 285 b 642 -31 1133 85 936 -31 "},"D":{"ha":1157,"x_min":0,"x_max":0,"o":"m 54 0 l 54 968 l 596 968 b 1139 476 936 968 1139 790 b 592 0 1139 168 944 0 m 401 281 l 525 281 b 790 486 578 281 790 254 b 551 688 790 692 618 688 l 401 688 "},"Ð":{"ha":1157,"x_min":0,"x_max":0,"o":"m 596 968 b 1139 476 936 968 1139 790 b 592 0 1139 168 944 0 l 54 0 l 54 408 l -81 408 l -81 563 l 54 563 l 54 968 m 525 281 b 790 486 578 281 790 254 b 551 688 790 692 618 688 l 401 688 l 401 563 l 574 563 l 574 408 l 401 408 l 401 281 "},"Ď":{"ha":1157,"x_min":0,"x_max":0,"o":"m 557 1010 l 332 1251 l 507 1251 l 557 1194 l 608 1251 l 782 1251 m 54 0 l 54 968 l 596 968 b 1139 476 936 968 1139 790 b 592 0 1139 168 944 0 m 401 281 l 525 281 b 790 486 578 281 790 254 b 551 688 790 692 618 688 l 401 688 "},"Đ":{"ha":1157,"x_min":0,"x_max":0,"o":"m 596 968 b 1139 476 936 968 1139 790 b 592 0 1139 168 944 0 l 54 0 l 54 408 l -81 408 l -81 563 l 54 563 l 54 968 m 525 281 b 790 486 578 281 790 254 b 551 688 790 692 618 688 l 401 688 l 401 563 l 574 563 l 574 408 l 401 408 l 401 281 "},"E":{"ha":928,"x_min":0,"x_max":0,"o":"m 54 0 l 54 968 l 874 968 l 874 718 l 397 718 l 397 614 l 858 614 l 858 361 l 397 361 l 397 250 l 874 250 l 874 0 "},"É":{"ha":928,"x_min":0,"x_max":0,"o":"m 379 1053 l 538 1251 l 786 1251 l 546 1053 m 54 0 l 54 968 l 874 968 l 874 718 l 397 718 l 397 614 l 858 614 l 858 361 l 397 361 l 397 250 l 874 250 l 874 0 "},"Ě":{"ha":928,"x_min":0,"x_max":0,"o":"m 463 1010 l 238 1251 l 413 1251 l 463 1194 l 514 1251 l 688 1251 m 54 0 l 54 968 l 874 968 l 874 718 l 397 718 l 397 614 l 858 614 l 858 361 l 397 361 l 397 250 l 874 250 l 874 0 "},"Ê":{"ha":928,"x_min":0,"x_max":0,"o":"m 238 1026 l 463 1288 l 688 1026 l 514 1026 l 463 1093 l 411 1026 m 54 0 l 54 968 l 874 968 l 874 718 l 397 718 l 397 614 l 858 614 l 858 361 l 397 361 l 397 250 l 874 250 l 874 0 "},"Ế":{"ha":928,"x_min":0,"x_max":0,"o":"m 379 1313 l 538 1511 l 786 1511 l 546 1313 m 238 1026 l 463 1288 l 688 1026 l 514 1026 l 463 1093 l 411 1026 m 54 0 l 54 968 l 874 968 l 874 718 l 397 718 l 397 614 l 858 614 l 858 361 l 397 361 l 397 250 l 874 250 l 874 0 "},"Ệ":{"ha":928,"x_min":0,"x_max":0,"o":"m 238 1026 l 463 1288 l 688 1026 l 514 1026 l 463 1093 l 411 1026 m 54 0 l 54 968 l 874 968 l 874 718 l 397 718 l 397 614 l 858 614 l 858 361 l 397 361 l 397 250 l 874 250 l 874 0 m 308 -269 l 308 -74 l 619 -74 l 619 -269 "},"Ề":{"ha":928,"x_min":0,"x_max":0,"o":"m 376 1313 l 157 1511 l 403 1511 l 547 1313 m 238 1026 l 463 1288 l 688 1026 l 514 1026 l 463 1093 l 411 1026 m 54 0 l 54 968 l 874 968 l 874 718 l 397 718 l 397 614 l 858 614 l 858 361 l 397 361 l 397 250 l 874 250 l 874 0 "},"Ể":{"ha":928,"x_min":0,"x_max":0,"o":"m 411 1026 l 238 1026 l 429 1249 b 422 1247 426 1247 424 1247 l 396 1340 b 465 1372 432 1344 465 1346 b 374 1400 465 1404 422 1400 l 351 1400 l 351 1540 l 374 1540 b 626 1390 526 1540 626 1486 b 488 1258 626 1307 557 1274 l 688 1026 l 514 1026 l 463 1093 m 874 718 l 397 718 l 397 614 l 858 614 l 858 361 l 397 361 l 397 250 l 874 250 l 874 0 l 54 0 l 54 968 l 874 968 "},"Ễ":{"ha":928,"x_min":0,"x_max":0,"o":"m 543 1299 b 374 1372 440 1299 404 1372 b 351 1310 360 1372 351 1347 l 221 1310 b 385 1514 221 1435 285 1514 b 546 1438 472 1514 521 1438 b 567 1511 557 1438 567 1460 l 704 1511 b 543 1299 704 1369 642 1299 m 238 1026 l 463 1288 l 688 1026 l 514 1026 l 463 1093 l 411 1026 m 54 0 l 54 968 l 874 968 l 874 718 l 397 718 l 397 614 l 858 614 l 858 361 l 397 361 l 397 250 l 874 250 l 874 0 "},"Ë":{"ha":928,"x_min":0,"x_max":0,"o":"m 185 1056 l 185 1251 l 435 1251 l 435 1056 m 490 1056 l 490 1251 l 740 1251 l 740 1056 m 54 0 l 54 968 l 874 968 l 874 718 l 397 718 l 397 614 l 858 614 l 858 361 l 397 361 l 397 250 l 874 250 l 874 0 "},"Ė":{"ha":928,"x_min":0,"x_max":0,"o":"m 308 1056 l 308 1251 l 617 1251 l 617 1056 m 54 0 l 54 968 l 874 968 l 874 718 l 397 718 l 397 614 l 858 614 l 858 361 l 397 361 l 397 250 l 874 250 l 874 0 "},"Ẹ":{"ha":928,"x_min":0,"x_max":0,"o":"m 54 0 l 54 968 l 874 968 l 874 718 l 397 718 l 397 614 l 858 614 l 858 361 l 397 361 l 397 250 l 874 250 l 874 0 m 308 -269 l 308 -74 l 619 -74 l 619 -269 "},"È":{"ha":928,"x_min":0,"x_max":0,"o":"m 376 1053 l 157 1251 l 403 1251 l 547 1053 m 54 0 l 54 968 l 874 968 l 874 718 l 397 718 l 397 614 l 858 614 l 858 361 l 397 361 l 397 250 l 874 250 l 874 0 "},"Ẻ":{"ha":928,"x_min":0,"x_max":0,"o":"m 396 1081 b 465 1113 432 1085 465 1086 b 374 1140 465 1144 422 1140 l 351 1140 l 351 1281 l 374 1281 b 626 1131 526 1281 626 1226 b 422 988 626 1019 504 999 m 54 0 l 54 968 l 874 968 l 874 718 l 397 718 l 397 614 l 858 614 l 858 361 l 397 361 l 397 250 l 874 250 l 874 0 "},"Ē":{"ha":928,"x_min":0,"x_max":0,"o":"m 269 1028 l 269 1160 l 657 1160 l 657 1028 m 54 0 l 54 968 l 874 968 l 874 718 l 397 718 l 397 614 l 858 614 l 858 361 l 397 361 l 397 250 l 874 250 l 874 0 "},"Ę":{"ha":928,"x_min":0,"x_max":0,"o":"m 943 -217 b 774 -319 911 -271 864 -319 b 592 -157 669 -319 592 -253 b 693 0 592 -62 661 -17 l 54 0 l 54 968 l 874 968 l 874 718 l 397 718 l 397 614 l 858 614 l 858 361 l 397 361 l 397 250 l 874 250 l 874 0 b 728 -132 856 -1 728 -57 b 768 -178 728 -169 747 -178 b 824 -139 797 -178 813 -162 "},"Ẽ":{"ha":928,"x_min":0,"x_max":0,"o":"m 543 1039 b 374 1113 440 1039 404 1113 b 351 1050 360 1113 351 1088 l 221 1050 b 385 1254 221 1175 285 1254 b 546 1178 472 1254 521 1178 b 567 1251 557 1178 567 1200 l 704 1251 b 543 1039 704 1110 642 1039 m 54 0 l 54 968 l 874 968 l 874 718 l 397 718 l 397 614 l 858 614 l 858 361 l 397 361 l 397 250 l 874 250 l 874 0 "},"F":{"ha":972,"x_min":0,"x_max":0,"o":"m 54 0 l 54 968 l 951 968 l 951 718 l 397 718 l 397 564 l 885 564 l 885 313 l 397 313 l 397 0 "},"G":{"ha":1249,"x_min":0,"x_max":0,"o":"m 647 326 l 647 554 l 1208 554 l 1208 0 l 961 0 l 946 54 b 629 -31 874 -6 765 -31 b 14 471 240 -31 14 190 b 636 999 14 786 263 999 b 1210 696 893 999 1114 894 l 886 596 b 633 739 842 692 772 739 b 358 482 436 739 358 636 b 654 229 358 319 458 229 b 860 326 811 229 851 279 "},"Ğ":{"ha":1249,"x_min":0,"x_max":0,"o":"m 640 1033 b 381 1251 456 1033 381 1111 l 568 1251 b 640 1165 568 1175 608 1165 b 714 1251 676 1165 714 1175 l 900 1251 b 640 1033 900 1100 814 1033 m 647 326 l 647 554 l 1208 554 l 1208 0 l 961 0 l 946 54 b 629 -31 874 -6 765 -31 b 14 471 240 -31 14 190 b 636 999 14 786 263 999 b 1210 696 893 999 1114 894 l 886 596 b 633 739 842 692 772 739 b 358 482 436 739 358 636 b 654 229 358 319 458 229 b 860 326 811 229 851 279 "},"Ģ":{"ha":1249,"x_min":0,"x_max":0,"o":"m 647 326 l 647 554 l 1208 554 l 1208 0 l 961 0 l 946 54 b 629 -31 874 -6 765 -31 b 14 471 240 -31 14 190 b 636 999 14 786 263 999 b 1210 696 893 999 1114 894 l 886 596 b 633 739 842 692 772 739 b 358 482 436 739 358 636 b 654 229 358 319 458 229 b 860 326 811 229 851 279 m 451 -321 l 517 -69 l 757 -69 l 582 -321 "},"Ġ":{"ha":1249,"x_min":0,"x_max":0,"o":"m 794 1251 l 794 1056 l 486 1056 l 486 1251 m 647 326 l 647 554 l 1208 554 l 1208 0 l 961 0 l 946 54 b 629 -31 874 -6 765 -31 b 14 471 240 -31 14 190 b 636 999 14 786 263 999 b 1210 696 893 999 1114 894 l 886 596 b 633 739 842 692 772 739 b 358 482 436 739 358 636 b 654 229 358 319 458 229 b 860 326 811 229 851 279 "},"H":{"ha":1163,"x_min":0,"x_max":0,"o":"m 54 0 l 54 968 l 397 968 l 397 640 l 764 640 l 764 968 l 1108 968 l 1108 0 l 764 0 l 764 335 l 397 335 l 397 0 "},"Ħ":{"ha":1163,"x_min":0,"x_max":0,"o":"m 1153 903 l 1153 768 l 1108 768 l 1108 0 l 764 0 l 764 335 l 397 335 l 397 0 l 54 0 l 54 768 l 11 768 l 11 903 l 54 903 l 54 968 l 397 968 l 397 903 l 764 903 l 764 968 l 1108 968 l 1108 903 m 764 640 l 764 768 l 397 768 l 397 640 "},"I":{"ha":457,"x_min":0,"x_max":0,"o":"m 54 0 l 54 968 l 401 968 l 401 0 "},"Í":{"ha":457,"x_min":0,"x_max":0,"o":"m 146 1053 l 304 1251 l 553 1251 l 313 1053 m 54 0 l 54 968 l 401 968 l 401 0 "},"Ǐ":{"ha":457,"x_min":0,"x_max":0,"o":"m 229 1010 l 4 1251 l 179 1251 l 229 1194 l 281 1251 l 454 1251 m 54 0 l 54 968 l 401 968 l 401 0 "},"Î":{"ha":457,"x_min":0,"x_max":0,"o":"m 4 1026 l 229 1288 l 454 1026 l 281 1026 l 229 1093 l 178 1026 m 54 0 l 54 968 l 401 968 l 401 0 "},"Ï":{"ha":457,"x_min":0,"x_max":0,"o":"m -49 1056 l -49 1251 l 201 1251 l 201 1056 m 257 1056 l 257 1251 l 507 1251 l 507 1056 m 54 0 l 54 968 l 401 968 l 401 0 "},"İ":{"ha":457,"x_min":0,"x_max":0,"o":"m 75 1056 l 75 1251 l 383 1251 l 383 1056 m 54 0 l 54 968 l 401 968 l 401 0 "},"Ị":{"ha":457,"x_min":0,"x_max":0,"o":"m 54 0 l 54 968 l 401 968 l 401 0 m 74 -269 l 74 -74 l 385 -74 l 385 -269 "},"Ì":{"ha":457,"x_min":0,"x_max":0,"o":"m 143 1053 l -76 1251 l 169 1251 l 314 1053 m 54 0 l 54 968 l 401 968 l 401 0 "},"Ỉ":{"ha":457,"x_min":0,"x_max":0,"o":"m 163 1081 b 232 1113 199 1085 232 1086 b 140 1140 232 1144 189 1140 l 118 1140 l 118 1281 l 140 1281 b 393 1131 293 1281 393 1226 b 189 988 393 1019 271 999 m 54 0 l 54 968 l 401 968 l 401 0 "},"Ī":{"ha":457,"x_min":0,"x_max":0,"o":"m 36 1028 l 36 1160 l 424 1160 l 424 1028 m 54 0 l 54 968 l 401 968 l 401 0 "},"Į":{"ha":457,"x_min":0,"x_max":0,"o":"m 471 -217 b 301 -319 439 -271 392 -319 b 119 -157 197 -319 119 -253 b 221 0 119 -62 189 -17 l 54 0 l 54 968 l 401 968 l 401 0 b 256 -132 383 -1 256 -57 b 296 -178 256 -169 275 -178 b 351 -139 325 -178 340 -162 "},"Ĩ":{"ha":457,"x_min":0,"x_max":0,"o":"m 310 1039 b 140 1113 207 1039 171 1113 b 118 1050 126 1113 118 1088 l -12 1050 b 151 1254 -12 1175 51 1254 b 313 1178 239 1254 288 1178 b 333 1251 324 1178 333 1200 l 471 1251 b 310 1039 471 1110 408 1039 m 54 0 l 54 968 l 401 968 l 401 0 "},"J":{"ha":992,"x_min":0,"x_max":0,"o":"m 471 -31 b 0 324 186 -31 18 104 l 339 389 b 471 256 346 301 367 256 b 597 372 581 256 597 318 l 597 685 l 282 685 l 282 968 l 946 968 l 946 325 b 471 -31 946 113 768 -31 "},"K":{"ha":1188,"x_min":0,"x_max":0,"o":"m 1201 968 l 750 607 l 1197 0 l 778 0 l 493 400 l 397 324 l 397 0 l 54 0 l 54 968 l 397 968 l 397 683 l 722 968 "},"Ķ":{"ha":1188,"x_min":0,"x_max":0,"o":"m 1201 968 l 750 607 l 1197 0 l 778 0 l 493 400 l 397 324 l 397 0 l 54 0 l 54 968 l 397 968 l 397 683 l 722 968 m 363 -321 l 428 -69 l 668 -69 l 493 -321 "},"L":{"ha":858,"x_min":0,"x_max":0,"o":"m 54 0 l 54 968 l 397 968 l 397 283 l 850 283 l 850 0 "},"Ĺ":{"ha":858,"x_min":0,"x_max":0,"o":"m 125 1053 l 283 1251 l 532 1251 l 292 1053 m 54 0 l 54 968 l 397 968 l 397 283 l 850 283 l 850 0 "},"Ľ":{"ha":858,"x_min":0,"x_max":0,"o":"m 54 0 l 54 968 l 397 968 l 397 283 l 850 283 l 850 0 m 565 636 l 640 968 l 883 968 l 697 636 "},"Ļ":{"ha":858,"x_min":0,"x_max":0,"o":"m 54 0 l 54 968 l 397 968 l 397 283 l 850 283 l 850 0 m 278 -361 l 343 -110 l 583 -110 l 408 -361 "},"Ł":{"ha":858,"x_min":0,"x_max":0,"o":"m 397 283 l 850 283 l 850 0 l 54 0 l 54 197 l -1 171 l -1 408 l 54 433 l 54 968 l 397 968 l 397 592 l 669 717 l 669 483 l 397 357 "},"M":{"ha":1450,"x_min":0,"x_max":0,"o":"m 939 968 l 1396 968 l 1396 0 l 1051 0 l 1051 496 l 876 92 l 576 92 l 399 496 l 399 0 l 56 0 l 56 968 l 510 968 l 722 481 "},"N":{"ha":1161,"x_min":0,"x_max":0,"o":"m 761 968 l 1108 968 l 1108 0 l 794 0 l 397 469 l 397 0 l 54 0 l 54 968 l 367 968 l 761 506 "},"Ń":{"ha":1161,"x_min":0,"x_max":0,"o":"m 901 1251 l 661 1053 l 494 1053 l 653 1251 m 761 968 l 1108 968 l 1108 0 l 794 0 l 397 469 l 397 0 l 54 0 l 54 968 l 367 968 l 761 506 "},"Ň":{"ha":1161,"x_min":0,"x_max":0,"o":"m 803 1251 l 578 1010 l 353 1251 l 528 1251 l 578 1194 l 629 1251 m 761 968 l 1108 968 l 1108 0 l 794 0 l 397 469 l 397 0 l 54 0 l 54 968 l 367 968 l 761 506 "},"Ņ":{"ha":1161,"x_min":0,"x_max":0,"o":"m 761 968 l 1108 968 l 1108 0 l 794 0 l 397 469 l 397 0 l 54 0 l 54 968 l 367 968 l 761 506 m 392 -321 l 457 -69 l 697 -69 l 522 -321 "},"Ŋ":{"ha":1139,"x_min":0,"x_max":0,"o":"m 794 968 l 1085 968 l 1085 19 b 751 -271 1085 -118 1001 -271 b 632 -269 718 -271 679 -274 l 628 -110 b 672 -106 643 -106 657 -106 b 807 -54 756 -106 807 -83 b 785 -1 807 -49 804 -25 l 344 526 l 344 0 l 54 0 l 54 968 l 350 968 l 794 446 "},"Ñ":{"ha":1161,"x_min":0,"x_max":0,"o":"m 489 1113 b 467 1050 475 1113 467 1088 l 336 1050 b 500 1254 336 1175 400 1254 b 661 1178 588 1254 636 1178 b 682 1251 672 1178 682 1200 l 819 1251 b 658 1039 819 1110 757 1039 b 489 1113 556 1039 519 1113 m 761 968 l 1108 968 l 1108 0 l 794 0 l 397 469 l 397 0 l 54 0 l 54 968 l 367 968 l 761 506 "},"O":{"ha":1247,"x_min":0,"x_max":0,"o":"m 621 -31 b 15 483 238 -31 15 172 b 621 999 15 794 238 999 b 1225 483 1008 999 1225 799 b 621 -31 1225 172 1003 -31 m 621 253 b 879 483 797 253 879 343 b 621 715 879 625 797 715 b 358 483 444 715 358 626 b 621 253 358 340 444 253 "},"Ó":{"ha":1247,"x_min":0,"x_max":0,"o":"m 538 1053 l 696 1251 l 944 1251 l 704 1053 m 621 -31 b 15 483 238 -31 15 172 b 621 999 15 794 238 999 b 1225 483 1008 999 1225 799 b 621 -31 1225 172 1003 -31 m 621 253 b 879 483 797 253 879 343 b 621 715 879 625 797 715 b 358 483 444 715 358 626 b 621 253 358 340 444 253 "},"Ǒ":{"ha":1247,"x_min":0,"x_max":0,"o":"m 622 1010 l 397 1251 l 572 1251 l 622 1194 l 674 1251 l 847 1251 m 621 -31 b 15 483 238 -31 15 172 b 621 999 15 794 238 999 b 1225 483 1008 999 1225 799 b 621 -31 1225 172 1003 -31 m 621 253 b 879 483 797 253 879 343 b 621 715 879 625 797 715 b 358 483 444 715 358 626 b 621 253 358 340 444 253 "},"Ô":{"ha":1247,"x_min":0,"x_max":0,"o":"m 397 1026 l 622 1288 l 847 1026 l 674 1026 l 622 1093 l 571 1026 m 621 -31 b 15 483 238 -31 15 172 b 621 999 15 794 238 999 b 1225 483 1008 999 1225 799 b 621 -31 1225 172 1003 -31 m 621 253 b 879 483 797 253 879 343 b 621 715 879 625 797 715 b 358 483 444 715 358 626 b 621 253 358 340 444 253 "},"Ố":{"ha":1247,"x_min":0,"x_max":0,"o":"m 538 1313 l 696 1511 l 944 1511 l 704 1313 m 397 1026 l 622 1288 l 847 1026 l 674 1026 l 622 1093 l 571 1026 m 621 -31 b 15 483 238 -31 15 172 b 621 999 15 794 238 999 b 1225 483 1008 999 1225 799 b 621 -31 1225 172 1003 -31 m 621 253 b 879 483 797 253 879 343 b 621 715 879 625 797 715 b 358 483 444 715 358 626 b 621 253 358 340 444 253 "},"Ộ":{"ha":1247,"x_min":0,"x_max":0,"o":"m 397 1026 l 622 1288 l 847 1026 l 674 1026 l 622 1093 l 571 1026 m 621 -31 b 15 483 238 -31 15 172 b 621 999 15 794 238 999 b 1225 483 1008 999 1225 799 b 621 -31 1225 172 1003 -31 m 621 253 b 879 483 797 253 879 343 b 621 715 879 625 797 715 b 358 483 444 715 358 626 b 621 253 358 340 444 253 m 467 -307 l 467 -111 l 778 -111 l 778 -307 "},"Ồ":{"ha":1247,"x_min":0,"x_max":0,"o":"m 536 1313 l 317 1511 l 563 1511 l 707 1313 m 397 1026 l 622 1288 l 847 1026 l 674 1026 l 622 1093 l 571 1026 m 621 -31 b 15 483 238 -31 15 172 b 621 999 15 794 238 999 b 1225 483 1008 999 1225 799 b 621 -31 1225 172 1003 -31 m 621 253 b 879 483 797 253 879 343 b 621 715 879 625 797 715 b 358 483 444 715 358 626 b 621 253 358 340 444 253 "},"Ổ":{"ha":1247,"x_min":0,"x_max":0,"o":"m 571 1026 l 397 1026 l 589 1249 b 581 1247 586 1249 583 1247 l 554 1340 b 624 1372 590 1344 624 1346 b 532 1400 624 1404 581 1400 l 510 1400 l 510 1540 l 532 1540 b 785 1390 685 1540 785 1486 b 647 1258 785 1307 717 1275 l 847 1026 l 674 1026 l 622 1093 m 621 999 b 1225 483 1008 999 1225 799 b 621 -31 1225 172 1003 -31 b 15 483 238 -31 15 172 b 621 999 15 794 238 999 m 621 253 b 879 483 797 253 879 343 b 621 715 879 625 797 715 b 358 483 444 715 358 626 b 621 253 358 340 444 253 "},"Ỗ":{"ha":1247,"x_min":0,"x_max":0,"o":"m 701 1299 b 532 1372 599 1299 563 1372 b 510 1310 518 1372 510 1347 l 379 1310 b 543 1514 379 1435 443 1514 b 704 1438 631 1514 679 1438 b 725 1511 715 1438 725 1460 l 863 1511 b 701 1299 863 1369 800 1299 m 397 1026 l 622 1288 l 847 1026 l 674 1026 l 622 1093 l 571 1026 m 621 -31 b 15 483 238 -31 15 172 b 621 999 15 794 238 999 b 1225 483 1008 999 1225 799 b 621 -31 1225 172 1003 -31 m 621 253 b 879 483 797 253 879 343 b 621 715 879 625 797 715 b 358 483 444 715 358 626 b 621 253 358 340 444 253 "},"Ö":{"ha":1247,"x_min":0,"x_max":0,"o":"m 344 1056 l 344 1251 l 594 1251 l 594 1056 m 650 1056 l 650 1251 l 900 1251 l 900 1056 m 621 -31 b 15 483 238 -31 15 172 b 621 999 15 794 238 999 b 1225 483 1008 999 1225 799 b 621 -31 1225 172 1003 -31 m 621 253 b 879 483 797 253 879 343 b 621 715 879 625 797 715 b 358 483 444 715 358 626 b 621 253 358 340 444 253 "},"Ọ":{"ha":1247,"x_min":0,"x_max":0,"o":"m 621 -31 b 15 483 238 -31 15 172 b 621 999 15 794 238 999 b 1225 483 1008 999 1225 799 b 621 -31 1225 172 1003 -31 m 621 253 b 879 483 797 253 879 343 b 621 715 879 625 797 715 b 358 483 444 715 358 626 b 621 253 358 340 444 253 m 467 -307 l 467 -111 l 778 -111 l 778 -307 "},"Ò":{"ha":1247,"x_min":0,"x_max":0,"o":"m 536 1053 l 317 1251 l 563 1251 l 707 1053 m 621 -31 b 15 483 238 -31 15 172 b 621 999 15 794 238 999 b 1225 483 1008 999 1225 799 b 621 -31 1225 172 1003 -31 m 621 253 b 879 483 797 253 879 343 b 621 715 879 625 797 715 b 358 483 444 715 358 626 b 621 253 358 340 444 253 "},"Ỏ":{"ha":1247,"x_min":0,"x_max":0,"o":"m 644 999 b 1225 483 1017 990 1225 792 b 621 -31 1225 172 1003 -31 b 15 483 238 -31 15 172 b 578 997 15 782 221 983 l 554 1081 b 624 1113 590 1085 624 1086 b 532 1140 624 1144 581 1140 l 510 1140 l 510 1281 l 532 1281 b 785 1131 685 1281 785 1226 b 644 999 785 1046 714 1014 m 621 253 b 879 483 797 253 879 343 b 621 715 879 625 797 715 b 358 483 444 715 358 626 b 621 253 358 340 444 253 "},"Ơ":{"ha":1247,"x_min":0,"x_max":0,"o":"m 1250 986 b 1144 774 1250 901 1219 818 b 1225 483 1197 694 1225 596 b 621 -31 1225 172 1003 -31 b 15 483 238 -31 15 172 b 621 999 15 794 238 999 b 1025 893 789 999 925 961 b 1092 1000 1078 899 1092 939 l 1092 1029 l 1250 1029 m 621 253 b 879 483 797 253 879 343 b 621 715 879 625 797 715 b 358 483 444 715 358 626 b 621 253 358 340 444 253 "},"Ớ":{"ha":1247,"x_min":0,"x_max":0,"o":"m 944 1251 l 704 1053 l 538 1053 l 696 1251 m 1250 986 b 1144 774 1250 901 1219 818 b 1225 483 1197 694 1225 596 b 621 -31 1225 172 1003 -31 b 15 483 238 -31 15 172 b 621 999 15 794 238 999 b 1025 893 789 999 925 961 b 1092 1000 1078 899 1092 939 l 1092 1029 l 1250 1029 m 621 253 b 879 483 797 253 879 343 b 621 715 879 625 797 715 b 358 483 444 715 358 626 b 621 253 358 340 444 253 "},"Ợ":{"ha":1247,"x_min":0,"x_max":0,"o":"m 1250 986 b 1144 774 1250 901 1219 818 b 1225 483 1197 694 1225 596 b 621 -31 1225 172 1003 -31 b 15 483 238 -31 15 172 b 621 999 15 794 238 999 b 1025 893 789 999 925 961 b 1092 1000 1078 899 1092 939 l 1092 1029 l 1250 1029 m 621 253 b 879 483 797 253 879 343 b 621 715 879 625 797 715 b 358 483 444 715 358 626 b 621 253 358 340 444 253 m 467 -307 l 467 -111 l 778 -111 l 778 -307 "},"Ờ":{"ha":1247,"x_min":0,"x_max":0,"o":"m 707 1053 l 536 1053 l 317 1251 l 563 1251 m 1250 986 b 1144 774 1250 901 1219 818 b 1225 483 1197 694 1225 596 b 621 -31 1225 172 1003 -31 b 15 483 238 -31 15 172 b 621 999 15 794 238 999 b 1025 893 789 999 925 961 b 1092 1000 1078 899 1092 939 l 1092 1029 l 1250 1029 m 621 253 b 879 483 797 253 879 343 b 621 715 879 625 797 715 b 358 483 444 715 358 626 b 621 253 358 340 444 253 "},"Ở":{"ha":1247,"x_min":0,"x_max":0,"o":"m 1250 986 b 1144 774 1250 901 1219 818 b 1225 483 1197 694 1225 596 b 621 -31 1225 172 1003 -31 b 15 483 238 -31 15 172 b 578 997 15 782 221 983 l 554 1081 b 624 1113 590 1085 624 1086 b 532 1140 624 1144 581 1140 l 510 1140 l 510 1281 l 532 1281 b 785 1131 685 1281 785 1226 b 644 999 785 1046 714 1014 b 1025 893 801 994 931 958 b 1092 1000 1078 899 1092 939 l 1092 1029 l 1250 1029 m 621 253 b 879 483 797 253 879 343 b 621 715 879 625 797 715 b 358 483 444 715 358 626 b 621 253 358 340 444 253 "},"Ỡ":{"ha":1247,"x_min":0,"x_max":0,"o":"m 532 1113 b 510 1050 518 1113 510 1088 l 379 1050 b 543 1254 379 1175 443 1254 b 704 1178 631 1254 679 1178 b 725 1251 715 1178 725 1200 l 863 1251 b 701 1039 863 1110 800 1039 b 532 1113 599 1039 563 1113 m 1250 986 b 1144 774 1250 901 1219 818 b 1225 483 1197 694 1225 596 b 621 -31 1225 172 1003 -31 b 15 483 238 -31 15 172 b 621 999 15 794 238 999 b 1025 893 789 999 925 961 b 1092 1000 1078 899 1092 939 l 1092 1029 l 1250 1029 m 621 253 b 879 483 797 253 879 343 b 621 715 879 625 797 715 b 358 483 444 715 358 626 b 621 253 358 340 444 253 "},"Ő":{"ha":1247,"x_min":0,"x_max":0,"o":"m 392 1011 l 550 1251 l 757 1251 l 558 1011 m 686 1011 l 844 1251 l 1089 1251 l 853 1011 m 621 -31 b 15 483 238 -31 15 172 b 621 999 15 794 238 999 b 1225 483 1008 999 1225 799 b 621 -31 1225 172 1003 -31 m 621 253 b 879 483 797 253 879 343 b 621 715 879 625 797 715 b 358 483 444 715 358 626 b 621 253 358 340 444 253 "},"Ō":{"ha":1247,"x_min":0,"x_max":0,"o":"m 428 1028 l 428 1160 l 815 1160 l 815 1028 m 621 -31 b 15 483 238 -31 15 172 b 621 999 15 794 238 999 b 1225 483 1008 999 1225 799 b 621 -31 1225 172 1003 -31 m 621 253 b 879 483 797 253 879 343 b 621 715 879 625 797 715 b 358 483 444 715 358 626 b 621 253 358 340 444 253 "},"Ø":{"ha":1247,"x_min":0,"x_max":0,"o":"m 1028 892 b 1225 483 1157 801 1225 661 b 621 -31 1225 172 1003 -31 b 329 18 510 -31 413 -14 l 315 0 l 158 0 l 219 75 b 15 483 88 165 15 307 b 621 999 15 794 238 999 b 917 949 735 999 833 982 l 932 968 l 1089 968 m 358 483 b 415 322 358 417 378 361 l 721 703 b 621 715 692 711 658 715 b 358 483 444 715 358 626 m 621 253 b 879 483 797 253 879 343 b 828 640 879 547 863 601 l 525 263 b 621 253 554 257 586 253 "},"Õ":{"ha":1247,"x_min":0,"x_max":0,"o":"m 701 1039 b 532 1113 599 1039 563 1113 b 510 1050 518 1113 510 1088 l 379 1050 b 543 1254 379 1175 443 1254 b 704 1178 631 1254 679 1178 b 725 1251 715 1178 725 1200 l 863 1251 b 701 1039 863 1110 800 1039 m 621 -31 b 15 483 238 -31 15 172 b 621 999 15 794 238 999 b 1225 483 1008 999 1225 799 b 621 -31 1225 172 1003 -31 m 621 253 b 879 483 797 253 879 343 b 621 715 879 625 797 715 b 358 483 444 715 358 626 b 621 253 358 340 444 253 "},"Œ":{"ha":1756,"x_min":0,"x_max":0,"o":"m 1701 718 l 1225 718 l 1225 614 l 1686 614 l 1686 361 l 1225 361 l 1225 250 l 1701 250 l 1701 0 l 882 0 l 882 8 b 621 -31 806 -17 718 -31 b 15 483 238 -31 15 172 b 621 999 15 794 238 999 b 882 961 719 999 807 986 l 882 968 l 1701 968 m 621 253 b 879 483 797 253 879 343 b 621 715 879 625 797 715 b 358 483 444 715 358 626 b 621 253 358 340 444 253 "},"P":{"ha":1072,"x_min":0,"x_max":0,"o":"m 54 0 l 54 968 l 604 968 b 1057 642 838 968 1057 924 b 604 303 1057 360 844 303 l 396 303 l 396 0 m 396 554 l 589 554 b 711 639 628 554 711 550 b 589 718 711 722 629 718 l 396 718 "},"Þ":{"ha":1072,"x_min":0,"x_max":0,"o":"m 604 821 b 1057 496 838 821 1057 776 b 604 156 1057 194 814 156 l 396 156 l 396 0 l 54 0 l 54 968 l 396 968 l 396 821 m 589 406 b 711 490 639 406 711 408 b 589 571 711 575 628 571 l 396 571 l 396 406 "},"Q":{"ha":1253,"x_min":0,"x_max":0,"o":"m 1071 -53 l 956 40 b 621 -31 861 -8 747 -31 b 17 483 238 -31 17 172 b 621 999 17 794 238 999 b 1222 483 1006 999 1222 799 b 1150 190 1222 368 1199 268 l 1236 119 m 621 229 b 689 232 647 229 667 232 l 544 358 l 725 529 l 888 386 b 876 483 883 418 876 449 b 621 739 876 640 794 739 b 360 483 442 739 360 640 b 621 229 360 326 442 229 "},"R":{"ha":1106,"x_min":0,"x_max":0,"o":"m 1100 0 l 717 0 l 549 303 l 396 303 l 396 0 l 54 0 l 54 968 l 604 968 b 1057 642 838 968 1057 924 b 883 347 1057 481 988 393 m 396 718 l 396 554 l 589 554 b 711 639 628 554 711 550 b 589 718 711 722 629 718 "},"Ŕ":{"ha":1106,"x_min":0,"x_max":0,"o":"m 857 1251 l 617 1053 l 450 1053 l 608 1251 m 1100 0 l 717 0 l 549 303 l 396 303 l 396 0 l 54 0 l 54 968 l 604 968 b 1057 642 838 968 1057 924 b 883 347 1057 481 988 393 m 396 718 l 396 554 l 589 554 b 711 639 628 554 711 550 b 589 718 711 722 629 718 "},"Ř":{"ha":1106,"x_min":0,"x_max":0,"o":"m 758 1251 l 533 1010 l 308 1251 l 483 1251 l 533 1194 l 585 1251 m 1100 0 l 717 0 l 549 303 l 396 303 l 396 0 l 54 0 l 54 968 l 604 968 b 1057 642 838 968 1057 924 b 883 347 1057 481 988 393 m 396 718 l 396 554 l 589 554 b 711 639 628 554 711 550 b 589 718 711 722 629 718 "},"Ŗ":{"ha":1106,"x_min":0,"x_max":0,"o":"m 1100 0 l 717 0 l 549 303 l 396 303 l 396 0 l 54 0 l 54 968 l 604 968 b 1057 642 838 968 1057 924 b 883 347 1057 481 988 393 m 396 718 l 396 554 l 589 554 b 711 639 628 554 711 550 b 589 718 711 722 629 718 m 347 -321 l 413 -69 l 653 -69 l 478 -321 "},"S":{"ha":1079,"x_min":0,"x_max":0,"o":"m 594 -31 b 4 296 247 -31 61 107 l 332 365 b 582 218 369 253 499 218 b 710 276 643 218 710 229 b 511 360 710 313 699 332 b 69 678 192 407 69 507 b 518 999 69 896 283 999 b 1017 819 719 999 888 940 l 788 638 b 513 758 721 711 608 758 b 418 717 451 758 418 744 b 592 643 418 686 451 664 b 1058 315 781 615 1058 572 b 594 -31 1058 110 925 -31 "},"Ś":{"ha":1079,"x_min":0,"x_max":0,"o":"m 449 1053 l 607 1251 l 856 1251 l 615 1053 m 594 -31 b 4 296 247 -31 61 107 l 332 365 b 582 218 369 253 499 218 b 710 276 643 218 710 229 b 511 360 710 313 699 332 b 69 678 192 407 69 507 b 518 999 69 896 283 999 b 1017 819 719 999 888 940 l 788 638 b 513 758 721 711 608 758 b 418 717 451 758 418 744 b 592 643 418 686 451 664 b 1058 315 781 615 1058 572 b 594 -31 1058 110 925 -31 "},"Š":{"ha":1079,"x_min":0,"x_max":0,"o":"m 532 1010 l 307 1251 l 482 1251 l 532 1194 l 583 1251 l 757 1251 m 594 -31 b 4 296 247 -31 61 107 l 332 365 b 582 218 369 253 499 218 b 710 276 643 218 710 229 b 511 360 710 313 699 332 b 69 678 192 407 69 507 b 518 999 69 896 283 999 b 1017 819 719 999 888 940 l 788 638 b 513 758 721 711 608 758 b 418 717 451 758 418 744 b 592 643 418 686 451 664 b 1058 315 781 615 1058 572 b 594 -31 1058 110 925 -31 "},"Ş":{"ha":1079,"x_min":0,"x_max":0,"o":"m 568 -31 l 549 -49 b 608 -79 572 -56 593 -67 b 651 -187 640 -107 651 -147 b 474 -362 651 -283 579 -362 b 367 -337 458 -362 415 -364 l 436 -225 b 481 -233 454 -231 469 -233 b 518 -196 501 -233 518 -221 b 471 -143 518 -167 499 -151 b 375 -136 442 -135 411 -136 l 450 -22 b 4 296 194 11 53 135 l 332 365 b 582 218 369 253 499 218 b 710 276 643 218 710 229 b 511 360 710 313 699 332 b 69 678 192 407 69 507 b 518 999 69 896 283 999 b 1017 819 719 999 888 940 l 788 638 b 513 758 721 711 608 758 b 418 717 451 758 418 744 b 592 643 418 686 451 664 b 1058 315 781 615 1058 572 b 594 -31 1058 110 925 -31 "},"Ș":{"ha":1079,"x_min":0,"x_max":0,"o":"m 594 -31 b 4 296 247 -31 61 107 l 332 365 b 582 218 369 253 499 218 b 710 276 643 218 710 229 b 511 360 710 313 699 332 b 69 678 192 407 69 507 b 518 999 69 896 283 999 b 1017 819 719 999 888 940 l 788 638 b 513 758 721 711 608 758 b 418 717 451 758 418 744 b 592 643 418 686 451 664 b 1058 315 781 615 1058 572 b 594 -31 1058 110 925 -31 m 346 -321 l 411 -69 l 651 -69 l 476 -321 "},"ẞ":{"ha":1468,"x_min":0,"x_max":0,"o":"m 1013 635 b 1447 315 1176 607 1447 571 b 958 -31 1447 111 1228 -31 b 449 224 721 -31 524 72 l 774 335 b 985 211 803 244 900 211 b 1104 276 1056 211 1104 233 b 918 356 1104 318 1042 338 b 521 678 729 386 521 449 b 524 719 521 692 522 706 l 397 719 l 397 0 l 54 0 l 54 968 l 1285 968 l 1285 719 l 879 719 b 864 694 882 719 864 719 b 1013 635 864 665 899 654 "},"T":{"ha":1007,"x_min":0,"x_max":0,"o":"m 331 0 l 331 685 l 7 685 l 7 968 l 1000 968 l 1000 685 l 681 685 l 681 0 "},"Ŧ":{"ha":1007,"x_min":0,"x_max":0,"o":"m 1000 685 l 681 685 l 681 563 l 817 563 l 817 408 l 681 408 l 681 0 l 331 0 l 331 408 l 163 408 l 163 563 l 331 563 l 331 685 l 7 685 l 7 968 l 1000 968 "},"Ť":{"ha":1007,"x_min":0,"x_max":0,"o":"m 503 1010 l 278 1251 l 453 1251 l 503 1194 l 554 1251 l 728 1251 m 331 0 l 331 685 l 7 685 l 7 968 l 1000 968 l 1000 685 l 681 685 l 681 0 "},"Ţ":{"ha":1007,"x_min":0,"x_max":0,"o":"m 7 968 l 1000 968 l 1000 685 l 681 685 l 681 0 l 568 0 l 518 -49 b 578 -79 542 -56 563 -67 b 621 -187 610 -107 621 -147 b 443 -362 621 -283 549 -362 b 336 -337 428 -362 385 -364 l 406 -225 b 450 -233 424 -231 439 -233 b 488 -196 471 -233 488 -221 b 440 -143 488 -167 468 -151 b 344 -136 411 -135 381 -136 l 433 0 l 331 0 l 331 685 l 7 685 "},"Ț":{"ha":1007,"x_min":0,"x_max":0,"o":"m 331 0 l 331 685 l 7 685 l 7 968 l 1000 968 l 1000 685 l 681 685 l 681 0 m 317 -321 l 382 -69 l 622 -69 l 447 -321 "},"U":{"ha":1136,"x_min":0,"x_max":0,"o":"m 568 -31 b 44 350 217 -31 44 96 l 44 968 l 388 968 l 388 431 b 568 271 388 351 407 271 b 743 426 726 271 743 349 l 743 968 l 1092 968 l 1092 357 b 568 -31 1092 99 917 -31 "},"Ú":{"ha":1136,"x_min":0,"x_max":0,"o":"m 482 1053 l 640 1251 l 889 1251 l 649 1053 m 568 -31 b 44 350 217 -31 44 96 l 44 968 l 388 968 l 388 431 b 568 271 388 351 407 271 b 743 426 726 271 743 349 l 743 968 l 1092 968 l 1092 357 b 568 -31 1092 99 917 -31 "},"Ǔ":{"ha":1136,"x_min":0,"x_max":0,"o":"m 567 1010 l 342 1251 l 517 1251 l 567 1194 l 618 1251 l 792 1251 m 568 -31 b 44 350 217 -31 44 96 l 44 968 l 388 968 l 388 431 b 568 271 388 351 407 271 b 743 426 726 271 743 349 l 743 968 l 1092 968 l 1092 357 b 568 -31 1092 99 917 -31 "},"Û":{"ha":1136,"x_min":0,"x_max":0,"o":"m 342 1026 l 567 1288 l 792 1026 l 618 1026 l 567 1093 l 515 1026 m 568 -31 b 44 350 217 -31 44 96 l 44 968 l 388 968 l 388 431 b 568 271 388 351 407 271 b 743 426 726 271 743 349 l 743 968 l 1092 968 l 1092 357 b 568 -31 1092 99 917 -31 "},"Ü":{"ha":1136,"x_min":0,"x_max":0,"o":"m 289 1056 l 289 1251 l 539 1251 l 539 1056 m 594 1056 l 594 1251 l 844 1251 l 844 1056 m 568 -31 b 44 350 217 -31 44 96 l 44 968 l 388 968 l 388 431 b 568 271 388 351 407 271 b 743 426 726 271 743 349 l 743 968 l 1092 968 l 1092 357 b 568 -31 1092 99 917 -31 "},"Ǘ":{"ha":1136,"x_min":0,"x_max":0,"o":"m 482 1336 l 640 1535 l 889 1535 l 649 1336 m 289 1056 l 289 1251 l 539 1251 l 539 1056 m 594 1056 l 594 1251 l 844 1251 l 844 1056 m 568 -31 b 44 350 217 -31 44 96 l 44 968 l 388 968 l 388 431 b 568 271 388 351 407 271 b 743 426 726 271 743 349 l 743 968 l 1092 968 l 1092 357 b 568 -31 1092 99 917 -31 "},"Ǚ":{"ha":1136,"x_min":0,"x_max":0,"o":"m 567 1293 l 342 1535 l 517 1535 l 567 1478 l 618 1535 l 792 1535 m 289 1056 l 289 1251 l 539 1251 l 539 1056 m 594 1056 l 594 1251 l 844 1251 l 844 1056 m 568 -31 b 44 350 217 -31 44 96 l 44 968 l 388 968 l 388 431 b 568 271 388 351 407 271 b 743 426 726 271 743 349 l 743 968 l 1092 968 l 1092 357 b 568 -31 1092 99 917 -31 "},"Ǜ":{"ha":1136,"x_min":0,"x_max":0,"o":"m 481 1336 l 261 1535 l 507 1535 l 651 1336 m 289 1056 l 289 1251 l 539 1251 l 539 1056 m 594 1056 l 594 1251 l 844 1251 l 844 1056 m 568 -31 b 44 350 217 -31 44 96 l 44 968 l 388 968 l 388 431 b 568 271 388 351 407 271 b 743 426 726 271 743 349 l 743 968 l 1092 968 l 1092 357 b 568 -31 1092 99 917 -31 "},"Ǖ":{"ha":1136,"x_min":0,"x_max":0,"o":"m 372 1311 l 372 1443 l 760 1443 l 760 1311 m 289 1056 l 289 1251 l 539 1251 l 539 1056 m 594 1056 l 594 1251 l 844 1251 l 844 1056 m 568 -31 b 44 350 217 -31 44 96 l 44 968 l 388 968 l 388 431 b 568 271 388 351 407 271 b 743 426 726 271 743 349 l 743 968 l 1092 968 l 1092 357 b 568 -31 1092 99 917 -31 "},"Ụ":{"ha":1136,"x_min":0,"x_max":0,"o":"m 568 -31 b 44 350 217 -31 44 96 l 44 968 l 388 968 l 388 431 b 568 271 388 351 407 271 b 743 426 726 271 743 349 l 743 968 l 1092 968 l 1092 357 b 568 -31 1092 99 917 -31 m 413 -269 l 413 -74 l 724 -74 l 724 -269 "},"Ù":{"ha":1136,"x_min":0,"x_max":0,"o":"m 481 1053 l 261 1251 l 507 1251 l 651 1053 m 568 -31 b 44 350 217 -31 44 96 l 44 968 l 388 968 l 388 431 b 568 271 388 351 407 271 b 743 426 726 271 743 349 l 743 968 l 1092 968 l 1092 357 b 568 -31 1092 99 917 -31 "},"Ủ":{"ha":1136,"x_min":0,"x_max":0,"o":"m 500 1081 b 569 1113 536 1085 569 1086 b 478 1140 569 1144 526 1140 l 456 1140 l 456 1281 l 478 1281 b 731 1131 631 1281 731 1226 b 526 988 731 1019 608 999 m 568 -31 b 44 350 217 -31 44 96 l 44 968 l 388 968 l 388 431 b 568 271 388 351 407 271 b 743 426 726 271 743 349 l 743 968 l 1092 968 l 1092 357 b 568 -31 1092 99 917 -31 "},"Ư":{"ha":1136,"x_min":0,"x_max":0,"o":"m 1142 968 l 1300 968 l 1300 925 b 1092 682 1300 808 1243 696 l 1092 357 b 568 -31 1092 99 917 -31 b 44 350 217 -31 44 96 l 44 968 l 388 968 l 388 431 b 568 271 388 351 407 271 b 743 426 726 271 743 349 l 743 968 l 1092 968 l 1092 835 b 1142 939 1131 847 1142 885 "},"Ứ":{"ha":1136,"x_min":0,"x_max":0,"o":"m 889 1251 l 649 1053 l 482 1053 l 640 1251 m 1142 968 l 1300 968 l 1300 925 b 1092 682 1300 808 1243 696 l 1092 357 b 568 -31 1092 99 917 -31 b 44 350 217 -31 44 96 l 44 968 l 388 968 l 388 431 b 568 271 388 351 407 271 b 743 426 726 271 743 349 l 743 968 l 1092 968 l 1092 835 b 1142 939 1131 847 1142 885 "},"Ự":{"ha":1136,"x_min":0,"x_max":0,"o":"m 1142 968 l 1300 968 l 1300 925 b 1092 682 1300 808 1243 696 l 1092 357 b 568 -31 1092 99 917 -31 b 44 350 217 -31 44 96 l 44 968 l 388 968 l 388 431 b 568 271 388 351 407 271 b 743 426 726 271 743 349 l 743 968 l 1092 968 l 1092 835 b 1142 939 1131 847 1142 885 m 413 -269 l 413 -74 l 724 -74 l 724 -269 "},"Ừ":{"ha":1136,"x_min":0,"x_max":0,"o":"m 651 1053 l 481 1053 l 261 1251 l 507 1251 m 1142 968 l 1300 968 l 1300 925 b 1092 682 1300 808 1243 696 l 1092 357 b 568 -31 1092 99 917 -31 b 44 350 217 -31 44 96 l 44 968 l 388 968 l 388 431 b 568 271 388 351 407 271 b 743 426 726 271 743 349 l 743 968 l 1092 968 l 1092 835 b 1142 939 1131 847 1142 885 "},"Ử":{"ha":1136,"x_min":0,"x_max":0,"o":"m 569 1113 b 478 1140 569 1144 526 1140 l 456 1140 l 456 1281 l 478 1281 b 731 1131 631 1281 731 1226 b 526 988 731 1019 608 999 l 500 1081 b 569 1113 536 1085 569 1086 m 1142 968 l 1300 968 l 1300 925 b 1092 682 1300 808 1243 696 l 1092 357 b 568 -31 1092 99 917 -31 b 44 350 217 -31 44 96 l 44 968 l 388 968 l 388 431 b 568 271 388 351 407 271 b 743 426 726 271 743 349 l 743 968 l 1092 968 l 1092 835 b 1142 939 1131 847 1142 885 "},"Ữ":{"ha":1136,"x_min":0,"x_max":0,"o":"m 476 1113 b 454 1050 463 1113 454 1088 l 324 1050 b 488 1254 324 1175 388 1254 b 649 1178 575 1254 624 1178 b 669 1251 660 1178 669 1200 l 807 1251 b 646 1039 807 1110 744 1039 b 476 1113 543 1039 507 1113 m 1142 968 l 1300 968 l 1300 925 b 1092 682 1300 808 1243 696 l 1092 357 b 568 -31 1092 99 917 -31 b 44 350 217 -31 44 96 l 44 968 l 388 968 l 388 431 b 568 271 388 351 407 271 b 743 426 726 271 743 349 l 743 968 l 1092 968 l 1092 835 b 1142 939 1131 847 1142 885 "},"Ű":{"ha":1136,"x_min":0,"x_max":0,"o":"m 336 1011 l 494 1251 l 701 1251 l 503 1011 m 631 1011 l 789 1251 l 1033 1251 l 797 1011 m 568 -31 b 44 350 217 -31 44 96 l 44 968 l 388 968 l 388 431 b 568 271 388 351 407 271 b 743 426 726 271 743 349 l 743 968 l 1092 968 l 1092 357 b 568 -31 1092 99 917 -31 "},"Ū":{"ha":1136,"x_min":0,"x_max":0,"o":"m 372 1028 l 372 1160 l 760 1160 l 760 1028 m 568 -31 b 44 350 217 -31 44 96 l 44 968 l 388 968 l 388 431 b 568 271 388 351 407 271 b 743 426 726 271 743 349 l 743 968 l 1092 968 l 1092 357 b 568 -31 1092 99 917 -31 "},"Ų":{"ha":1136,"x_min":0,"x_max":0,"o":"m 743 968 l 1092 968 l 1092 357 b 781 -10 1092 158 988 35 b 664 -132 738 -29 664 -75 b 704 -178 664 -169 683 -178 b 760 -139 733 -178 749 -162 l 879 -217 b 710 -319 847 -271 800 -319 b 528 -157 606 -319 528 -253 b 585 -31 528 -97 556 -56 l 568 -31 b 44 350 217 -31 44 96 l 44 968 l 388 968 l 388 431 b 568 271 388 351 407 271 b 743 426 726 271 743 349 "},"Ů":{"ha":1136,"x_min":0,"x_max":0,"o":"m 567 901 b 346 1124 443 901 346 1008 b 567 1344 346 1244 444 1344 b 788 1124 683 1344 788 1247 b 567 901 788 1000 689 901 m 567 1060 b 631 1124 603 1060 631 1089 b 567 1186 631 1158 600 1186 b 503 1124 531 1186 503 1158 b 567 1060 503 1089 531 1060 m 568 -31 b 44 350 217 -31 44 96 l 44 968 l 388 968 l 388 431 b 568 271 388 351 407 271 b 743 426 726 271 743 349 l 743 968 l 1092 968 l 1092 357 b 568 -31 1092 99 917 -31 "},"Ũ":{"ha":1136,"x_min":0,"x_max":0,"o":"m 646 1039 b 476 1113 543 1039 507 1113 b 454 1050 463 1113 454 1088 l 324 1050 b 488 1254 324 1175 388 1254 b 649 1178 575 1254 624 1178 b 669 1251 660 1178 669 1200 l 807 1251 b 646 1039 807 1110 744 1039 m 568 -31 b 44 350 217 -31 44 96 l 44 968 l 388 968 l 388 431 b 568 271 388 351 407 271 b 743 426 726 271 743 349 l 743 968 l 1092 968 l 1092 357 b 568 -31 1092 99 917 -31 "},"V":{"ha":1179,"x_min":0,"x_max":0,"o":"m 815 968 l 1189 968 l 771 0 l 410 0 l -12 968 l 361 968 l 590 357 "},"W":{"ha":1626,"x_min":0,"x_max":0,"o":"m 1254 968 l 1636 968 l 1257 0 l 947 0 l 813 407 l 676 0 l 365 0 l -11 968 l 368 968 l 543 471 l 685 906 l 938 906 l 1082 469 "},"Ẃ":{"ha":1626,"x_min":0,"x_max":0,"o":"m 1136 1251 l 896 1053 l 729 1053 l 888 1251 m 1254 968 l 1636 968 l 1257 0 l 947 0 l 813 407 l 676 0 l 365 0 l -11 968 l 368 968 l 543 471 l 685 906 l 938 906 l 1082 469 "},"Ŵ":{"ha":1626,"x_min":0,"x_max":0,"o":"m 814 1093 l 763 1026 l 589 1026 l 814 1288 l 1039 1026 l 865 1026 m 1254 968 l 1636 968 l 1257 0 l 947 0 l 813 407 l 676 0 l 365 0 l -11 968 l 368 968 l 543 471 l 685 906 l 938 906 l 1082 469 "},"Ẅ":{"ha":1626,"x_min":0,"x_max":0,"o":"m 786 1251 l 786 1056 l 536 1056 l 536 1251 m 1092 1251 l 1092 1056 l 842 1056 l 842 1251 m 1254 968 l 1636 968 l 1257 0 l 947 0 l 813 407 l 676 0 l 365 0 l -11 968 l 368 968 l 543 471 l 685 906 l 938 906 l 1082 469 "},"Ẁ":{"ha":1626,"x_min":0,"x_max":0,"o":"m 899 1053 l 728 1053 l 508 1251 l 754 1251 m 1254 968 l 1636 968 l 1257 0 l 947 0 l 813 407 l 676 0 l 365 0 l -11 968 l 368 968 l 543 471 l 685 906 l 938 906 l 1082 469 "},"X":{"ha":1189,"x_min":0,"x_max":0,"o":"m -10 0 l 379 476 l -15 968 l 411 968 l 593 692 l 776 968 l 1197 968 l 804 476 l 1197 0 l 772 0 l 592 274 l 413 0 "},"Y":{"ha":1181,"x_min":0,"x_max":0,"o":"m 422 0 l 422 408 l -19 968 l 399 968 l 588 663 l 781 968 l 1199 968 l 765 408 l 765 0 "},"Ý":{"ha":1181,"x_min":0,"x_max":0,"o":"m 508 1053 l 667 1251 l 915 1251 l 675 1053 m 422 0 l 422 408 l -19 968 l 399 968 l 588 663 l 781 968 l 1199 968 l 765 408 l 765 0 "},"Ŷ":{"ha":1181,"x_min":0,"x_max":0,"o":"m 367 1026 l 592 1288 l 817 1026 l 643 1026 l 592 1093 l 540 1026 m 422 0 l 422 408 l -19 968 l 399 968 l 588 663 l 781 968 l 1199 968 l 765 408 l 765 0 "},"Ÿ":{"ha":1181,"x_min":0,"x_max":0,"o":"m 314 1056 l 314 1251 l 564 1251 l 564 1056 m 619 1056 l 619 1251 l 869 1251 l 869 1056 m 422 0 l 422 408 l -19 968 l 399 968 l 588 663 l 781 968 l 1199 968 l 765 408 l 765 0 "},"Ỵ":{"ha":1181,"x_min":0,"x_max":0,"o":"m 422 0 l 422 408 l -19 968 l 399 968 l 588 663 l 781 968 l 1199 968 l 765 408 l 765 0 m 436 -269 l 436 -74 l 747 -74 l 747 -269 "},"Ỳ":{"ha":1181,"x_min":0,"x_max":0,"o":"m 506 1053 l 286 1251 l 532 1251 l 676 1053 m 422 0 l 422 408 l -19 968 l 399 968 l 588 663 l 781 968 l 1199 968 l 765 408 l 765 0 "},"Ỷ":{"ha":1181,"x_min":0,"x_max":0,"o":"m 525 1081 b 594 1113 561 1085 594 1086 b 503 1140 594 1144 551 1140 l 481 1140 l 481 1281 l 503 1281 b 756 1131 656 1281 756 1226 b 551 988 756 1019 633 999 m 422 0 l 422 408 l -19 968 l 399 968 l 588 663 l 781 968 l 1199 968 l 765 408 l 765 0 "},"Ỹ":{"ha":1181,"x_min":0,"x_max":0,"o":"m 672 1039 b 503 1113 569 1039 533 1113 b 481 1050 489 1113 481 1088 l 350 1050 b 514 1254 350 1175 414 1254 b 675 1178 601 1254 650 1178 b 696 1251 686 1178 696 1200 l 833 1251 b 672 1039 833 1110 771 1039 m 422 0 l 422 408 l -19 968 l 399 968 l 588 663 l 781 968 l 1199 968 l 765 408 l 765 0 "},"Z":{"ha":1064,"x_min":0,"x_max":0,"o":"m 517 250 l 1031 250 l 1031 0 l 25 0 l 25 215 l 544 718 l 65 718 l 65 968 l 1025 968 l 1025 743 "},"Ź":{"ha":1064,"x_min":0,"x_max":0,"o":"m 857 1251 l 617 1053 l 450 1053 l 608 1251 m 517 250 l 1031 250 l 1031 0 l 25 0 l 25 215 l 544 718 l 65 718 l 65 968 l 1025 968 l 1025 743 "},"Ž":{"ha":1064,"x_min":0,"x_max":0,"o":"m 758 1251 l 533 1010 l 308 1251 l 483 1251 l 533 1194 l 585 1251 m 517 250 l 1031 250 l 1031 0 l 25 0 l 25 215 l 544 718 l 65 718 l 65 968 l 1025 968 l 1025 743 "},"Ż":{"ha":1064,"x_min":0,"x_max":0,"o":"m 688 1251 l 688 1056 l 379 1056 l 379 1251 m 517 250 l 1031 250 l 1031 0 l 25 0 l 25 215 l 544 718 l 65 718 l 65 968 l 1025 968 l 1025 743 "},"a":{"ha":903,"x_min":0,"x_max":0,"o":"m 458 701 b 857 422 726 701 857 611 l 857 0 l 622 0 l 596 71 b 365 -17 536 4 453 -17 b 25 219 143 -17 25 67 b 310 433 25 356 126 433 l 540 433 b 436 507 538 475 519 507 b 192 442 354 507 276 488 l 36 606 b 458 701 192 683 325 701 m 421 163 b 539 254 490 163 529 210 l 410 254 b 340 211 365 254 340 238 b 421 163 340 176 378 163 "},"á":{"ha":903,"x_min":0,"x_max":0,"o":"m 778 968 l 538 769 l 371 769 l 529 968 m 458 701 b 857 422 726 701 857 611 l 857 0 l 622 0 l 596 71 b 365 -17 536 4 453 -17 b 25 219 143 -17 25 67 b 310 433 25 356 126 433 l 540 433 b 436 507 538 475 519 507 b 192 442 354 507 276 488 l 36 606 b 458 701 192 683 325 701 m 421 163 b 539 254 490 163 529 210 l 410 254 b 340 211 365 254 340 238 b 421 163 340 176 378 163 "},"ă":{"ha":903,"x_min":0,"x_max":0,"o":"m 454 750 b 194 968 269 750 194 828 l 382 968 b 454 882 382 892 422 882 b 528 968 490 882 528 892 l 714 968 b 454 750 714 817 628 750 m 458 701 b 857 422 726 701 857 611 l 857 0 l 622 0 l 596 71 b 365 -17 536 4 453 -17 b 25 219 143 -17 25 67 b 310 433 25 356 126 433 l 540 433 b 436 507 538 475 519 507 b 192 442 354 507 276 488 l 36 606 b 458 701 192 683 325 701 m 421 163 b 539 254 490 163 529 210 l 410 254 b 340 211 365 254 340 238 b 421 163 340 176 378 163 "},"ắ":{"ha":903,"x_min":0,"x_max":0,"o":"m 778 1251 l 538 1053 l 371 1053 l 529 1251 m 454 750 b 194 968 269 750 194 828 l 382 968 b 454 882 382 892 422 882 b 528 968 490 882 528 892 l 714 968 b 454 750 714 817 628 750 m 458 701 b 857 422 726 701 857 611 l 857 0 l 622 0 l 596 71 b 365 -17 536 4 453 -17 b 25 219 143 -17 25 67 b 310 433 25 356 126 433 l 540 433 b 436 507 538 475 519 507 b 192 442 354 507 276 488 l 36 606 b 458 701 192 683 325 701 m 421 163 b 539 254 490 163 529 210 l 410 254 b 340 211 365 254 340 238 b 421 163 340 176 378 163 "},"ặ":{"ha":903,"x_min":0,"x_max":0,"o":"m 454 750 b 194 968 269 750 194 828 l 382 968 b 454 882 382 892 422 882 b 528 968 490 882 528 892 l 714 968 b 454 750 714 817 628 750 m 458 701 b 857 422 726 701 857 611 l 857 0 l 622 0 l 596 71 b 365 -17 536 4 453 -17 b 25 219 143 -17 25 67 b 310 433 25 356 126 433 l 540 433 b 436 507 538 475 519 507 b 192 442 354 507 276 488 l 36 606 b 458 701 192 683 325 701 m 421 163 b 539 254 490 163 529 210 l 410 254 b 340 211 365 254 340 238 b 421 163 340 176 378 163 m 300 -269 l 300 -74 l 611 -74 l 611 -269 "},"ằ":{"ha":903,"x_min":0,"x_max":0,"o":"m 539 1053 l 368 1053 l 149 1251 l 394 1251 m 454 882 b 528 968 490 882 528 892 l 714 968 b 454 750 714 817 628 750 b 194 968 269 750 194 828 l 382 968 b 454 882 382 892 422 882 m 458 701 b 857 422 726 701 857 611 l 857 0 l 622 0 l 596 71 b 365 -17 536 4 453 -17 b 25 219 143 -17 25 67 b 310 433 25 356 126 433 l 540 433 b 436 507 538 475 519 507 b 192 442 354 507 276 488 l 36 606 b 458 701 192 683 325 701 m 421 163 b 539 254 490 163 529 210 l 410 254 b 340 211 365 254 340 238 b 421 163 340 176 378 163 "},"ẳ":{"ha":903,"x_min":0,"x_max":0,"o":"m 457 1113 b 365 1140 457 1144 414 1140 l 343 1140 l 343 1281 l 365 1281 b 618 1131 518 1281 618 1226 b 414 988 618 1019 496 999 l 388 1081 b 457 1113 424 1085 457 1086 m 454 750 b 194 968 269 750 194 828 l 382 968 b 454 882 382 892 422 882 b 528 968 490 882 528 892 l 714 968 b 454 750 714 817 628 750 m 458 701 b 857 422 726 701 857 611 l 857 0 l 622 0 l 596 71 b 365 -17 536 4 453 -17 b 25 219 143 -17 25 67 b 310 433 25 356 126 433 l 540 433 b 436 507 538 475 519 507 b 192 442 354 507 276 488 l 36 606 b 458 701 192 683 325 701 m 421 163 b 539 254 490 163 529 210 l 410 254 b 340 211 365 254 340 238 b 421 163 340 176 378 163 "},"ẵ":{"ha":903,"x_min":0,"x_max":0,"o":"m 365 1113 b 343 1050 351 1113 343 1088 l 213 1050 b 376 1254 213 1175 276 1254 b 538 1178 464 1254 513 1178 b 558 1251 549 1178 558 1200 l 696 1251 b 535 1039 696 1110 633 1039 b 365 1113 432 1039 396 1113 m 454 750 b 194 968 269 750 194 828 l 382 968 b 454 882 382 892 422 882 b 528 968 490 882 528 892 l 714 968 b 454 750 714 817 628 750 m 458 701 b 857 422 726 701 857 611 l 857 0 l 622 0 l 596 71 b 365 -17 536 4 453 -17 b 25 219 143 -17 25 67 b 310 433 25 356 126 433 l 540 433 b 436 507 538 475 519 507 b 192 442 354 507 276 488 l 36 606 b 458 701 192 683 325 701 m 421 163 b 539 254 490 163 529 210 l 410 254 b 340 211 365 254 340 238 b 421 163 340 176 378 163 "},"ǎ":{"ha":903,"x_min":0,"x_max":0,"o":"m 679 968 l 454 726 l 229 968 l 404 968 l 454 911 l 506 968 m 458 701 b 857 422 726 701 857 611 l 857 0 l 622 0 l 596 71 b 365 -17 536 4 453 -17 b 25 219 143 -17 25 67 b 310 433 25 356 126 433 l 540 433 b 436 507 538 475 519 507 b 192 442 354 507 276 488 l 36 606 b 458 701 192 683 325 701 m 421 163 b 539 254 490 163 529 210 l 410 254 b 340 211 365 254 340 238 b 421 163 340 176 378 163 "},"â":{"ha":903,"x_min":0,"x_max":0,"o":"m 456 810 l 404 743 l 231 743 l 456 1004 l 681 743 l 507 743 m 458 701 b 857 422 726 701 857 611 l 857 0 l 622 0 l 596 71 b 365 -17 536 4 453 -17 b 25 219 143 -17 25 67 b 310 433 25 356 126 433 l 540 433 b 436 507 538 475 519 507 b 192 442 354 507 276 488 l 36 606 b 458 701 192 683 325 701 m 421 163 b 539 254 490 163 529 210 l 410 254 b 340 211 365 254 340 238 b 421 163 340 176 378 163 "},"ấ":{"ha":903,"x_min":0,"x_max":0,"o":"m 778 1228 l 538 1029 l 371 1029 l 529 1228 m 456 810 l 404 743 l 231 743 l 456 1004 l 681 743 l 507 743 m 458 701 b 857 422 726 701 857 611 l 857 0 l 622 0 l 596 71 b 365 -17 536 4 453 -17 b 25 219 143 -17 25 67 b 310 433 25 356 126 433 l 540 433 b 436 507 538 475 519 507 b 192 442 354 507 276 488 l 36 606 b 458 701 192 683 325 701 m 421 163 b 539 254 490 163 529 210 l 410 254 b 340 211 365 254 340 238 b 421 163 340 176 378 163 "},"ậ":{"ha":903,"x_min":0,"x_max":0,"o":"m 456 810 l 404 743 l 231 743 l 456 1004 l 681 743 l 507 743 m 458 701 b 857 422 726 701 857 611 l 857 0 l 622 0 l 596 71 b 365 -17 536 4 453 -17 b 25 219 143 -17 25 67 b 310 433 25 356 126 433 l 540 433 b 436 507 538 475 519 507 b 192 442 354 507 276 488 l 36 606 b 458 701 192 683 325 701 m 421 163 b 539 254 490 163 529 210 l 410 254 b 340 211 365 254 340 238 b 421 163 340 176 378 163 m 300 -269 l 300 -74 l 611 -74 l 611 -269 "},"ầ":{"ha":903,"x_min":0,"x_max":0,"o":"m 539 1029 l 368 1029 l 149 1228 l 394 1228 m 231 743 l 456 1004 l 681 743 l 507 743 l 456 810 l 404 743 m 458 701 b 857 422 726 701 857 611 l 857 0 l 622 0 l 596 71 b 365 -17 536 4 453 -17 b 25 219 143 -17 25 67 b 310 433 25 356 126 433 l 540 433 b 436 507 538 475 519 507 b 192 442 354 507 276 488 l 36 606 b 458 701 192 683 325 701 m 421 163 b 539 254 490 163 529 210 l 410 254 b 340 211 365 254 340 238 b 421 163 340 176 378 163 "},"ẩ":{"ha":903,"x_min":0,"x_max":0,"o":"m 404 743 l 231 743 l 422 965 b 414 964 419 965 417 964 l 388 1057 b 457 1089 424 1061 457 1063 b 365 1117 457 1121 414 1117 l 343 1117 l 343 1257 l 365 1257 b 618 1107 518 1257 618 1203 b 481 975 618 1024 550 992 l 681 743 l 507 743 l 456 810 m 458 701 b 857 422 726 701 857 611 l 857 0 l 622 0 l 596 71 b 365 -17 536 4 453 -17 b 25 219 143 -17 25 67 b 310 433 25 356 126 433 l 540 433 b 436 507 538 475 519 507 b 192 442 354 507 276 488 l 36 606 b 458 701 192 683 325 701 m 421 163 b 539 254 490 163 529 210 l 410 254 b 340 211 365 254 340 238 b 421 163 340 176 378 163 "},"ẫ":{"ha":903,"x_min":0,"x_max":0,"o":"m 365 1089 b 343 1026 351 1089 343 1064 l 213 1026 b 376 1231 213 1151 276 1231 b 538 1154 464 1231 513 1154 b 558 1228 549 1154 558 1176 l 696 1228 b 535 1015 696 1086 633 1015 b 365 1089 432 1015 396 1089 m 231 743 l 456 1004 l 681 743 l 507 743 l 456 810 l 404 743 m 458 701 b 857 422 726 701 857 611 l 857 0 l 622 0 l 596 71 b 365 -17 536 4 453 -17 b 25 219 143 -17 25 67 b 310 433 25 356 126 433 l 540 433 b 436 507 538 475 519 507 b 192 442 354 507 276 488 l 36 606 b 458 701 192 683 325 701 m 421 163 b 539 254 490 163 529 210 l 410 254 b 340 211 365 254 340 238 b 421 163 340 176 378 163 "},"ä":{"ha":903,"x_min":0,"x_max":0,"o":"m 428 968 l 428 772 l 178 772 l 178 968 m 733 968 l 733 772 l 483 772 l 483 968 m 458 701 b 857 422 726 701 857 611 l 857 0 l 622 0 l 596 71 b 365 -17 536 4 453 -17 b 25 219 143 -17 25 67 b 310 433 25 356 126 433 l 540 433 b 436 507 538 475 519 507 b 192 442 354 507 276 488 l 36 606 b 458 701 192 683 325 701 m 421 163 b 539 254 490 163 529 210 l 410 254 b 340 211 365 254 340 238 b 421 163 340 176 378 163 "},"ạ":{"ha":903,"x_min":0,"x_max":0,"o":"m 458 701 b 857 422 726 701 857 611 l 857 0 l 622 0 l 596 71 b 365 -17 536 4 453 -17 b 25 219 143 -17 25 67 b 310 433 25 356 126 433 l 540 433 b 436 507 538 475 519 507 b 192 442 354 507 276 488 l 36 606 b 458 701 192 683 325 701 m 421 163 b 539 254 490 163 529 210 l 410 254 b 340 211 365 254 340 238 b 421 163 340 176 378 163 m 300 -269 l 300 -74 l 611 -74 l 611 -269 "},"à":{"ha":903,"x_min":0,"x_max":0,"o":"m 539 769 l 368 769 l 149 968 l 394 968 m 458 701 b 857 422 726 701 857 611 l 857 0 l 622 0 l 596 71 b 365 -17 536 4 453 -17 b 25 219 143 -17 25 67 b 310 433 25 356 126 433 l 540 433 b 436 507 538 475 519 507 b 192 442 354 507 276 488 l 36 606 b 458 701 192 683 325 701 m 421 163 b 539 254 490 163 529 210 l 410 254 b 340 211 365 254 340 238 b 421 163 340 176 378 163 "},"ả":{"ha":903,"x_min":0,"x_max":0,"o":"m 457 829 b 365 857 457 861 414 857 l 343 857 l 343 997 l 365 997 b 618 847 518 997 618 943 b 414 704 618 736 496 715 l 388 797 b 457 829 424 801 457 803 m 458 701 b 857 422 726 701 857 611 l 857 0 l 622 0 l 596 71 b 365 -17 536 4 453 -17 b 25 219 143 -17 25 67 b 310 433 25 356 126 433 l 540 433 b 436 507 538 475 519 507 b 192 442 354 507 276 488 l 36 606 b 458 701 192 683 325 701 m 421 163 b 539 254 490 163 529 210 l 410 254 b 340 211 365 254 340 238 b 421 163 340 176 378 163 "},"ā":{"ha":903,"x_min":0,"x_max":0,"o":"m 649 876 l 649 744 l 261 744 l 261 876 m 458 701 b 857 422 726 701 857 611 l 857 0 l 622 0 l 596 71 b 365 -17 536 4 453 -17 b 25 219 143 -17 25 67 b 310 433 25 356 126 433 l 540 433 b 436 507 538 475 519 507 b 192 442 354 507 276 488 l 36 606 b 458 701 192 683 325 701 m 421 163 b 539 254 490 163 529 210 l 410 254 b 340 211 365 254 340 238 b 421 163 340 176 378 163 "},"ą":{"ha":903,"x_min":0,"x_max":0,"o":"m 926 -217 b 757 -319 894 -271 847 -319 b 575 -157 653 -319 575 -253 b 676 0 575 -62 644 -17 l 622 0 l 596 71 b 365 -17 536 4 453 -17 b 25 219 143 -17 25 67 b 310 433 25 356 126 433 l 540 433 b 436 507 538 475 519 507 b 192 442 354 507 276 488 l 36 606 b 458 701 192 683 325 701 b 857 422 726 701 857 611 l 857 0 b 711 -132 839 -1 711 -57 b 751 -178 711 -169 731 -178 b 807 -139 781 -178 796 -162 m 421 163 b 539 254 490 163 529 210 l 410 254 b 340 211 365 254 340 238 b 421 163 340 176 378 163 "},"å":{"ha":903,"x_min":0,"x_max":0,"o":"m 454 717 b 275 897 353 717 275 803 b 454 1076 275 994 354 1076 b 633 897 550 1076 633 999 b 454 717 633 797 553 717 m 454 954 b 399 900 417 954 399 931 b 454 839 399 864 422 839 b 513 900 490 839 513 864 b 454 954 513 932 493 954 m 458 701 b 857 422 726 701 857 611 l 857 0 l 622 0 l 596 71 b 365 -17 536 4 453 -17 b 25 219 143 -17 25 67 b 310 433 25 356 126 433 l 540 433 b 436 507 538 475 519 507 b 192 442 354 507 276 488 l 36 606 b 458 701 192 683 325 701 m 421 163 b 539 254 490 163 529 210 l 410 254 b 340 211 365 254 340 238 b 421 163 340 176 378 163 "},"ã":{"ha":903,"x_min":0,"x_max":0,"o":"m 365 829 b 343 767 351 829 343 804 l 213 767 b 376 971 213 892 276 971 b 538 894 464 971 513 894 b 558 968 549 894 558 917 l 696 968 b 535 756 696 826 633 756 b 365 829 432 756 396 829 m 458 701 b 857 422 726 701 857 611 l 857 0 l 622 0 l 596 71 b 365 -17 536 4 453 -17 b 25 219 143 -17 25 67 b 310 433 25 356 126 433 l 540 433 b 436 507 538 475 519 507 b 192 442 354 507 276 488 l 36 606 b 458 701 192 683 325 701 m 421 163 b 539 254 490 163 529 210 l 410 254 b 340 211 365 254 340 238 b 421 163 340 176 378 163 "},"æ":{"ha":1428,"x_min":0,"x_max":0,"o":"m 1401 319 b 1396 250 1401 307 1400 288 l 860 250 b 1017 190 881 211 933 190 b 1253 233 1083 190 1192 210 l 1357 40 b 1017 -17 1239 3 1122 -17 b 664 94 867 -17 744 24 b 381 -17 585 8 478 -17 b 25 219 143 -17 25 67 b 310 433 25 356 126 433 l 540 433 b 436 507 538 475 519 507 b 192 442 354 507 276 488 l 36 606 b 458 701 192 683 325 701 b 740 644 581 701 675 682 b 985 701 808 681 892 701 b 1401 319 1235 701 1401 565 m 990 513 b 861 439 931 513 878 481 l 1101 439 b 990 513 1092 488 1042 513 m 421 163 b 539 254 490 163 529 210 l 410 254 b 340 211 365 254 340 238 b 421 163 340 176 378 163 "},"b":{"ha":976,"x_min":0,"x_max":0,"o":"m 549 701 b 950 346 793 701 950 558 b 535 -17 950 126 790 -17 b 344 40 464 -17 400 3 l 344 0 l 54 0 l 54 968 l 344 968 l 344 629 b 549 701 388 669 476 701 m 503 204 b 661 344 597 204 661 263 b 503 485 661 426 597 485 b 344 344 407 485 344 428 b 503 204 344 261 407 204 "},"c":{"ha":917,"x_min":0,"x_max":0,"o":"m 475 -17 b 24 340 196 -17 24 132 b 474 701 24 557 196 701 b 897 486 692 701 817 629 l 632 394 b 474 481 608 439 558 481 b 311 340 378 481 311 426 b 472 204 311 254 381 204 b 629 292 551 204 613 238 l 889 200 b 475 -17 826 60 676 -17 "},"ć":{"ha":917,"x_min":0,"x_max":0,"o":"m 349 769 l 507 968 l 756 968 l 515 769 m 475 -17 b 24 340 196 -17 24 132 b 474 701 24 557 196 701 b 897 486 692 701 817 629 l 632 394 b 474 481 608 439 558 481 b 311 340 378 481 311 426 b 472 204 311 254 381 204 b 629 292 551 204 613 238 l 889 200 b 475 -17 826 60 676 -17 "},"č":{"ha":917,"x_min":0,"x_max":0,"o":"m 432 726 l 207 968 l 382 968 l 432 911 l 483 968 l 657 968 m 475 -17 b 24 340 196 -17 24 132 b 474 701 24 557 196 701 b 897 486 692 701 817 629 l 632 394 b 474 481 608 439 558 481 b 311 340 378 481 311 426 b 472 204 311 254 381 204 b 629 292 551 204 613 238 l 889 200 b 475 -17 826 60 676 -17 "},"ç":{"ha":917,"x_min":0,"x_max":0,"o":"m 472 204 b 629 292 551 204 613 238 l 889 200 b 481 -17 826 61 679 -15 l 447 -49 b 507 -79 471 -56 492 -67 b 550 -187 539 -107 550 -147 b 372 -362 550 -283 478 -362 b 265 -337 357 -362 314 -364 l 335 -225 b 379 -233 353 -231 368 -233 b 417 -196 400 -233 417 -221 b 369 -143 417 -167 397 -151 b 274 -136 340 -135 310 -136 l 358 -7 b 24 340 149 29 24 163 b 474 701 24 557 196 701 b 897 486 692 701 817 629 l 632 394 b 474 481 608 439 558 481 b 311 340 378 481 311 426 b 472 204 311 254 381 204 "},"ċ":{"ha":917,"x_min":0,"x_max":0,"o":"m 278 772 l 278 968 l 586 968 l 586 772 m 475 -17 b 24 340 196 -17 24 132 b 474 701 24 557 196 701 b 897 486 692 701 817 629 l 632 394 b 474 481 608 439 558 481 b 311 340 378 481 311 426 b 472 204 311 254 381 204 b 629 292 551 204 613 238 l 889 200 b 475 -17 826 60 676 -17 "},"d":{"ha":976,"x_min":0,"x_max":0,"o":"m 631 968 l 919 968 l 919 0 l 631 0 l 631 40 b 439 -17 575 3 510 -17 b 25 346 185 -17 25 126 b 425 701 25 558 183 701 b 631 626 499 701 589 668 m 471 204 b 631 344 567 204 631 261 b 471 485 631 428 567 485 b 314 344 376 485 314 426 b 471 204 314 263 376 204 "},"ð":{"ha":983,"x_min":0,"x_max":0,"o":"m 893 818 b 968 518 946 736 968 635 b 447 -8 968 168 756 -8 b 25 315 178 -8 25 132 b 503 678 25 531 254 678 b 715 638 568 678 644 672 b 660 776 713 690 693 739 l 315 717 l 286 819 l 514 858 b 399 874 479 867 442 872 l 424 1046 b 813 910 600 1029 726 982 l 936 931 l 961 829 m 482 197 b 674 379 643 197 686 286 b 500 483 664 454 592 483 b 315 329 367 483 315 403 b 482 197 315 258 346 197 "},"ď":{"ha":1118,"x_min":0,"x_max":0,"o":"m 631 968 l 919 968 l 919 0 l 631 0 l 631 40 b 439 -17 575 3 510 -17 b 25 346 185 -17 25 126 b 425 701 25 558 183 701 b 631 626 499 701 589 668 m 1040 968 l 1282 968 l 1097 636 l 964 636 m 471 204 b 631 344 567 204 631 261 b 471 485 631 428 567 485 b 314 344 376 485 314 426 b 471 204 314 263 376 204 "},"đ":{"ha":976,"x_min":0,"x_max":0,"o":"m 1090 907 l 1090 753 l 919 753 l 919 0 l 631 0 l 631 40 b 439 -17 575 3 510 -17 b 25 346 185 -17 25 126 b 425 701 25 558 183 701 b 631 626 499 701 589 668 l 631 753 l 436 753 l 436 907 l 631 907 l 631 968 l 919 968 l 919 907 m 471 204 b 631 344 567 204 631 261 b 471 485 631 428 567 485 b 314 344 376 485 314 426 b 471 204 314 263 376 204 "},"e":{"ha":897,"x_min":0,"x_max":0,"o":"m 871 319 b 865 250 871 307 869 288 l 329 250 b 486 190 350 211 403 190 b 722 233 553 190 661 210 l 826 40 b 486 -17 708 3 592 -17 b 24 339 206 -17 24 125 b 454 701 24 550 201 701 b 871 319 704 701 871 565 m 460 513 b 331 439 400 513 347 481 l 571 439 b 460 513 561 488 511 513 "},"é":{"ha":897,"x_min":0,"x_max":0,"o":"m 778 968 l 538 769 l 371 769 l 529 968 m 871 319 b 865 250 871 307 869 288 l 329 250 b 486 190 350 211 403 190 b 722 233 553 190 661 210 l 826 40 b 486 -17 708 3 592 -17 b 24 339 206 -17 24 125 b 454 701 24 550 201 701 b 871 319 704 701 871 565 m 460 513 b 331 439 400 513 347 481 l 571 439 b 460 513 561 488 511 513 "},"ě":{"ha":897,"x_min":0,"x_max":0,"o":"m 681 968 l 456 726 l 231 968 l 406 968 l 456 911 l 507 968 m 871 319 b 865 250 871 307 869 288 l 329 250 b 486 190 350 211 403 190 b 722 233 553 190 661 210 l 826 40 b 486 -17 708 3 592 -17 b 24 339 206 -17 24 125 b 454 701 24 550 201 701 b 871 319 704 701 871 565 m 460 513 b 331 439 400 513 347 481 l 571 439 b 460 513 561 488 511 513 "},"ê":{"ha":897,"x_min":0,"x_max":0,"o":"m 456 810 l 404 743 l 231 743 l 456 1004 l 681 743 l 507 743 m 871 319 b 865 250 871 307 869 288 l 329 250 b 486 190 350 211 403 190 b 722 233 553 190 661 210 l 826 40 b 486 -17 708 3 592 -17 b 24 339 206 -17 24 125 b 454 701 24 550 201 701 b 871 319 704 701 871 565 m 460 513 b 331 439 400 513 347 481 l 571 439 b 460 513 561 488 511 513 "},"ế":{"ha":897,"x_min":0,"x_max":0,"o":"m 778 1228 l 538 1029 l 371 1029 l 529 1228 m 456 810 l 404 743 l 231 743 l 456 1004 l 681 743 l 507 743 m 871 319 b 865 250 871 307 869 288 l 329 250 b 486 190 350 211 403 190 b 722 233 553 190 661 210 l 826 40 b 486 -17 708 3 592 -17 b 24 339 206 -17 24 125 b 454 701 24 550 201 701 b 871 319 704 701 871 565 m 460 513 b 331 439 400 513 347 481 l 571 439 b 460 513 561 488 511 513 "},"ệ":{"ha":897,"x_min":0,"x_max":0,"o":"m 456 810 l 404 743 l 231 743 l 456 1004 l 681 743 l 507 743 m 871 319 b 865 250 871 307 869 288 l 329 250 b 486 190 350 211 403 190 b 722 233 553 190 661 210 l 826 40 b 486 -17 708 3 592 -17 b 24 339 206 -17 24 125 b 454 701 24 550 201 701 b 871 319 704 701 871 565 m 460 513 b 331 439 400 513 347 481 l 571 439 b 460 513 561 488 511 513 m 313 -269 l 313 -74 l 624 -74 l 624 -269 "},"ề":{"ha":897,"x_min":0,"x_max":0,"o":"m 540 1029 l 369 1029 l 150 1228 l 396 1228 m 231 743 l 456 1004 l 681 743 l 507 743 l 456 810 l 404 743 m 871 319 b 865 250 871 307 869 288 l 329 250 b 486 190 350 211 403 190 b 722 233 553 190 661 210 l 826 40 b 486 -17 708 3 592 -17 b 24 339 206 -17 24 125 b 454 701 24 550 201 701 b 871 319 704 701 871 565 m 460 513 b 331 439 400 513 347 481 l 571 439 b 460 513 561 488 511 513 "},"ể":{"ha":897,"x_min":0,"x_max":0,"o":"m 404 743 l 231 743 l 422 965 b 415 964 419 964 417 964 l 389 1057 b 458 1089 425 1061 458 1063 b 367 1117 458 1121 415 1117 l 344 1117 l 344 1257 l 367 1257 b 619 1107 519 1257 619 1203 b 481 975 619 1024 550 990 l 681 743 l 507 743 l 456 810 m 871 319 b 865 250 871 307 869 288 l 329 250 b 486 190 350 211 403 190 b 722 233 553 190 661 210 l 826 40 b 486 -17 708 3 592 -17 b 24 339 206 -17 24 125 b 454 701 24 550 201 701 b 871 319 704 701 871 565 m 460 513 b 331 439 400 513 347 481 l 571 439 b 460 513 561 488 511 513 "},"ễ":{"ha":897,"x_min":0,"x_max":0,"o":"m 365 1089 b 343 1026 351 1089 343 1064 l 213 1026 b 376 1231 213 1151 276 1231 b 538 1154 464 1231 513 1154 b 558 1228 549 1154 558 1176 l 696 1228 b 535 1015 696 1086 633 1015 b 365 1089 432 1015 396 1089 m 231 743 l 456 1004 l 681 743 l 507 743 l 456 810 l 404 743 m 871 319 b 865 250 871 307 869 288 l 329 250 b 486 190 350 211 403 190 b 722 233 553 190 661 210 l 826 40 b 486 -17 708 3 592 -17 b 24 339 206 -17 24 125 b 454 701 24 550 201 701 b 871 319 704 701 871 565 m 460 513 b 331 439 400 513 347 481 l 571 439 b 460 513 561 488 511 513 "},"ë":{"ha":897,"x_min":0,"x_max":0,"o":"m 428 968 l 428 772 l 178 772 l 178 968 m 733 968 l 733 772 l 483 772 l 483 968 m 871 319 b 865 250 871 307 869 288 l 329 250 b 486 190 350 211 403 190 b 722 233 553 190 661 210 l 826 40 b 486 -17 708 3 592 -17 b 24 339 206 -17 24 125 b 454 701 24 550 201 701 b 871 319 704 701 871 565 m 460 513 b 331 439 400 513 347 481 l 571 439 b 460 513 561 488 511 513 "},"ė":{"ha":897,"x_min":0,"x_max":0,"o":"m 610 968 l 610 772 l 301 772 l 301 968 m 871 319 b 865 250 871 307 869 288 l 329 250 b 486 190 350 211 403 190 b 722 233 553 190 661 210 l 826 40 b 486 -17 708 3 592 -17 b 24 339 206 -17 24 125 b 454 701 24 550 201 701 b 871 319 704 701 871 565 m 460 513 b 331 439 400 513 347 481 l 571 439 b 460 513 561 488 511 513 "},"ẹ":{"ha":897,"x_min":0,"x_max":0,"o":"m 871 319 b 865 250 871 307 869 288 l 329 250 b 486 190 350 211 403 190 b 722 233 553 190 661 210 l 826 40 b 486 -17 708 3 592 -17 b 24 339 206 -17 24 125 b 454 701 24 550 201 701 b 871 319 704 701 871 565 m 460 513 b 331 439 400 513 347 481 l 571 439 b 460 513 561 488 511 513 m 313 -269 l 313 -74 l 624 -74 l 624 -269 "},"è":{"ha":897,"x_min":0,"x_max":0,"o":"m 540 769 l 369 769 l 150 968 l 396 968 m 871 319 b 865 250 871 307 869 288 l 329 250 b 486 190 350 211 403 190 b 722 233 553 190 661 210 l 826 40 b 486 -17 708 3 592 -17 b 24 339 206 -17 24 125 b 454 701 24 550 201 701 b 871 319 704 701 871 565 m 460 513 b 331 439 400 513 347 481 l 571 439 b 460 513 561 488 511 513 "},"ẻ":{"ha":897,"x_min":0,"x_max":0,"o":"m 458 829 b 367 857 458 861 415 857 l 344 857 l 344 997 l 367 997 b 619 847 519 997 619 943 b 415 704 619 736 497 715 l 389 797 b 458 829 425 801 458 803 m 871 319 b 865 250 871 307 869 288 l 329 250 b 486 190 350 211 403 190 b 722 233 553 190 661 210 l 826 40 b 486 -17 708 3 592 -17 b 24 339 206 -17 24 125 b 454 701 24 550 201 701 b 871 319 704 701 871 565 m 460 513 b 331 439 400 513 347 481 l 571 439 b 460 513 561 488 511 513 "},"ē":{"ha":897,"x_min":0,"x_max":0,"o":"m 649 876 l 649 744 l 261 744 l 261 876 m 871 319 b 865 250 871 307 869 288 l 329 250 b 486 190 350 211 403 190 b 722 233 553 190 661 210 l 826 40 b 486 -17 708 3 592 -17 b 24 339 206 -17 24 125 b 454 701 24 550 201 701 b 871 319 704 701 871 565 m 460 513 b 331 439 400 513 347 481 l 571 439 b 460 513 561 488 511 513 "},"ę":{"ha":897,"x_min":0,"x_max":0,"o":"m 871 319 b 865 250 871 307 869 288 l 329 250 b 486 190 350 211 403 190 b 722 233 553 190 661 210 l 826 40 b 642 -4 764 21 701 6 b 510 -132 603 -18 510 -68 b 550 -178 510 -169 529 -178 b 606 -139 579 -178 594 -162 l 725 -217 b 556 -319 693 -271 646 -319 b 374 -157 451 -319 374 -253 b 449 -15 374 -83 415 -40 b 24 339 190 -4 24 135 b 454 701 24 550 201 701 b 871 319 704 701 871 565 m 460 513 b 331 439 400 513 347 481 l 571 439 b 460 513 561 488 511 513 "},"ẽ":{"ha":897,"x_min":0,"x_max":0,"o":"m 365 829 b 343 767 351 829 343 804 l 213 767 b 376 971 213 892 276 971 b 538 894 464 971 513 894 b 558 968 549 894 558 917 l 696 968 b 535 756 696 826 633 756 b 365 829 432 756 396 829 m 871 319 b 865 250 871 307 869 288 l 329 250 b 486 190 350 211 403 190 b 722 233 553 190 661 210 l 826 40 b 486 -17 708 3 592 -17 b 24 339 206 -17 24 125 b 454 701 24 550 201 701 b 871 319 704 701 871 565 m 460 513 b 331 439 400 513 347 481 l 571 439 b 460 513 561 488 511 513 "},"f":{"ha":626,"x_min":0,"x_max":0,"o":"m 167 0 l 167 486 l 18 486 l 18 685 l 168 685 l 168 714 b 463 985 168 879 239 985 b 651 953 532 985 582 976 l 558 757 b 497 771 533 765 513 771 b 454 708 469 771 454 754 l 454 685 l 613 685 l 613 486 l 454 486 l 454 0 "},"g":{"ha":876,"x_min":0,"x_max":0,"o":"m 589 108 b 854 -74 796 88 854 31 b 440 -318 854 -224 700 -318 b 10 -96 186 -318 10 -228 b 17 -47 10 -82 14 -61 l 94 0 b 36 128 54 33 36 75 b 96 265 36 181 56 226 b 39 428 60 307 39 361 b 411 701 39 613 200 701 b 600 672 481 701 544 692 l 742 775 l 864 593 l 768 529 b 790 419 782 497 790 461 b 424 157 790 233 644 157 b 267 174 367 157 314 163 l 267 169 b 589 108 267 133 288 138 m 414 504 b 329 428 363 504 329 472 b 418 342 329 378 365 342 b 504 428 467 342 504 378 b 414 504 504 472 469 504 m 451 -158 b 565 -119 538 -158 565 -142 b 375 -82 565 -101 558 -99 l 301 -74 l 289 -92 b 288 -96 288 -93 288 -94 b 451 -158 288 -142 381 -158 "},"ğ":{"ha":876,"x_min":0,"x_max":0,"o":"m 426 750 b 167 968 242 750 167 828 l 354 968 b 426 882 354 892 394 882 b 500 968 463 882 500 892 l 686 968 b 426 750 686 817 600 750 m 589 108 b 854 -74 796 88 854 31 b 440 -318 854 -224 700 -318 b 10 -96 186 -318 10 -228 b 17 -47 10 -82 14 -61 l 94 0 b 36 128 54 33 36 75 b 96 265 36 181 56 226 b 39 428 60 307 39 361 b 411 701 39 613 200 701 b 600 672 481 701 544 692 l 742 775 l 864 593 l 768 529 b 790 419 782 497 790 461 b 424 157 790 233 644 157 b 267 174 367 157 314 163 l 267 169 b 589 108 267 133 288 138 m 414 504 b 329 428 363 504 329 472 b 418 342 329 378 365 342 b 504 428 467 342 504 378 b 414 504 504 472 469 504 m 451 -158 b 565 -119 538 -158 565 -142 b 375 -82 565 -101 558 -99 l 301 -74 l 289 -92 b 288 -96 288 -93 288 -94 b 451 -158 288 -142 381 -158 "},"ģ":{"ha":876,"x_min":0,"x_max":0,"o":"m 579 988 l 513 763 l 274 763 l 449 988 m 589 108 b 854 -74 796 88 854 31 b 440 -318 854 -224 700 -318 b 10 -96 186 -318 10 -228 b 17 -47 10 -82 14 -61 l 94 0 b 36 128 54 33 36 75 b 96 265 36 181 56 226 b 39 428 60 307 39 361 b 411 701 39 613 200 701 b 600 672 481 701 544 692 l 742 775 l 864 593 l 768 529 b 790 419 782 497 790 461 b 424 157 790 233 644 157 b 267 174 367 157 314 163 l 267 169 b 589 108 267 133 288 138 m 414 504 b 329 428 363 504 329 472 b 418 342 329 378 365 342 b 504 428 467 342 504 378 b 414 504 504 472 469 504 m 451 -158 b 565 -119 538 -158 565 -142 b 375 -82 565 -101 558 -99 l 301 -74 l 289 -92 b 288 -96 288 -93 288 -94 b 451 -158 288 -142 381 -158 "},"ġ":{"ha":876,"x_min":0,"x_max":0,"o":"m 581 968 l 581 772 l 272 772 l 272 968 m 589 108 b 854 -74 796 88 854 31 b 440 -318 854 -224 700 -318 b 10 -96 186 -318 10 -228 b 17 -47 10 -82 14 -61 l 94 0 b 36 128 54 33 36 75 b 96 265 36 181 56 226 b 39 428 60 307 39 361 b 411 701 39 613 200 701 b 600 672 481 701 544 692 l 742 775 l 864 593 l 768 529 b 790 419 782 497 790 461 b 424 157 790 233 644 157 b 267 174 367 157 314 163 l 267 169 b 589 108 267 133 288 138 m 414 504 b 329 428 363 504 329 472 b 418 342 329 378 365 342 b 504 428 467 342 504 378 b 414 504 504 472 469 504 m 451 -158 b 565 -119 538 -158 565 -142 b 375 -82 565 -101 558 -99 l 301 -74 l 289 -92 b 288 -96 288 -93 288 -94 b 451 -158 288 -142 381 -158 "},"h":{"ha":951,"x_min":0,"x_max":0,"o":"m 585 701 b 904 467 778 701 904 607 l 904 0 l 615 0 l 615 353 b 493 481 615 438 574 481 b 344 308 394 481 344 418 l 344 0 l 54 0 l 54 968 l 344 968 l 344 617 b 585 701 401 674 482 701 "},"ħ":{"ha":951,"x_min":0,"x_max":0,"o":"m 585 701 b 904 467 778 701 904 607 l 904 0 l 615 0 l 615 353 b 493 481 615 438 574 481 b 344 308 394 481 344 418 l 344 0 l 54 0 l 54 735 l -33 735 l -33 889 l 54 889 l 54 968 l 344 968 l 344 889 l 621 889 l 621 735 l 344 735 l 344 617 b 585 701 401 674 482 701 "},"i":{"ha":399,"x_min":0,"x_max":0,"o":"m 46 772 l 46 968 l 354 968 l 354 772 m 56 0 l 56 685 l 344 685 l 344 0 "},"ı":{"ha":399,"x_min":0,"x_max":0,"o":"m 56 0 l 56 685 l 344 685 l 344 0 "},"í":{"ha":399,"x_min":0,"x_max":0,"o":"m 115 769 l 274 968 l 522 968 l 282 769 m 56 0 l 56 685 l 344 685 l 344 0 "},"ǐ":{"ha":399,"x_min":0,"x_max":0,"o":"m 200 726 l -25 968 l 150 968 l 200 911 l 251 968 l 425 968 m 56 0 l 56 685 l 344 685 l 344 0 "},"î":{"ha":399,"x_min":0,"x_max":0,"o":"m -25 743 l 200 1004 l 425 743 l 251 743 l 200 810 l 149 743 m 56 0 l 56 685 l 344 685 l 344 0 "},"ï":{"ha":399,"x_min":0,"x_max":0,"o":"m -78 772 l -78 968 l 172 968 l 172 772 m 228 772 l 228 968 l 478 968 l 478 772 m 56 0 l 56 685 l 344 685 l 344 0 "},"ị":{"ha":399,"x_min":0,"x_max":0,"o":"m 46 772 l 46 968 l 354 968 l 354 772 m 56 0 l 56 685 l 344 685 l 344 0 m 44 -269 l 44 -74 l 356 -74 l 356 -269 "},"ì":{"ha":399,"x_min":0,"x_max":0,"o":"m 114 769 l -106 968 l 140 968 l 285 769 m 56 0 l 56 685 l 344 685 l 344 0 "},"ỉ":{"ha":399,"x_min":0,"x_max":0,"o":"m 133 797 b 203 829 169 801 203 803 b 111 857 203 861 160 857 l 89 857 l 89 997 l 111 997 b 364 847 264 997 364 943 b 160 704 364 736 242 715 m 56 0 l 56 685 l 344 685 l 344 0 "},"ī":{"ha":399,"x_min":0,"x_max":0,"o":"m 6 744 l 6 876 l 393 876 l 393 744 m 56 0 l 56 685 l 344 685 l 344 0 "},"į":{"ha":399,"x_min":0,"x_max":0,"o":"m 354 968 l 354 772 l 46 772 l 46 968 m 413 -217 b 243 -319 381 -271 333 -319 b 61 -157 139 -319 61 -253 b 163 0 61 -62 131 -17 l 56 0 l 56 685 l 344 685 l 344 0 l 343 0 b 197 -132 325 -1 197 -57 b 238 -178 197 -169 217 -178 b 293 -139 267 -178 282 -162 "},"ĩ":{"ha":399,"x_min":0,"x_max":0,"o":"m 279 756 b 110 829 176 756 140 829 b 88 767 96 829 88 804 l -43 767 b 121 971 -43 892 21 971 b 282 894 208 971 257 894 b 303 968 293 894 303 917 l 440 968 b 279 756 440 826 378 756 m 56 0 l 56 685 l 344 685 l 344 0 "},"j":{"ha":397,"x_min":0,"x_max":0,"o":"m 43 772 l 43 968 l 351 968 l 351 772 m 118 -301 b -39 -276 68 -301 3 -290 l -39 -57 b 11 -61 -24 -58 -1 -61 b 53 -19 36 -61 53 -46 l 53 685 l 342 685 l 342 -92 b 118 -301 342 -222 272 -301 "},"ȷ":{"ha":397,"x_min":0,"x_max":0,"o":"m 118 -301 b -39 -276 68 -301 3 -290 l -39 -57 b 11 -61 -24 -58 -1 -61 b 53 -19 36 -61 53 -46 l 53 685 l 342 685 l 342 -92 b 118 -301 342 -222 272 -301 "},"k":{"ha":972,"x_min":0,"x_max":0,"o":"m 54 0 l 54 968 l 344 968 l 344 499 l 551 685 l 944 685 l 629 431 l 967 0 l 610 0 l 422 272 l 344 197 l 344 0 "},"ķ":{"ha":972,"x_min":0,"x_max":0,"o":"m 54 0 l 54 968 l 344 968 l 344 499 l 551 685 l 944 685 l 629 431 l 967 0 l 610 0 l 422 272 l 344 197 l 344 0 m 296 -321 l 361 -69 l 601 -69 l 426 -321 "},"ĸ":{"ha":972,"x_min":0,"x_max":0,"o":"m 54 0 l 54 685 l 344 685 l 344 483 l 536 685 l 944 685 l 629 431 l 967 0 l 610 0 l 422 272 l 344 197 l 344 0 "},"l":{"ha":449,"x_min":0,"x_max":0,"o":"m 269 -18 b 47 192 117 -18 47 60 l 47 968 l 336 968 l 336 264 b 376 222 336 238 354 222 b 425 226 389 222 410 225 l 425 7 b 269 -18 383 -7 319 -18 "},"ĺ":{"ha":449,"x_min":0,"x_max":0,"o":"m 97 1053 l 256 1251 l 504 1251 l 264 1053 m 269 -18 b 47 192 117 -18 47 60 l 47 968 l 336 968 l 336 264 b 376 222 336 238 354 222 b 425 226 389 222 410 225 l 425 7 b 269 -18 383 -7 319 -18 "},"ľ":{"ha":561,"x_min":0,"x_max":0,"o":"m 269 -18 b 47 192 117 -18 47 60 l 47 968 l 336 968 l 336 264 b 376 222 336 238 354 222 b 425 226 389 222 410 225 l 425 7 b 269 -18 383 -7 319 -18 m 413 636 l 488 968 l 731 968 l 546 636 "},"ļ":{"ha":449,"x_min":0,"x_max":0,"o":"m 269 -18 b 47 192 117 -18 47 60 l 47 968 l 336 968 l 336 264 b 376 222 336 238 354 222 b 425 226 389 222 410 225 l 425 7 b 269 -18 383 -7 319 -18 m 6 -321 l 71 -69 l 311 -69 l 136 -321 "},"ł":{"ha":449,"x_min":0,"x_max":0,"o":"m 376 222 b 425 226 389 222 410 225 l 425 7 b 269 -18 383 -7 319 -18 b 47 185 119 -18 50 57 l -25 129 l -25 367 l 47 424 l 47 968 l 336 968 l 336 653 l 404 707 l 404 456 l 336 404 l 336 264 b 376 222 336 238 354 222 "},"m":{"ha":1432,"x_min":0,"x_max":0,"o":"m 1078 701 b 1386 456 1274 701 1386 571 l 1386 0 l 1093 0 l 1093 374 b 989 481 1093 443 1043 481 b 865 299 825 481 865 338 l 865 0 l 576 0 l 576 375 b 476 481 576 438 533 481 b 346 299 317 481 346 339 l 346 0 l 54 0 l 54 685 l 332 685 l 332 607 b 553 701 392 683 482 701 b 801 571 642 701 743 675 b 1078 701 882 689 993 701 "},"n":{"ha":951,"x_min":0,"x_max":0,"o":"m 585 701 b 904 467 778 701 904 607 l 904 0 l 615 0 l 615 353 b 493 481 615 438 574 481 b 344 308 394 481 344 418 l 344 0 l 54 0 l 54 685 l 344 685 l 344 617 b 585 701 401 674 482 701 "},"ń":{"ha":951,"x_min":0,"x_max":0,"o":"m 785 968 l 544 769 l 378 769 l 536 968 m 585 701 b 904 467 778 701 904 607 l 904 0 l 615 0 l 615 353 b 493 481 615 438 574 481 b 344 308 394 481 344 418 l 344 0 l 54 0 l 54 685 l 344 685 l 344 617 b 585 701 401 674 482 701 "},"ŉ":{"ha":1182,"x_min":0,"x_max":0,"o":"m 69 968 l 367 968 l 201 590 l 36 590 m 818 701 b 1138 467 1011 701 1138 607 l 1138 0 l 849 0 l 849 353 b 726 481 849 438 807 481 b 578 308 628 481 578 418 l 578 0 l 286 0 l 286 685 l 578 685 l 578 617 b 818 701 635 674 715 701 "},"ň":{"ha":951,"x_min":0,"x_max":0,"o":"m 688 968 l 463 726 l 238 968 l 413 968 l 463 911 l 514 968 m 585 701 b 904 467 778 701 904 607 l 904 0 l 615 0 l 615 353 b 493 481 615 438 574 481 b 344 308 394 481 344 418 l 344 0 l 54 0 l 54 685 l 344 685 l 344 617 b 585 701 401 674 482 701 "},"ņ":{"ha":951,"x_min":0,"x_max":0,"o":"m 585 701 b 904 467 778 701 904 607 l 904 0 l 615 0 l 615 353 b 493 481 615 438 574 481 b 344 308 394 481 344 418 l 344 0 l 54 0 l 54 685 l 344 685 l 344 617 b 585 701 401 674 482 701 m 275 -321 l 340 -69 l 581 -69 l 406 -321 "},"ŋ":{"ha":954,"x_min":0,"x_max":0,"o":"m 589 701 b 907 456 788 701 907 608 l 907 -94 b 675 -300 907 -225 819 -300 b 521 -276 621 -300 575 -292 l 521 -72 b 575 -79 542 -76 561 -79 b 615 -35 606 -79 615 -64 l 615 374 b 489 481 615 438 585 481 b 347 299 385 481 347 407 l 347 0 l 54 0 l 54 685 l 347 685 l 347 618 b 589 701 401 675 476 701 "},"ñ":{"ha":951,"x_min":0,"x_max":0,"o":"m 372 829 b 350 767 358 829 350 804 l 219 767 b 383 971 219 892 283 971 b 544 894 471 971 519 894 b 565 968 556 894 565 917 l 703 968 b 542 756 703 826 640 756 b 372 829 439 756 403 829 m 585 701 b 904 467 778 701 904 607 l 904 0 l 615 0 l 615 353 b 493 481 615 438 574 481 b 344 308 394 481 344 418 l 344 0 l 54 0 l 54 685 l 344 685 l 344 617 b 585 701 401 674 482 701 "},"o":{"ha":939,"x_min":0,"x_max":0,"o":"m 469 -17 b 24 343 197 -17 24 126 b 469 701 24 560 196 701 b 917 343 747 701 917 561 b 469 -17 917 126 743 -17 m 469 204 b 629 343 569 204 629 258 b 469 481 629 428 572 481 b 311 343 369 481 311 428 b 469 204 311 260 371 204 "},"ó":{"ha":939,"x_min":0,"x_max":0,"o":"m 386 769 l 544 968 l 793 968 l 553 769 m 469 -17 b 24 343 197 -17 24 126 b 469 701 24 560 196 701 b 917 343 747 701 917 561 b 469 -17 917 126 743 -17 m 469 204 b 629 343 569 204 629 258 b 469 481 629 428 572 481 b 311 343 369 481 311 428 b 469 204 311 260 371 204 "},"ǒ":{"ha":939,"x_min":0,"x_max":0,"o":"m 469 726 l 244 968 l 419 968 l 469 911 l 521 968 l 694 968 m 469 -17 b 24 343 197 -17 24 126 b 469 701 24 560 196 701 b 917 343 747 701 917 561 b 469 -17 917 126 743 -17 m 469 204 b 629 343 569 204 629 258 b 469 481 629 428 572 481 b 311 343 369 481 311 428 b 469 204 311 260 371 204 "},"ô":{"ha":939,"x_min":0,"x_max":0,"o":"m 244 743 l 469 1004 l 694 743 l 521 743 l 469 810 l 418 743 m 469 -17 b 24 343 197 -17 24 126 b 469 701 24 560 196 701 b 917 343 747 701 917 561 b 469 -17 917 126 743 -17 m 469 204 b 629 343 569 204 629 258 b 469 481 629 428 572 481 b 311 343 369 481 311 428 b 469 204 311 260 371 204 "},"ố":{"ha":939,"x_min":0,"x_max":0,"o":"m 386 1029 l 544 1228 l 793 1228 l 553 1029 m 244 743 l 469 1004 l 694 743 l 521 743 l 469 810 l 418 743 m 469 -17 b 24 343 197 -17 24 126 b 469 701 24 560 196 701 b 917 343 747 701 917 561 b 469 -17 917 126 743 -17 m 469 204 b 629 343 569 204 629 258 b 469 481 629 428 572 481 b 311 343 369 481 311 428 b 469 204 311 260 371 204 "},"ộ":{"ha":939,"x_min":0,"x_max":0,"o":"m 244 743 l 469 1004 l 694 743 l 521 743 l 469 810 l 418 743 m 469 -17 b 24 343 197 -17 24 126 b 469 701 24 560 196 701 b 917 343 747 701 917 561 b 469 -17 917 126 743 -17 m 469 204 b 629 343 569 204 629 258 b 469 481 629 428 572 481 b 311 343 369 481 311 428 b 469 204 311 260 371 204 m 315 -269 l 315 -74 l 626 -74 l 626 -269 "},"ồ":{"ha":939,"x_min":0,"x_max":0,"o":"m 383 1029 l 164 1228 l 410 1228 l 554 1029 m 244 743 l 469 1004 l 694 743 l 521 743 l 469 810 l 418 743 m 469 -17 b 24 343 197 -17 24 126 b 469 701 24 560 196 701 b 917 343 747 701 917 561 b 469 -17 917 126 743 -17 m 469 204 b 629 343 569 204 629 258 b 469 481 629 428 572 481 b 311 343 369 481 311 428 b 469 204 311 260 371 204 "},"ổ":{"ha":939,"x_min":0,"x_max":0,"o":"m 418 743 l 244 743 l 436 965 b 429 964 433 964 431 964 l 403 1057 b 472 1089 439 1061 472 1063 b 381 1117 472 1121 429 1117 l 358 1117 l 358 1257 l 381 1257 b 633 1107 533 1257 633 1203 b 494 975 633 1024 564 990 l 694 743 l 521 743 l 469 810 m 469 701 b 917 343 747 701 917 561 b 469 -17 917 126 743 -17 b 24 343 197 -17 24 126 b 469 701 24 560 196 701 m 469 204 b 629 343 569 204 629 258 b 469 481 629 428 572 481 b 311 343 369 481 311 428 b 469 204 311 260 371 204 "},"ỗ":{"ha":939,"x_min":0,"x_max":0,"o":"m 550 1015 b 381 1089 447 1015 411 1089 b 358 1026 367 1089 358 1064 l 228 1026 b 392 1231 228 1151 292 1231 b 553 1154 479 1231 528 1154 b 574 1228 564 1154 574 1176 l 711 1228 b 550 1015 711 1086 649 1015 m 244 743 l 469 1004 l 694 743 l 521 743 l 469 810 l 418 743 m 469 -17 b 24 343 197 -17 24 126 b 469 701 24 560 196 701 b 917 343 747 701 917 561 b 469 -17 917 126 743 -17 m 469 204 b 629 343 569 204 629 258 b 469 481 629 428 572 481 b 311 343 369 481 311 428 b 469 204 311 260 371 204 "},"ö":{"ha":939,"x_min":0,"x_max":0,"o":"m 193 772 l 193 968 l 443 968 l 443 772 m 499 772 l 499 968 l 749 968 l 749 772 m 469 -17 b 24 343 197 -17 24 126 b 469 701 24 560 196 701 b 917 343 747 701 917 561 b 469 -17 917 126 743 -17 m 469 204 b 629 343 569 204 629 258 b 469 481 629 428 572 481 b 311 343 369 481 311 428 b 469 204 311 260 371 204 "},"ọ":{"ha":939,"x_min":0,"x_max":0,"o":"m 469 -17 b 24 343 197 -17 24 126 b 469 701 24 560 196 701 b 917 343 747 701 917 561 b 469 -17 917 126 743 -17 m 469 204 b 629 343 569 204 629 258 b 469 481 629 428 572 481 b 311 343 369 481 311 428 b 469 204 311 260 371 204 m 315 -269 l 315 -74 l 626 -74 l 626 -269 "},"ò":{"ha":939,"x_min":0,"x_max":0,"o":"m 383 769 l 164 968 l 410 968 l 554 769 m 469 -17 b 24 343 197 -17 24 126 b 469 701 24 560 196 701 b 917 343 747 701 917 561 b 469 -17 917 126 743 -17 m 469 204 b 629 343 569 204 629 258 b 469 481 629 428 572 481 b 311 343 369 481 311 428 b 469 204 311 260 371 204 "},"ỏ":{"ha":939,"x_min":0,"x_max":0,"o":"m 403 797 b 472 829 439 801 472 803 b 381 857 472 861 429 857 l 358 857 l 358 997 l 381 997 b 633 847 533 997 633 943 b 429 704 633 736 511 715 m 469 -17 b 24 343 197 -17 24 126 b 469 701 24 560 196 701 b 917 343 747 701 917 561 b 469 -17 917 126 743 -17 m 469 204 b 629 343 569 204 629 258 b 469 481 629 428 572 481 b 311 343 369 481 311 428 b 469 204 311 260 371 204 "},"ơ":{"ha":939,"x_min":0,"x_max":0,"o":"m 900 714 l 1058 714 l 1058 671 b 906 438 1058 569 1015 471 b 917 343 913 408 917 376 b 469 -17 917 126 743 -17 b 24 343 197 -17 24 126 b 469 701 24 560 196 701 b 828 576 628 701 750 656 b 900 685 885 581 900 621 m 469 204 b 629 343 569 204 629 258 b 469 481 629 428 572 481 b 311 343 369 481 311 428 b 469 204 311 260 371 204 "},"ớ":{"ha":939,"x_min":0,"x_max":0,"o":"m 793 968 l 553 769 l 386 769 l 544 968 m 900 714 l 1058 714 l 1058 671 b 906 438 1058 569 1015 471 b 917 343 913 408 917 376 b 469 -17 917 126 743 -17 b 24 343 197 -17 24 126 b 469 701 24 560 196 701 b 828 576 628 701 750 656 b 900 685 885 581 900 621 m 469 204 b 629 343 569 204 629 258 b 469 481 629 428 572 481 b 311 343 369 481 311 428 b 469 204 311 260 371 204 "},"ợ":{"ha":939,"x_min":0,"x_max":0,"o":"m 900 714 l 1058 714 l 1058 671 b 906 438 1058 569 1015 471 b 917 343 913 408 917 376 b 469 -17 917 126 743 -17 b 24 343 197 -17 24 126 b 469 701 24 560 196 701 b 828 576 628 701 750 656 b 900 685 885 581 900 621 m 469 204 b 629 343 569 204 629 258 b 469 481 629 428 572 481 b 311 343 369 481 311 428 b 469 204 311 260 371 204 m 315 -269 l 315 -74 l 626 -74 l 626 -269 "},"ờ":{"ha":939,"x_min":0,"x_max":0,"o":"m 554 769 l 383 769 l 164 968 l 410 968 m 900 714 l 1058 714 l 1058 671 b 906 438 1058 569 1015 471 b 917 343 913 408 917 376 b 469 -17 917 126 743 -17 b 24 343 197 -17 24 126 b 469 701 24 560 196 701 b 828 576 628 701 750 656 b 900 685 885 581 900 621 m 469 204 b 629 343 569 204 629 258 b 469 481 629 428 572 481 b 311 343 369 481 311 428 b 469 204 311 260 371 204 "},"ở":{"ha":939,"x_min":0,"x_max":0,"o":"m 472 829 b 381 857 472 861 429 857 l 358 857 l 358 997 l 381 997 b 633 847 533 997 633 943 b 429 704 633 736 511 715 l 403 797 b 472 829 439 801 472 803 m 900 714 l 1058 714 l 1058 671 b 906 438 1058 569 1015 471 b 917 343 913 408 917 376 b 469 -17 917 126 743 -17 b 24 343 197 -17 24 126 b 469 701 24 560 196 701 b 828 576 628 701 750 656 b 900 685 885 581 900 621 m 469 204 b 629 343 569 204 629 258 b 469 481 629 428 572 481 b 311 343 369 481 311 428 b 469 204 311 260 371 204 "},"ỡ":{"ha":939,"x_min":0,"x_max":0,"o":"m 381 829 b 358 767 367 829 358 804 l 228 767 b 392 971 228 892 292 971 b 553 894 479 971 528 894 b 574 968 564 894 574 917 l 711 968 b 550 756 711 826 649 756 b 381 829 447 756 411 829 m 900 714 l 1058 714 l 1058 671 b 906 438 1058 569 1015 471 b 917 343 913 408 917 376 b 469 -17 917 126 743 -17 b 24 343 197 -17 24 126 b 469 701 24 560 196 701 b 828 576 628 701 750 656 b 900 685 885 581 900 621 m 469 204 b 629 343 569 204 629 258 b 469 481 629 428 572 481 b 311 343 369 481 311 428 b 469 204 311 260 371 204 "},"ő":{"ha":939,"x_min":0,"x_max":0,"o":"m 240 728 l 399 968 l 606 968 l 407 728 m 535 728 l 693 968 l 938 968 l 701 728 m 469 -17 b 24 343 197 -17 24 126 b 469 701 24 560 196 701 b 917 343 747 701 917 561 b 469 -17 917 126 743 -17 m 469 204 b 629 343 569 204 629 258 b 469 481 629 428 572 481 b 311 343 369 481 311 428 b 469 204 311 260 371 204 "},"ō":{"ha":939,"x_min":0,"x_max":0,"o":"m 276 744 l 276 876 l 664 876 l 664 744 m 469 -17 b 24 343 197 -17 24 126 b 469 701 24 560 196 701 b 917 343 747 701 917 561 b 469 -17 917 126 743 -17 m 469 204 b 629 343 569 204 629 258 b 469 481 629 428 572 481 b 311 343 369 481 311 428 b 469 204 311 260 371 204 "},"ø":{"ha":939,"x_min":0,"x_max":0,"o":"m 711 656 b 917 343 842 597 917 488 b 469 -17 917 126 743 -17 b 322 -1 417 -17 367 -11 l 292 -51 l 182 -51 l 231 29 b 24 343 100 89 24 200 b 469 701 24 560 196 701 b 618 686 524 701 574 696 l 649 738 l 760 738 m 311 343 b 356 240 311 300 326 265 l 496 479 b 469 481 488 481 479 481 b 311 343 369 481 311 428 m 469 204 b 629 343 569 204 629 258 b 586 444 629 386 614 421 l 444 206 b 469 204 453 204 461 204 "},"õ":{"ha":939,"x_min":0,"x_max":0,"o":"m 550 756 b 381 829 447 756 411 829 b 358 767 367 829 358 804 l 228 767 b 392 971 228 892 292 971 b 553 894 479 971 528 894 b 574 968 564 894 574 917 l 711 968 b 550 756 711 826 649 756 m 469 -17 b 24 343 197 -17 24 126 b 469 701 24 560 196 701 b 917 343 747 701 917 561 b 469 -17 917 126 743 -17 m 469 204 b 629 343 569 204 629 258 b 469 481 629 428 572 481 b 311 343 369 481 311 428 b 469 204 311 260 371 204 "},"œ":{"ha":1506,"x_min":0,"x_max":0,"o":"m 1479 319 b 1474 250 1479 307 1478 288 l 938 250 b 1094 190 958 211 1011 190 b 1331 233 1161 190 1269 210 l 1435 40 b 1094 -17 1317 3 1200 -17 b 776 68 965 -17 856 14 b 469 -17 700 14 596 -17 b 24 343 197 -17 24 126 b 469 701 24 560 196 701 b 778 619 597 701 701 672 b 1063 701 851 671 950 701 b 1479 319 1313 701 1479 565 m 1068 513 b 939 439 1008 513 956 481 l 1179 439 b 1068 513 1169 488 1119 513 m 469 204 b 629 343 569 204 629 258 b 469 481 629 428 572 481 b 311 343 369 481 311 428 b 469 204 311 260 371 204 "},"p":{"ha":976,"x_min":0,"x_max":0,"o":"m 535 701 b 950 339 790 701 950 558 b 549 -17 950 126 793 -17 b 344 56 476 -17 388 15 l 344 -283 l 54 -283 l 54 685 l 344 685 l 344 644 b 535 701 400 682 464 701 m 503 200 b 661 340 597 200 661 258 b 503 481 661 422 597 481 b 344 340 407 481 344 424 b 503 200 344 257 407 200 "},"þ":{"ha":946,"x_min":0,"x_max":0,"o":"m 563 701 b 931 339 774 701 931 551 b 576 -17 931 133 776 -17 b 374 57 506 -17 417 15 l 374 -283 l 82 -283 l 82 968 l 374 968 l 374 644 b 563 701 429 682 493 701 m 503 200 b 640 340 576 200 640 260 b 503 481 640 421 576 481 b 372 340 429 481 372 421 b 503 200 372 260 429 200 "},"q":{"ha":976,"x_min":0,"x_max":0,"o":"m 632 685 l 922 685 l 922 -283 l 632 -283 l 632 56 b 428 -17 589 15 500 -17 b 26 339 183 -17 26 126 b 442 701 26 558 186 701 b 632 644 513 701 576 682 m 474 200 b 632 340 569 200 632 257 b 474 481 632 424 569 481 b 315 340 379 481 315 422 b 474 200 315 258 379 200 "},"r":{"ha":739,"x_min":0,"x_max":0,"o":"m 536 701 b 733 650 615 701 667 688 l 593 425 b 482 453 567 440 517 453 b 344 311 385 453 344 401 l 344 0 l 54 0 l 54 685 l 347 685 l 347 625 b 536 701 393 671 461 701 "},"ŕ":{"ha":739,"x_min":0,"x_max":0,"o":"m 643 968 l 403 769 l 236 769 l 394 968 m 536 701 b 733 650 615 701 667 688 l 593 425 b 482 453 567 440 517 453 b 344 311 385 453 344 401 l 344 0 l 54 0 l 54 685 l 347 685 l 347 625 b 536 701 393 671 461 701 "},"ř":{"ha":739,"x_min":0,"x_max":0,"o":"m 544 968 l 319 726 l 94 968 l 269 968 l 319 911 l 371 968 m 536 701 b 733 650 615 701 667 688 l 593 425 b 482 453 567 440 517 453 b 344 311 385 453 344 401 l 344 0 l 54 0 l 54 685 l 347 685 l 347 625 b 536 701 393 671 461 701 "},"ŗ":{"ha":739,"x_min":0,"x_max":0,"o":"m 536 701 b 733 650 615 701 667 688 l 593 425 b 482 453 567 440 517 453 b 344 311 385 453 344 401 l 344 0 l 54 0 l 54 685 l 347 685 l 347 625 b 536 701 393 671 461 701 m 13 -321 l 78 -69 l 318 -69 l 143 -321 "},"s":{"ha":819,"x_min":0,"x_max":0,"o":"m 439 -17 b 8 101 258 -17 147 14 l 172 244 b 440 174 257 196 346 174 b 513 207 500 174 513 179 b 58 447 513 289 58 131 b 418 701 58 607 200 701 b 768 632 538 701 643 681 l 635 475 b 399 514 549 499 485 514 b 328 492 364 514 328 511 b 797 238 328 415 801 585 b 439 -17 797 79 663 -17 "},"ś":{"ha":819,"x_min":0,"x_max":0,"o":"m 344 769 l 503 968 l 751 968 l 511 769 m 439 -17 b 8 101 258 -17 147 14 l 172 244 b 440 174 257 196 346 174 b 513 207 500 174 513 179 b 58 447 513 289 58 131 b 418 701 58 607 200 701 b 768 632 538 701 643 681 l 635 475 b 399 514 549 499 485 514 b 328 492 364 514 328 511 b 797 238 328 415 801 585 b 439 -17 797 79 663 -17 "},"š":{"ha":819,"x_min":0,"x_max":0,"o":"m 428 726 l 203 968 l 378 968 l 428 911 l 479 968 l 653 968 m 439 -17 b 8 101 258 -17 147 14 l 172 244 b 440 174 257 196 346 174 b 513 207 500 174 513 179 b 58 447 513 289 58 131 b 418 701 58 607 200 701 b 768 632 538 701 643 681 l 635 475 b 399 514 549 499 485 514 b 328 492 364 514 328 511 b 797 238 328 415 801 585 b 439 -17 797 79 663 -17 "},"ş":{"ha":819,"x_min":0,"x_max":0,"o":"m 328 492 b 797 238 328 415 801 585 b 476 -15 797 89 678 -6 l 443 -49 b 503 -79 467 -56 488 -67 b 546 -187 535 -107 546 -147 b 368 -362 546 -283 474 -362 b 261 -337 353 -362 310 -364 l 331 -225 b 375 -233 349 -231 364 -233 b 413 -196 396 -233 413 -221 b 365 -143 413 -167 393 -151 b 269 -136 336 -135 306 -136 l 350 -14 b 8 101 218 -4 122 29 l 172 244 b 440 174 257 196 346 174 b 513 207 500 174 513 179 b 58 447 513 289 58 131 b 418 701 58 607 200 701 b 768 632 538 701 643 681 l 635 475 b 399 514 549 499 485 514 b 328 492 364 514 328 511 "},"ș":{"ha":819,"x_min":0,"x_max":0,"o":"m 439 -17 b 8 101 258 -17 147 14 l 172 244 b 440 174 257 196 346 174 b 513 207 500 174 513 179 b 58 447 513 289 58 131 b 418 701 58 607 200 701 b 768 632 538 701 643 681 l 635 475 b 399 514 549 499 485 514 b 328 492 364 514 328 511 b 797 238 328 415 801 585 b 439 -17 797 79 663 -17 m 242 -321 l 307 -69 l 547 -69 l 372 -321 "},"ß":{"ha":1149,"x_min":0,"x_max":0,"o":"m 747 -17 b 401 107 600 -17 478 40 l 600 243 b 764 188 628 218 669 188 b 844 219 818 188 844 204 b 736 250 844 240 801 246 b 382 485 597 265 382 285 b 693 700 382 639 503 703 b 721 717 718 697 721 707 b 588 758 721 747 657 758 b 353 579 326 758 353 629 l 353 0 l 47 0 l 47 579 b 565 982 47 743 93 982 b 1008 732 828 982 1008 907 b 724 513 1008 646 947 511 b 656 485 672 515 656 503 b 776 454 656 461 704 458 b 1126 256 919 444 1126 432 b 747 -17 1126 90 974 -17 "},"t":{"ha":713,"x_min":0,"x_max":0,"o":"m 551 190 b 668 206 585 190 628 196 l 668 7 b 483 -17 608 -8 560 -17 b 156 240 274 -17 156 75 l 156 486 l 18 486 l 18 685 l 156 685 l 156 817 l 442 943 l 442 685 l 667 685 l 667 486 l 442 486 l 442 281 b 551 190 442 217 481 190 "},"ŧ":{"ha":713,"x_min":0,"x_max":0,"o":"m 551 190 b 668 206 585 190 628 196 l 668 7 b 483 -17 608 -8 560 -17 b 156 240 274 -17 156 75 l 156 268 l 11 268 l 11 422 l 156 422 l 156 486 l 18 486 l 18 685 l 156 685 l 156 817 l 442 943 l 442 685 l 667 685 l 667 486 l 442 486 l 442 422 l 665 422 l 665 268 l 442 268 b 551 190 447 214 485 190 "},"ť":{"ha":713,"x_min":0,"x_max":0,"o":"m 842 1092 l 656 760 l 524 760 l 599 1092 m 442 281 b 551 190 442 217 481 190 b 668 206 585 190 628 196 l 668 7 b 483 -17 608 -8 560 -17 b 156 240 274 -17 156 75 l 156 486 l 18 486 l 18 685 l 156 685 l 156 817 l 442 943 l 442 685 l 667 685 l 667 486 l 442 486 "},"ţ":{"ha":713,"x_min":0,"x_max":0,"o":"m 668 7 b 493 -17 611 -8 564 -15 l 460 -49 b 519 -79 483 -56 504 -67 b 563 -187 551 -107 563 -147 b 385 -362 563 -283 490 -362 b 278 -337 369 -362 326 -364 l 347 -225 b 392 -233 365 -231 381 -233 b 429 -196 413 -233 429 -221 b 382 -143 429 -167 410 -151 b 286 -136 353 -135 322 -136 l 371 -7 b 156 240 232 22 156 107 l 156 486 l 18 486 l 18 685 l 156 685 l 156 817 l 442 943 l 442 685 l 667 685 l 667 486 l 442 486 l 442 281 b 551 190 442 217 481 190 b 668 206 585 190 628 196 "},"ț":{"ha":713,"x_min":0,"x_max":0,"o":"m 551 190 b 668 206 585 190 628 196 l 668 7 b 483 -17 608 -8 560 -17 b 156 240 274 -17 156 75 l 156 486 l 18 486 l 18 685 l 156 685 l 156 817 l 442 943 l 442 685 l 667 685 l 667 486 l 442 486 l 442 281 b 551 190 442 217 481 190 m 257 -321 l 322 -69 l 563 -69 l 388 -321 "},"u":{"ha":947,"x_min":0,"x_max":0,"o":"m 604 685 l 893 685 l 893 0 l 604 0 l 604 49 b 372 -17 539 1 458 -17 b 44 258 164 -17 44 88 l 44 685 l 333 685 l 333 310 b 458 204 333 243 379 204 b 604 385 585 204 604 285 "},"ú":{"ha":947,"x_min":0,"x_max":0,"o":"m 790 968 l 550 769 l 383 769 l 542 968 m 604 685 l 893 685 l 893 0 l 604 0 l 604 49 b 372 -17 539 1 458 -17 b 44 258 164 -17 44 88 l 44 685 l 333 685 l 333 310 b 458 204 333 243 379 204 b 604 385 585 204 604 285 "},"ǔ":{"ha":947,"x_min":0,"x_max":0,"o":"m 692 968 l 467 726 l 242 968 l 417 968 l 467 911 l 518 968 m 604 685 l 893 685 l 893 0 l 604 0 l 604 49 b 372 -17 539 1 458 -17 b 44 258 164 -17 44 88 l 44 685 l 333 685 l 333 310 b 458 204 333 243 379 204 b 604 385 585 204 604 285 "},"û":{"ha":947,"x_min":0,"x_max":0,"o":"m 467 810 l 415 743 l 242 743 l 467 1004 l 692 743 l 518 743 m 604 685 l 893 685 l 893 0 l 604 0 l 604 49 b 372 -17 539 1 458 -17 b 44 258 164 -17 44 88 l 44 685 l 333 685 l 333 310 b 458 204 333 243 379 204 b 604 385 585 204 604 285 "},"ü":{"ha":947,"x_min":0,"x_max":0,"o":"m 439 968 l 439 772 l 189 772 l 189 968 m 744 968 l 744 772 l 494 772 l 494 968 m 604 685 l 893 685 l 893 0 l 604 0 l 604 49 b 372 -17 539 1 458 -17 b 44 258 164 -17 44 88 l 44 685 l 333 685 l 333 310 b 458 204 333 243 379 204 b 604 385 585 204 604 285 "},"ǘ":{"ha":947,"x_min":0,"x_max":0,"o":"m 790 1251 l 550 1053 l 383 1053 l 542 1251 m 439 968 l 439 772 l 189 772 l 189 968 m 494 772 l 494 968 l 744 968 l 744 772 m 604 685 l 893 685 l 893 0 l 604 0 l 604 49 b 372 -17 539 1 458 -17 b 44 258 164 -17 44 88 l 44 685 l 333 685 l 333 310 b 458 204 333 243 379 204 b 604 385 585 204 604 285 "},"ǚ":{"ha":947,"x_min":0,"x_max":0,"o":"m 692 1251 l 467 1010 l 242 1251 l 417 1251 l 467 1194 l 518 1251 m 439 968 l 439 772 l 189 772 l 189 968 m 494 772 l 494 968 l 744 968 l 744 772 m 604 685 l 893 685 l 893 0 l 604 0 l 604 49 b 372 -17 539 1 458 -17 b 44 258 164 -17 44 88 l 44 685 l 333 685 l 333 310 b 458 204 333 243 379 204 b 604 385 585 204 604 285 "},"ǜ":{"ha":947,"x_min":0,"x_max":0,"o":"m 551 1053 l 381 1053 l 161 1251 l 407 1251 m 189 772 l 189 968 l 439 968 l 439 772 m 494 772 l 494 968 l 744 968 l 744 772 m 604 685 l 893 685 l 893 0 l 604 0 l 604 49 b 372 -17 539 1 458 -17 b 44 258 164 -17 44 88 l 44 685 l 333 685 l 333 310 b 458 204 333 243 379 204 b 604 385 585 204 604 285 "},"ǖ":{"ha":947,"x_min":0,"x_max":0,"o":"m 661 1160 l 661 1028 l 274 1028 l 274 1160 m 439 968 l 439 772 l 189 772 l 189 968 m 494 772 l 494 968 l 744 968 l 744 772 m 604 685 l 893 685 l 893 0 l 604 0 l 604 49 b 372 -17 539 1 458 -17 b 44 258 164 -17 44 88 l 44 685 l 333 685 l 333 310 b 458 204 333 243 379 204 b 604 385 585 204 604 285 "},"ụ":{"ha":947,"x_min":0,"x_max":0,"o":"m 604 685 l 893 685 l 893 0 l 604 0 l 604 49 b 372 -17 539 1 458 -17 b 44 258 164 -17 44 88 l 44 685 l 333 685 l 333 310 b 458 204 333 243 379 204 b 604 385 585 204 604 285 m 321 -269 l 321 -74 l 632 -74 l 632 -269 "},"ù":{"ha":947,"x_min":0,"x_max":0,"o":"m 551 769 l 381 769 l 161 968 l 407 968 m 604 685 l 893 685 l 893 0 l 604 0 l 604 49 b 372 -17 539 1 458 -17 b 44 258 164 -17 44 88 l 44 685 l 333 685 l 333 310 b 458 204 333 243 379 204 b 604 385 585 204 604 285 "},"ủ":{"ha":947,"x_min":0,"x_max":0,"o":"m 469 829 b 378 857 469 861 426 857 l 356 857 l 356 997 l 378 997 b 631 847 531 997 631 943 b 426 704 631 736 508 715 l 400 797 b 469 829 436 801 469 803 m 604 685 l 893 685 l 893 0 l 604 0 l 604 49 b 372 -17 539 1 458 -17 b 44 258 164 -17 44 88 l 44 685 l 333 685 l 333 310 b 458 204 333 243 379 204 b 604 385 585 204 604 285 "},"ư":{"ha":947,"x_min":0,"x_max":0,"o":"m 918 822 l 1076 822 l 1076 779 b 893 539 1076 669 1026 563 l 893 0 l 604 0 l 604 49 b 372 -17 539 1 458 -17 b 44 258 164 -17 44 88 l 44 685 l 333 685 l 333 310 b 458 204 333 243 379 204 b 604 385 585 204 604 285 l 604 685 l 838 685 b 918 793 901 685 918 726 "},"ứ":{"ha":947,"x_min":0,"x_max":0,"o":"m 790 968 l 550 769 l 383 769 l 542 968 m 918 822 l 1076 822 l 1076 779 b 893 539 1076 669 1026 563 l 893 0 l 604 0 l 604 49 b 372 -17 539 1 458 -17 b 44 258 164 -17 44 88 l 44 685 l 333 685 l 333 310 b 458 204 333 243 379 204 b 604 385 585 204 604 285 l 604 685 l 838 685 b 918 793 901 685 918 726 "},"ự":{"ha":947,"x_min":0,"x_max":0,"o":"m 918 822 l 1076 822 l 1076 779 b 893 539 1076 669 1026 563 l 893 0 l 604 0 l 604 49 b 372 -17 539 1 458 -17 b 44 258 164 -17 44 88 l 44 685 l 333 685 l 333 310 b 458 204 333 243 379 204 b 604 385 585 204 604 285 l 604 685 l 838 685 b 918 793 901 685 918 726 m 321 -269 l 321 -74 l 632 -74 l 632 -269 "},"ừ":{"ha":947,"x_min":0,"x_max":0,"o":"m 551 769 l 381 769 l 161 968 l 407 968 m 918 822 l 1076 822 l 1076 779 b 893 539 1076 669 1026 563 l 893 0 l 604 0 l 604 49 b 372 -17 539 1 458 -17 b 44 258 164 -17 44 88 l 44 685 l 333 685 l 333 310 b 458 204 333 243 379 204 b 604 385 585 204 604 285 l 604 685 l 838 685 b 918 793 901 685 918 726 "},"ử":{"ha":947,"x_min":0,"x_max":0,"o":"m 469 829 b 378 857 469 861 426 857 l 356 857 l 356 997 l 378 997 b 631 847 531 997 631 943 b 426 704 631 736 508 715 l 400 797 b 469 829 436 801 469 803 m 918 822 l 1076 822 l 1076 779 b 893 539 1076 669 1026 563 l 893 0 l 604 0 l 604 49 b 372 -17 539 1 458 -17 b 44 258 164 -17 44 88 l 44 685 l 333 685 l 333 310 b 458 204 333 243 379 204 b 604 385 585 204 604 285 l 604 685 l 838 685 b 918 793 901 685 918 726 "},"ữ":{"ha":947,"x_min":0,"x_max":0,"o":"m 378 829 b 356 767 364 829 356 804 l 225 767 b 389 971 225 892 289 971 b 550 894 476 971 525 894 b 571 968 561 894 571 917 l 708 968 b 547 756 708 826 646 756 b 378 829 444 756 408 829 m 918 822 l 1076 822 l 1076 779 b 893 539 1076 669 1026 563 l 893 0 l 604 0 l 604 49 b 372 -17 539 1 458 -17 b 44 258 164 -17 44 88 l 44 685 l 333 685 l 333 310 b 458 204 333 243 379 204 b 604 385 585 204 604 285 l 604 685 l 838 685 b 918 793 901 685 918 726 "},"ű":{"ha":947,"x_min":0,"x_max":0,"o":"m 601 968 l 403 728 l 236 728 l 394 968 m 697 728 l 531 728 l 689 968 l 933 968 m 604 685 l 893 685 l 893 0 l 604 0 l 604 49 b 372 -17 539 1 458 -17 b 44 258 164 -17 44 88 l 44 685 l 333 685 l 333 310 b 458 204 333 243 379 204 b 604 385 585 204 604 285 "},"ū":{"ha":947,"x_min":0,"x_max":0,"o":"m 661 876 l 661 744 l 274 744 l 274 876 m 604 685 l 893 685 l 893 0 l 604 0 l 604 49 b 372 -17 539 1 458 -17 b 44 258 164 -17 44 88 l 44 685 l 333 685 l 333 310 b 458 204 333 243 379 204 b 604 385 585 204 604 285 "},"ų":{"ha":947,"x_min":0,"x_max":0,"o":"m 961 -217 b 792 -319 929 -271 882 -319 b 610 -157 688 -319 610 -253 b 711 0 610 -62 679 -17 l 604 0 l 604 49 b 372 -17 539 1 458 -17 b 44 258 164 -17 44 88 l 44 685 l 333 685 l 333 310 b 458 204 333 243 379 204 b 604 385 585 204 604 285 l 604 685 l 893 685 l 893 0 l 892 0 b 746 -132 874 -1 746 -57 b 786 -178 746 -169 765 -178 b 842 -139 815 -178 831 -162 "},"ů":{"ha":947,"x_min":0,"x_max":0,"o":"m 467 717 b 288 897 365 717 288 803 b 467 1076 288 994 367 1076 b 646 897 563 1076 646 999 b 467 717 646 797 565 717 m 467 954 b 411 900 429 954 411 931 b 467 839 411 864 435 839 b 525 900 503 839 525 864 b 467 954 525 932 506 954 m 604 685 l 893 685 l 893 0 l 604 0 l 604 49 b 372 -17 539 1 458 -17 b 44 258 164 -17 44 88 l 44 685 l 333 685 l 333 310 b 458 204 333 243 379 204 b 604 385 585 204 604 285 "},"ũ":{"ha":947,"x_min":0,"x_max":0,"o":"m 378 829 b 356 767 364 829 356 804 l 225 767 b 389 971 225 892 289 971 b 550 894 476 971 525 894 b 571 968 561 894 571 917 l 708 968 b 547 756 708 826 646 756 b 378 829 444 756 408 829 m 604 685 l 893 685 l 893 0 l 604 0 l 604 49 b 372 -17 539 1 458 -17 b 44 258 164 -17 44 88 l 44 685 l 333 685 l 333 310 b 458 204 333 243 379 204 b 604 385 585 204 604 285 "},"v":{"ha":932,"x_min":0,"x_max":0,"o":"m 349 0 l -1 685 l 336 685 l 467 335 l 600 685 l 933 685 l 588 0 "},"w":{"ha":1293,"x_min":0,"x_max":0,"o":"m 275 0 l -1 685 l 311 685 l 421 382 l 521 685 l 768 685 l 871 385 l 982 685 l 1293 685 l 1017 0 l 758 0 l 644 335 l 538 0 "},"ẃ":{"ha":1293,"x_min":0,"x_max":0,"o":"m 563 769 l 721 968 l 969 968 l 729 769 m 275 0 l -1 685 l 311 685 l 421 382 l 521 685 l 768 685 l 871 385 l 982 685 l 1293 685 l 1017 0 l 758 0 l 644 335 l 538 0 "},"ŵ":{"ha":1293,"x_min":0,"x_max":0,"o":"m 421 743 l 646 1004 l 871 743 l 697 743 l 646 810 l 594 743 m 275 0 l -1 685 l 311 685 l 421 382 l 521 685 l 768 685 l 871 385 l 982 685 l 1293 685 l 1017 0 l 758 0 l 644 335 l 538 0 "},"ẅ":{"ha":1293,"x_min":0,"x_max":0,"o":"m 369 772 l 369 968 l 619 968 l 619 772 m 675 772 l 675 968 l 925 968 l 925 772 m 275 0 l -1 685 l 311 685 l 421 382 l 521 685 l 768 685 l 871 385 l 982 685 l 1293 685 l 1017 0 l 758 0 l 644 335 l 538 0 "},"ẁ":{"ha":1293,"x_min":0,"x_max":0,"o":"m 560 769 l 340 968 l 586 968 l 731 769 m 275 0 l -1 685 l 311 685 l 421 382 l 521 685 l 768 685 l 871 385 l 982 685 l 1293 685 l 1017 0 l 758 0 l 644 335 l 538 0 "},"x":{"ha":953,"x_min":0,"x_max":0,"o":"m 4 0 l 281 346 l 4 685 l 364 685 l 475 518 l 589 685 l 947 685 l 668 346 l 947 0 l 589 0 l 475 174 l 363 0 "},"y":{"ha":965,"x_min":0,"x_max":0,"o":"m 149 -283 l 311 29 l 0 685 l 336 685 l 465 307 l 629 685 l 967 685 l 461 -283 "},"ý":{"ha":965,"x_min":0,"x_max":0,"o":"m 400 769 l 558 968 l 807 968 l 567 769 m 149 -283 l 311 29 l 0 685 l 336 685 l 465 307 l 629 685 l 967 685 l 461 -283 "},"ŷ":{"ha":965,"x_min":0,"x_max":0,"o":"m 260 743 l 485 1004 l 710 743 l 536 743 l 485 810 l 433 743 m 149 -283 l 311 29 l 0 685 l 336 685 l 465 307 l 629 685 l 967 685 l 461 -283 "},"ÿ":{"ha":965,"x_min":0,"x_max":0,"o":"m 207 772 l 207 968 l 457 968 l 457 772 m 513 772 l 513 968 l 763 968 l 763 772 m 149 -283 l 311 29 l 0 685 l 336 685 l 465 307 l 629 685 l 967 685 l 461 -283 "},"ỵ":{"ha":965,"x_min":0,"x_max":0,"o":"m 149 -283 l 311 29 l 0 685 l 336 685 l 465 307 l 629 685 l 967 685 l 461 -283 m 606 -269 l 606 -74 l 917 -74 l 917 -269 "},"ỳ":{"ha":965,"x_min":0,"x_max":0,"o":"m 399 769 l 179 968 l 425 968 l 569 769 m 149 -283 l 311 29 l 0 685 l 336 685 l 465 307 l 629 685 l 967 685 l 461 -283 "},"ỷ":{"ha":965,"x_min":0,"x_max":0,"o":"m 417 797 b 486 829 453 801 486 803 b 394 857 486 861 443 857 l 372 857 l 372 997 l 394 997 b 647 847 547 997 647 943 b 443 704 647 736 525 715 m 149 -283 l 311 29 l 0 685 l 336 685 l 465 307 l 629 685 l 967 685 l 461 -283 "},"ỹ":{"ha":965,"x_min":0,"x_max":0,"o":"m 564 756 b 394 829 461 756 425 829 b 372 767 381 829 372 804 l 242 767 b 406 971 242 892 306 971 b 567 894 493 971 542 894 b 588 968 578 894 588 917 l 725 968 b 564 756 725 826 663 756 m 149 -283 l 311 29 l 0 685 l 336 685 l 465 307 l 629 685 l 967 685 l 461 -283 "},"z":{"ha":854,"x_min":0,"x_max":0,"o":"m 813 685 l 813 494 l 475 215 l 807 215 l 807 0 l 38 0 l 38 179 l 397 469 l 57 469 l 57 685 "},"ź":{"ha":854,"x_min":0,"x_max":0,"o":"m 756 968 l 515 769 l 349 769 l 507 968 m 813 685 l 813 494 l 475 215 l 807 215 l 807 0 l 38 0 l 38 179 l 397 469 l 57 469 l 57 685 "},"ž":{"ha":854,"x_min":0,"x_max":0,"o":"m 657 968 l 432 726 l 207 968 l 382 968 l 432 911 l 483 968 m 813 685 l 813 494 l 475 215 l 807 215 l 807 0 l 38 0 l 38 179 l 397 469 l 57 469 l 57 685 "},"ż":{"ha":854,"x_min":0,"x_max":0,"o":"m 586 968 l 586 772 l 278 772 l 278 968 m 813 685 l 813 494 l 475 215 l 807 215 l 807 0 l 38 0 l 38 179 l 397 469 l 57 469 l 57 685 "},"ﬁ":{"ha":1007,"x_min":0,"x_max":0,"o":"m 954 685 l 954 0 l 665 0 l 665 486 l 444 486 l 444 0 l 151 0 l 151 486 l 18 486 l 18 685 l 151 685 l 151 724 b 571 985 151 875 357 985 b 963 908 747 985 857 957 l 829 725 b 585 779 758 760 683 779 b 444 704 488 779 444 738 l 444 685 "},"ﬂ":{"ha":1200,"x_min":0,"x_max":0,"o":"m 1021 -18 b 774 192 868 -18 774 61 l 774 775 b 619 779 728 776 674 779 b 475 701 521 779 475 736 l 475 685 l 631 685 l 631 467 l 475 467 l 475 0 l 158 0 l 158 467 l 18 467 l 18 685 l 158 685 l 158 722 b 601 986 158 868 374 986 b 1089 907 765 986 872 986 l 1089 264 b 1128 222 1089 238 1103 222 b 1176 226 1140 222 1161 225 l 1175 7 b 1021 -18 1135 -7 1072 -18 "},"ª":{"ha":538,"x_min":0,"x_max":0,"o":"m 261 985 b 475 788 394 985 475 900 l 475 501 l 350 501 l 347 528 b 214 488 306 500 263 488 b 32 647 113 488 32 549 b 154 792 32 729 85 776 l 46 865 b 261 985 104 951 174 985 m 340 799 b 333 838 340 813 339 826 b 267 857 319 849 296 857 b 154 792 204 857 172 817 b 214 799 174 796 193 799 m 314 629 b 340 674 326 638 336 656 l 222 674 b 183 644 199 674 183 660 b 246 615 183 632 200 615 b 314 629 281 615 299 621 "},"º":{"ha":558,"x_min":0,"x_max":0,"o":"m 279 485 b 26 735 125 485 26 601 b 279 985 26 869 128 985 b 533 735 431 985 533 869 b 279 485 533 599 429 485 m 279 618 b 374 735 360 618 374 674 b 279 851 374 797 361 851 b 183 735 199 851 183 799 b 279 618 183 674 196 618 "},"Δ":{"ha":779,"x_min":0,"x_max":0,"o":"m -14 0 l 383 968 l 442 968 l 842 0 m 285 201 l 547 201 l 413 553 "},"Ω":{"ha":1117,"x_min":0,"x_max":0,"o":"m 1149 496 b 1061 233 1149 401 1125 313 l 1133 233 l 1133 0 l 644 0 l 644 160 b 892 464 785 203 892 278 b 583 764 892 647 764 764 b 275 463 403 764 275 647 b 522 160 275 275 383 200 l 522 0 l 33 0 l 33 233 l 104 233 b 18 496 42 311 18 400 b 583 1011 18 783 268 1011 b 1149 496 897 1011 1149 783 "},"μ":{"ha":886,"x_min":0,"x_max":0,"o":"m 67 -210 l 67 685 l 311 685 l 311 321 b 439 221 311 275 346 221 b 576 346 579 221 576 350 l 576 685 l 819 685 l 819 0 l 576 0 l 576 39 b 382 -17 526 6 453 -17 b 265 -10 336 -17 297 -12 l 265 -210 "},"π":{"ha":869,"x_min":0,"x_max":0,"o":"m 700 -17 b 524 125 522 -17 524 117 l 524 456 l 315 456 l 315 0 l 99 0 l 99 456 l 13 456 l 13 685 l 829 685 l 829 456 l 739 456 l 739 142 b 749 175 739 164 744 175 b 794 199 763 175 786 188 l 861 32 b 700 -17 800 -7 756 -17 "},"⁄":{"ha":249,"x_min":0,"x_max":0,"o":"m -267 0 l 351 968 l 513 968 l -104 0 "},".":{"ha":458,"x_min":0,"x_max":0,"o":"m 65 0 l 65 239 l 393 239 l 393 0 "},",":{"ha":429,"x_min":0,"x_max":0,"o":"m 60 -189 l 67 254 l 419 254 l 260 -189 "},":":{"ha":460,"x_min":0,"x_max":0,"o":"m 65 410 l 65 654 l 394 654 l 394 410 m 65 0 l 65 239 l 394 239 l 394 0 "},";":{"ha":447,"x_min":0,"x_max":0,"o":"m 69 410 l 69 654 l 399 654 l 399 410 m 61 -189 l 68 254 l 421 254 l 261 -189 "},"…":{"ha":1169,"x_min":0,"x_max":0,"o":"m 65 0 l 65 239 l 357 239 l 357 0 m 439 0 l 439 239 l 731 239 l 731 0 m 811 0 l 811 239 l 1103 239 l 1103 0 "},"!":{"ha":460,"x_min":0,"x_max":0,"o":"m 113 333 l 74 968 l 388 968 l 347 333 m 65 0 l 65 239 l 394 239 l 394 0 "},"¡":{"ha":460,"x_min":0,"x_max":0,"o":"m 394 685 l 394 446 l 65 446 l 65 685 m 349 351 l 388 -283 l 74 -283 l 114 351 "},"?":{"ha":801,"x_min":0,"x_max":0,"o":"m 265 331 l 265 333 b 518 692 265 617 518 569 b 417 744 518 726 474 744 b 283 621 311 744 281 693 l 3 621 b 422 986 3 858 176 986 b 790 703 603 986 790 919 b 531 325 790 418 531 474 l 531 331 m 239 0 l 239 239 l 567 239 l 567 0 "},"¿":{"ha":801,"x_min":0,"x_max":0,"o":"m 597 685 l 597 446 l 271 446 l 271 685 m 572 354 l 572 351 b 318 -7 572 68 318 115 b 419 -60 318 -42 363 -60 b 553 64 525 -60 556 -8 l 833 64 b 414 -301 833 -174 660 -301 b 46 -18 233 -301 46 -235 b 306 360 46 267 306 211 l 306 354 "},"·":{"ha":368,"x_min":0,"x_max":0,"o":"m 182 358 b 31 515 96 358 31 428 b 182 663 31 593 100 663 b 336 515 264 663 336 599 b 182 358 336 429 269 358 "},"•":{"ha":576,"x_min":0,"x_max":0,"o":"m 288 64 b 24 329 140 64 24 185 b 288 596 24 474 140 596 b 553 329 428 596 553 475 b 288 64 553 190 436 64 "},"*":{"ha":501,"x_min":0,"x_max":0,"o":"m 199 503 l 199 644 l 75 574 l 24 664 l 147 736 l 24 807 l 75 897 l 199 826 l 199 968 l 303 968 l 303 826 l 426 897 l 478 807 l 354 736 l 478 664 l 426 574 l 303 644 l 303 503 "},"#":{"ha":893,"x_min":0,"x_max":0,"o":"m 100 0 l 161 272 l 13 272 l 13 453 l 197 453 l 214 528 l 68 528 l 68 715 l 253 715 l 317 968 l 519 968 l 457 708 l 540 708 l 599 968 l 801 968 l 736 708 l 881 708 l 881 528 l 700 528 l 679 453 l 825 453 l 825 272 l 642 272 l 581 0 l 383 0 l 444 272 l 356 272 l 297 0 m 400 453 l 485 453 l 499 528 l 413 528 "},"/":{"ha":654,"x_min":0,"x_max":0,"o":"m -24 -294 l 488 968 l 678 968 l 165 -294 "},"\\":{"ha":654,"x_min":0,"x_max":0,"o":"m 678 -294 l 489 -294 l -24 968 l 167 968 "},"‣":{"ha":611,"x_min":0,"x_max":0,"o":"m 67 60 l 67 708 l 614 385 "},"‥":{"ha":803,"x_min":0,"x_max":0,"o":"m 65 0 l 65 232 l 364 232 l 364 0 m 439 0 l 439 232 l 736 232 l 736 0 "},"(":{"ha":410,"x_min":0,"x_max":0,"o":"m 194 -142 b 21 481 100 -46 21 138 b 193 1103 21 819 104 1010 l 422 1103 b 222 481 286 929 222 753 b 422 -142 222 211 281 36 "},")":{"ha":411,"x_min":0,"x_max":0,"o":"m -12 -142 b 188 481 129 36 188 211 b -12 1103 188 753 125 929 l 217 1103 b 390 481 307 1010 390 819 b 215 -142 390 138 310 -46 "},"{":{"ha":407,"x_min":0,"x_max":0,"o":"m 260 -122 b 92 99 143 -122 92 -33 l 92 256 b -7 396 92 376 22 381 l -7 554 b 92 676 19 571 92 569 l 92 811 b 250 1032 92 946 151 1032 l 400 1032 l 400 871 l 339 871 b 310 807 315 871 310 843 l 310 671 b 200 476 310 576 279 524 l 200 468 b 310 263 264 436 310 382 l 310 101 b 349 43 310 86 301 43 l 400 43 l 400 -122 "},"}":{"ha":407,"x_min":0,"x_max":0,"o":"m 8 -122 l 8 43 l 60 43 b 99 101 88 43 99 53 l 99 263 b 210 468 99 371 132 431 l 210 476 b 99 671 136 517 99 572 l 99 807 b 68 871 99 836 93 871 l 8 871 l 8 1032 l 158 1032 b 315 811 257 1032 315 944 l 315 676 b 415 554 315 579 379 572 l 415 396 b 315 256 374 378 315 368 l 315 99 b 149 -122 315 -35 264 -122 "},"[":{"ha":407,"x_min":0,"x_max":0,"o":"m 58 -144 l 58 1110 l 401 1110 l 401 940 l 265 940 l 265 26 l 401 26 l 401 -144 "},"]":{"ha":407,"x_min":0,"x_max":0,"o":"m 7 -144 l 7 26 l 143 26 l 143 940 l 7 940 l 7 1110 l 349 1110 l 349 -144 "},"-":{"ha":531,"x_min":0,"x_max":0,"o":"m 46 297 l 46 489 l 483 489 l 483 297 "},"­":{"ha":625,"x_min":0,"x_max":0,"o":"m 46 297 l 46 489 l 579 489 l 579 297 "},"–":{"ha":689,"x_min":0,"x_max":0,"o":"m -3 297 l -3 489 l 692 489 l 692 297 "},"—":{"ha":1397,"x_min":0,"x_max":0,"o":"m -3 297 l -3 489 l 1400 489 l 1400 297 "},"―":{"ha":985,"x_min":0,"x_max":0,"o":"m 46 307 l 46 486 l 939 486 l 939 307 "},"_":{"ha":710,"x_min":0,"x_max":0,"o":"m 46 -194 l 46 0 l 664 0 l 664 -194 "},"‚":{"ha":368,"x_min":0,"x_max":0,"o":"m 36 -196 l 69 182 l 367 182 l 201 -196 "},"„":{"ha":729,"x_min":0,"x_max":0,"o":"m 36 -196 l 69 182 l 367 182 l 201 -196 m 399 -196 l 428 182 l 728 182 l 564 -196 "},"“":{"ha":708,"x_min":0,"x_max":0,"o":"m 1 589 l 165 968 l 332 968 l 300 589 m 340 589 l 501 968 l 669 968 l 640 589 "},"”":{"ha":706,"x_min":0,"x_max":0,"o":"m 36 590 l 69 968 l 367 968 l 201 590 m 376 590 l 408 968 l 704 968 l 543 590 "},"‘":{"ha":369,"x_min":0,"x_max":0,"o":"m 1 589 l 165 968 l 332 968 l 300 589 "},"’":{"ha":368,"x_min":0,"x_max":0,"o":"m 36 590 l 69 968 l 367 968 l 201 590 "},"«":{"ha":813,"x_min":0,"x_max":0,"o":"m 394 -37 l -14 350 l 394 738 l 394 465 l 257 350 l 394 235 m 768 -37 l 360 350 l 768 738 l 768 465 l 632 350 l 768 235 "},"»":{"ha":813,"x_min":0,"x_max":0,"o":"m 44 -37 l 44 235 l 182 350 l 44 465 l 44 738 l 453 350 m 419 -37 l 419 235 l 556 350 l 419 465 l 419 738 l 826 350 "},"‹":{"ha":439,"x_min":0,"x_max":0,"o":"m 394 -37 l -14 350 l 394 738 l 394 465 l 257 350 l 394 235 "},"›":{"ha":439,"x_min":0,"x_max":0,"o":"m 44 -37 l 44 235 l 183 350 l 44 465 l 44 738 l 453 350 "},"\"":{"ha":640,"x_min":0,"x_max":0,"o":"m 57 469 l 57 968 l 271 968 l 271 469 m 368 469 l 368 968 l 582 968 l 582 469 "},"'":{"ha":329,"x_min":0,"x_max":0,"o":"m 57 469 l 57 968 l 272 968 l 272 469 "}," ":{"ha":386,"x_min":0,"x_max":0,"o":""},"¢":{"ha":917,"x_min":0,"x_max":0,"o":"m 472 204 b 629 292 551 204 613 238 l 889 200 b 567 -11 836 82 722 10 l 567 -157 l 379 -157 l 379 -10 b 24 340 157 19 24 157 b 379 696 24 531 157 667 l 379 835 l 567 835 l 567 696 b 897 486 729 678 829 607 l 632 394 b 474 481 608 439 558 481 b 311 340 378 481 311 426 b 472 204 311 254 381 204 "},"¤":{"ha":804,"x_min":0,"x_max":0,"o":"m 160 51 l 26 192 l 104 268 b 104 590 54 374 58 497 l 28 665 l 163 807 l 242 725 b 564 728 350 781 471 778 l 642 806 l 779 669 l 703 592 b 703 267 753 488 754 371 l 779 192 l 643 51 l 564 131 b 239 131 461 78 339 81 m 296 328 b 504 328 357 268 451 269 b 504 531 561 389 564 472 b 299 529 443 590 356 586 b 296 328 246 476 247 375 "},"$":{"ha":1049,"x_min":0,"x_max":0,"o":"m 1058 315 b 632 -31 1058 118 935 -19 l 632 -165 l 446 -165 l 446 -21 b 4 296 193 13 53 136 l 332 365 b 582 218 369 253 499 218 b 710 276 643 218 710 229 b 511 360 710 313 699 332 b 69 678 192 407 69 507 b 444 996 69 872 240 975 l 444 1122 l 633 1122 l 633 992 b 1017 819 785 974 913 917 l 788 638 b 513 758 721 711 608 758 b 418 717 451 758 418 744 b 592 643 418 686 451 664 b 1058 315 781 615 1058 572 "},"€":{"ha":906,"x_min":0,"x_max":0,"o":"m 583 238 b 749 292 664 238 713 267 l 885 69 b 583 -17 814 14 711 -17 b 110 301 351 -17 175 108 l 33 301 l 33 471 l 82 471 l 82 474 b 82 501 82 483 82 492 l 33 501 l 33 671 l 114 671 b 576 985 181 863 350 985 b 894 889 713 985 818 950 l 754 664 b 576 732 715 703 657 732 b 418 671 511 732 457 710 l 672 671 l 672 501 l 347 501 b 346 475 346 493 346 483 l 346 471 l 672 471 l 672 301 l 417 301 b 583 238 457 261 515 238 "},"ƒ":{"ha":626,"x_min":0,"x_max":0,"o":"m 231 -301 b 75 -276 181 -301 117 -290 l 75 -57 b 125 -61 90 -58 111 -61 b 167 -19 150 -61 167 -46 l 167 486 l 18 486 l 18 685 l 168 685 l 168 714 b 463 985 168 879 239 985 b 651 953 532 985 582 976 l 558 757 b 497 771 533 765 513 771 b 454 708 469 771 454 754 l 454 685 l 613 685 l 613 486 l 454 486 l 454 -92 b 231 -301 454 -222 386 -301 "},"£":{"ha":803,"x_min":0,"x_max":0,"o":"m 404 278 b 363 238 392 264 378 250 l 758 238 l 758 0 l 44 0 l 44 222 b 154 285 74 235 115 256 b 214 336 178 299 201 318 l 46 336 l 46 574 l 165 574 b 136 718 144 631 136 681 b 458 982 136 878 254 982 b 779 774 624 982 731 914 l 544 674 b 449 744 518 729 485 744 b 374 683 390 744 374 718 b 411 574 374 656 385 617 l 649 574 l 649 336 l 446 336 b 404 278 436 315 419 294 "},"₸":{"ha":868,"x_min":0,"x_max":0,"o":"m 39 765 l 39 968 l 828 968 l 828 765 m 308 0 l 308 499 l 39 499 l 39 703 l 828 703 l 828 499 l 560 499 l 560 0 "},"¥":{"ha":1171,"x_min":0,"x_max":0,"o":"m 418 0 l 418 133 l 106 133 l 106 340 l 418 340 l 418 378 l 106 378 l 106 586 l 269 586 l -19 968 l 371 968 l 583 643 l 796 968 l 1189 968 l 901 586 l 1065 586 l 1065 378 l 756 378 l 756 340 l 1065 340 l 1065 133 l 756 133 l 756 0 "},"+":{"ha":818,"x_min":0,"x_max":0,"o":"m 301 68 l 301 322 l 47 322 l 47 536 l 301 536 l 301 786 l 515 786 l 515 536 l 768 536 l 768 322 l 515 322 l 515 68 "},"−":{"ha":808,"x_min":0,"x_max":0,"o":"m 72 325 l 72 539 l 736 539 l 736 325 "},"×":{"ha":681,"x_min":0,"x_max":0,"o":"m 160 56 l 11 201 l 189 385 l 11 563 l 160 713 l 338 533 l 521 714 l 669 563 l 490 385 l 669 201 l 521 56 l 338 232 "},"÷":{"ha":767,"x_min":0,"x_max":0,"o":"m 242 619 l 242 836 l 524 836 l 524 619 m 39 325 l 39 539 l 728 539 l 728 325 m 242 38 l 242 256 l 524 256 l 524 38 "},"=":{"ha":707,"x_min":0,"x_max":0,"o":"m 51 535 l 51 746 l 657 746 l 657 535 m 51 181 l 51 393 l 657 393 l 657 181 "},"≠":{"ha":881,"x_min":0,"x_max":0,"o":"m 36 0 l 161 181 l 50 181 l 50 393 l 290 393 l 383 535 l 50 535 l 50 746 l 514 746 l 667 968 l 846 968 l 692 746 l 829 746 l 829 535 l 565 535 l 469 393 l 829 393 l 829 181 l 340 181 l 217 0 "},">":{"ha":979,"x_min":0,"x_max":0,"o":"m 139 -82 l 44 88 l 575 390 l 44 692 l 139 860 l 965 390 "},"<":{"ha":979,"x_min":0,"x_max":0,"o":"m 839 -82 l 14 390 l 839 860 l 935 692 l 406 390 l 935 88 "},"≥":{"ha":950,"x_min":0,"x_max":0,"o":"m 110 44 l 15 214 l 547 517 l 15 818 l 110 986 l 938 517 m 43 -194 l 43 0 l 922 0 l 922 -194 "},"≤":{"ha":947,"x_min":0,"x_max":0,"o":"m 838 44 l 13 517 l 838 986 l 933 818 l 404 517 l 933 214 m 28 -194 l 28 0 l 906 0 l 906 -194 "},"±":{"ha":858,"x_min":0,"x_max":0,"o":"m 331 129 l 331 388 l 33 388 l 33 579 l 331 579 l 331 839 l 524 839 l 524 579 l 821 579 l 821 388 l 524 388 l 524 129 m 33 -194 l 33 0 l 828 0 l 828 -194 "},"≈":{"ha":753,"x_min":0,"x_max":0,"o":"m 496 471 b 251 614 307 471 329 614 b 225 521 233 614 225 574 l 31 521 b 251 782 31 675 119 782 b 496 644 443 782 428 644 b 526 751 511 644 526 696 l 719 751 b 496 471 719 589 632 471 m 496 92 b 251 232 307 92 329 232 b 225 140 233 232 225 192 l 31 140 b 251 403 31 293 118 403 b 496 265 443 403 428 265 b 526 374 511 265 526 314 l 719 374 b 496 92 719 214 632 92 "},"~":{"ha":764,"x_min":0,"x_max":0,"o":"m 501 196 b 257 333 313 196 335 333 b 232 242 239 333 232 293 l 38 242 b 257 507 38 396 124 507 b 501 364 449 507 433 364 b 532 472 518 364 532 414 l 725 472 b 501 196 725 311 638 196 "},"¬":{"ha":807,"x_min":0,"x_max":0,"o":"m 488 199 l 488 317 l 50 317 l 50 546 l 735 546 l 735 199 "},"^":{"ha":950,"x_min":0,"x_max":0,"o":"m 0 258 l 474 1051 l 950 258 l 678 258 l 474 575 l 274 258 "},"∞":{"ha":1122,"x_min":0,"x_max":0,"o":"m 315 242 b 32 507 126 242 32 347 b 315 776 32 671 126 776 b 567 681 385 776 492 760 b 804 776 631 760 732 776 b 1090 507 994 776 1090 668 b 804 242 1090 349 994 242 b 567 335 733 242 629 257 b 315 242 492 257 383 242 m 350 449 b 451 507 364 449 428 464 b 350 571 424 554 365 571 b 261 507 288 571 261 558 b 350 449 261 454 289 449 m 769 449 b 861 507 832 449 861 454 b 769 571 861 558 833 571 b 681 507 763 571 704 564 b 769 449 708 446 765 449 "},"∫":{"ha":586,"x_min":0,"x_max":0,"o":"m 165 -301 b 10 -276 115 -301 51 -290 l 10 -57 b 60 -61 25 -58 46 -61 b 101 -19 83 -61 101 -46 l 101 714 b 397 985 101 879 174 985 b 586 953 467 985 517 976 l 493 757 b 432 771 468 765 447 771 b 389 708 404 771 389 754 l 389 -92 b 165 -301 389 -222 321 -301 "},"Ω":{"ha":1199,"x_min":0,"x_max":0,"o":"m 1164 496 b 1076 233 1164 401 1140 313 l 1149 233 l 1149 0 l 661 0 l 661 160 b 907 464 800 203 907 278 b 599 764 907 647 781 764 b 290 463 418 764 290 647 b 538 160 290 275 399 200 l 538 0 l 50 0 l 50 233 l 121 233 b 35 496 58 311 35 400 b 599 1011 35 783 285 1011 b 1164 496 914 1011 1164 783 "},"∆":{"ha":860,"x_min":0,"x_max":0,"o":"m 3 0 l 400 968 l 457 968 l 857 0 m 300 201 l 563 201 l 428 553 "},"∏":{"ha":838,"x_min":0,"x_max":0,"o":"m 81 0 l 81 753 l 46 753 l 46 968 l 792 968 l 792 753 l 754 753 l 754 0 l 538 0 l 538 753 l 297 753 l 297 0 "},"∑":{"ha":847,"x_min":0,"x_max":0,"o":"m 807 968 l 807 724 l 492 724 l 750 483 l 493 244 l 807 244 l 807 0 l 19 0 l 19 97 l 400 483 l 19 871 l 19 968 "},"√":{"ha":807,"x_min":0,"x_max":0,"o":"m 326 -251 l 125 356 l 11 356 l 11 572 l 283 572 l 340 299 l 578 968 l 807 968 "},"µ":{"ha":832,"x_min":0,"x_max":0,"o":"m 72 -210 l 72 685 l 329 685 l 329 321 b 422 221 329 275 351 221 b 521 346 543 221 521 350 l 521 685 l 776 685 l 776 0 l 521 0 l 521 39 b 369 -17 453 -11 424 -17 b 279 -15 328 -17 301 -15 l 279 -210 "},"∂":{"ha":804,"x_min":0,"x_max":0,"o":"m 353 -8 b 17 317 140 -8 17 132 b 381 678 17 531 201 678 b 563 654 439 678 511 681 b 532 760 557 699 549 736 b 408 794 499 778 453 794 b 286 719 388 794 321 794 l 100 778 b 415 981 154 913 276 981 b 778 529 638 981 778 811 b 353 -8 778 193 603 -8 m 374 213 b 535 413 490 213 557 331 b 408 467 521 474 461 467 b 257 317 282 467 257 357 b 374 213 257 240 317 213 "},"%":{"ha":983,"x_min":0,"x_max":0,"o":"m 275 525 b 53 757 161 525 53 603 b 271 985 53 908 160 985 b 490 756 394 985 490 885 b 275 525 490 632 397 525 m 90 0 l 719 968 l 899 968 l 269 0 m 275 699 b 318 756 296 699 318 722 b 271 814 318 801 292 814 b 224 757 254 814 224 815 b 275 699 224 700 256 699 m 714 -17 b 494 214 601 -17 494 60 b 710 443 494 365 599 443 b 931 213 835 443 931 340 b 714 -17 931 90 838 -17 m 714 154 b 761 213 740 154 761 179 b 710 269 761 258 732 269 b 665 214 696 269 665 268 b 714 154 665 154 697 154 "},"‱":{"ha":1829,"x_min":0,"x_max":0,"o":"m 232 526 b 13 757 117 526 13 607 b 228 985 13 906 114 985 b 442 756 349 985 442 885 b 232 526 442 632 353 526 m 57 0 l 679 968 l 847 968 l 226 0 m 232 689 b 282 756 257 689 282 717 b 228 824 282 806 253 824 b 174 757 203 824 174 817 b 232 689 174 697 204 689 m 675 -17 b 460 214 561 -17 460 63 b 671 442 460 361 558 442 b 889 213 794 442 889 340 b 675 -17 889 89 797 -17 m 1139 -17 b 924 214 1025 -17 924 64 b 1135 442 924 361 1025 442 b 1351 213 1258 442 1351 339 b 1139 -17 1351 83 1258 -17 m 1606 -17 b 1386 214 1489 -17 1386 64 b 1601 442 1386 361 1488 442 b 1817 213 1722 442 1817 339 b 1606 -17 1817 86 1725 -17 m 675 144 b 728 213 706 144 728 172 b 671 279 728 261 700 279 b 619 214 650 279 619 271 b 675 144 619 151 653 144 m 1139 144 b 1192 213 1169 144 1192 171 b 1135 279 1192 263 1163 279 b 1083 214 1115 279 1083 272 b 1139 144 1083 151 1117 144 m 1606 144 b 1656 213 1633 144 1656 172 b 1601 279 1656 264 1626 279 b 1547 214 1578 279 1547 272 b 1606 144 1547 153 1581 144 "},"‰":{"ha":1369,"x_min":0,"x_max":0,"o":"m 236 525 b 14 757 122 525 14 603 b 232 985 14 908 121 985 b 451 756 356 985 451 885 b 236 525 451 632 358 525 m 51 0 l 681 968 l 860 968 l 231 0 m 236 699 b 281 756 257 699 281 722 b 232 814 281 801 253 814 b 185 757 215 814 185 815 b 236 699 185 700 217 699 m 675 -17 b 456 214 563 -17 456 60 b 671 443 456 365 560 443 b 892 213 796 443 892 340 b 675 -17 892 90 799 -17 m 1142 -17 b 924 214 1029 -17 924 61 b 1138 443 924 365 1029 443 b 1358 213 1264 443 1358 339 b 1142 -17 1358 83 1263 -17 m 1142 154 b 1189 213 1169 154 1189 176 b 1138 269 1189 260 1160 269 b 1094 214 1126 269 1094 271 b 1142 154 1094 154 1128 154 m 675 154 b 722 213 701 154 722 179 b 671 269 722 258 693 269 b 626 214 657 269 626 268 b 675 154 626 154 658 154 "},"→":{"ha":1588,"x_min":0,"x_max":0,"o":"m 775 -64 l 694 94 l 1058 297 l 0 297 l 0 489 l 1058 489 l 694 690 l 775 850 l 1590 394 "},"←":{"ha":1589,"x_min":0,"x_max":0,"o":"m 813 -64 l -1 394 l 813 850 l 893 690 l 529 489 l 1588 489 l 1588 297 l 529 297 l 893 94 "},"◊":{"ha":871,"x_min":0,"x_max":0,"o":"m 271 0 l 4 483 l 271 968 l 600 968 l 867 483 l 600 0 m 429 132 l 440 132 l 611 483 l 440 836 l 429 836 l 254 483 "},"":{"ha":1088,"x_min":0,"x_max":0,"o":"m 540 -14 b 15 511 250 -14 15 222 b 540 1036 15 800 250 1036 b 1065 511 831 1036 1065 800 b 540 -14 1065 222 831 -14 m 540 36 b 1015 511 803 36 1015 251 b 540 986 1015 772 803 986 b 65 511 278 986 65 772 b 540 36 65 250 282 36 m 240 301 b 215 326 228 301 215 313 l 215 694 b 240 719 215 708 231 719 b 265 694 254 719 265 708 l 265 326 b 240 301 265 313 254 301 m 540 301 b 515 326 526 301 515 313 l 515 694 b 540 719 515 708 526 719 b 565 694 554 719 565 708 l 565 326 b 540 301 565 313 553 301 m 843 301 b 825 308 838 301 828 306 l 624 494 b 617 511 619 499 617 504 b 624 528 617 517 619 524 l 822 710 b 842 719 828 715 836 719 b 865 696 849 719 865 713 b 858 679 865 690 864 685 l 675 511 l 858 342 b 865 325 863 338 865 332 b 843 301 865 317 856 301 m 340 486 b 315 511 326 486 315 497 b 340 536 315 525 328 536 l 440 536 b 465 511 454 536 465 524 b 440 486 465 497 453 486 "},"@":{"ha":1383,"x_min":0,"x_max":0,"o":"m 696 978 b 1324 406 1099 978 1324 700 b 969 -8 1324 153 1197 -8 b 806 110 875 -8 808 40 b 810 139 806 119 806 129 b 632 19 772 56 714 19 b 372 326 453 19 372 168 b 711 736 372 522 494 736 b 832 639 763 736 832 717 l 868 704 l 972 704 b 700 781 904 753 813 781 b 261 351 426 781 261 600 b 676 -44 261 78 463 -44 b 831 -7 742 -44 789 -33 l 903 -196 b 685 -236 839 -222 768 -236 b 63 350 343 -236 63 -36 b 696 978 63 711 311 978 m 1014 179 b 1126 386 1085 179 1126 244 b 1024 661 1126 496 1092 592 b 944 253 961 410 943 314 b 1014 179 947 200 971 179 m 657 225 b 767 404 713 225 767 300 b 688 531 767 481 735 531 b 567 356 625 531 567 460 b 657 225 567 276 603 225 "},"&":{"ha":1031,"x_min":0,"x_max":0,"o":"m 989 104 l 806 -61 l 690 67 b 404 -21 610 7 514 -21 b 53 239 214 -21 53 63 b 258 538 53 376 153 467 b 163 739 218 572 163 640 b 457 981 163 897 324 981 b 733 738 600 981 733 883 b 614 507 733 643 681 569 l 685 431 b 729 549 700 467 715 506 l 956 510 b 850 254 925 408 890 324 m 410 742 b 444 661 410 718 424 688 b 496 744 475 688 496 715 b 450 781 496 768 479 781 b 410 742 428 781 410 767 m 422 182 b 549 228 468 182 510 197 l 425 365 b 328 250 368 325 328 289 b 422 182 328 217 346 182 "},"¶":{"ha":831,"x_min":0,"x_max":0,"o":"m 321 -168 l 321 426 b 10 697 160 426 10 526 b 321 968 10 868 160 968 l 460 968 l 460 -168 m 611 -168 l 611 968 l 757 968 l 757 -168 "},"§":{"ha":790,"x_min":0,"x_max":0,"o":"m 379 -335 b 60 -149 263 -335 129 -278 l 285 -12 b 388 -97 304 -61 353 -97 b 444 -58 419 -97 444 -85 b 286 47 444 -7 364 18 b 13 351 178 90 13 157 b 106 569 13 443 44 514 b 76 696 89 604 76 643 b 413 985 76 890 236 985 b 729 801 536 985 663 926 l 506 664 b 403 747 488 711 435 747 b 346 708 369 747 346 735 b 499 606 346 665 417 638 b 779 301 624 558 779 493 b 688 82 779 214 744 135 b 713 -46 701 51 713 8 b 379 -335 713 -237 557 -335 m 504 254 b 510 278 511 264 510 271 b 365 386 510 324 450 350 b 285 397 357 390 340 390 b 281 376 281 390 281 378 b 425 267 281 326 349 299 b 504 254 431 264 451 261 "},"©":{"ha":1210,"x_min":0,"x_max":0,"o":"m 607 -26 b 60 483 306 -26 60 164 b 607 994 60 801 306 994 b 1149 483 906 994 1149 801 b 607 -26 1149 164 906 -26 m 607 132 b 993 483 819 132 993 256 b 607 836 993 713 819 836 b 217 483 392 836 217 711 b 607 132 217 257 392 132 m 619 222 b 356 482 429 222 356 368 b 618 743 356 610 438 743 b 856 581 731 743 817 692 l 661 511 b 618 554 660 529 649 554 b 567 482 576 554 567 511 b 618 414 567 453 575 414 b 667 454 639 414 657 435 l 849 388 b 619 222 814 285 729 222 "},"®":{"ha":1210,"x_min":0,"x_max":0,"o":"m 607 994 b 1149 483 924 994 1149 783 b 607 -26 1149 183 925 -26 b 60 483 285 -26 60 183 b 607 994 60 783 285 994 m 875 219 b 993 483 950 281 993 372 b 607 836 993 694 839 836 b 217 483 372 836 217 694 b 607 132 217 274 372 132 b 867 213 711 132 800 161 l 688 213 l 576 404 l 576 213 l 410 213 l 410 756 l 618 756 b 819 583 738 756 819 685 b 729 440 819 531 782 472 m 576 560 l 628 560 b 647 583 638 560 647 571 b 626 607 647 596 638 607 l 576 607 "},"™":{"ha":913,"x_min":0,"x_max":0,"o":"m 135 600 l 135 853 l 38 853 l 38 968 l 356 968 l 356 853 l 261 853 l 261 600 m 394 600 l 394 968 l 600 968 l 632 769 l 663 968 l 865 968 l 865 600 l 739 600 l 739 839 l 674 594 l 593 594 l 521 839 l 521 600 "},"°":{"ha":475,"x_min":0,"x_max":0,"o":"m 233 578 b 32 782 124 578 32 669 b 233 985 32 893 124 985 b 443 782 349 985 443 893 b 233 578 443 669 349 578 m 233 749 b 271 782 257 749 271 763 b 233 814 271 800 257 814 b 203 782 217 814 203 800 b 233 749 203 763 219 749 "},"|":{"ha":336,"x_min":0,"x_max":0,"o":"m 74 -353 l 74 1036 l 263 1036 l 263 -353 "},"¦":{"ha":357,"x_min":0,"x_max":0,"o":"m 74 458 l 74 1036 l 283 1036 l 283 458 m 74 -353 l 74 215 l 283 215 l 283 -353 "},"†":{"ha":521,"x_min":0,"x_max":0,"o":"m 140 -140 l 140 490 l 14 490 l 14 722 l 140 722 l 140 968 l 376 968 l 376 722 l 507 722 l 507 490 l 376 490 l 376 -140 "},"‡":{"ha":560,"x_min":0,"x_max":0,"o":"m 163 -140 l 163 106 l 35 106 l 35 339 l 163 339 l 163 490 l 35 490 l 35 722 l 163 722 l 163 968 l 397 968 l 397 722 l 525 722 l 525 490 l 397 490 l 397 339 l 525 339 l 525 106 l 397 106 l 397 -140 "},"˶":{"ha":739,"x_min":0,"x_max":0,"o":"m 17 439 l 169 685 l 425 685 l 190 439 m 314 439 l 469 685 l 726 685 l 488 439 "},"˵":{"ha":739,"x_min":0,"x_max":0,"o":"m 254 439 l 13 685 l 271 685 l 428 439 m 550 439 l 315 685 l 572 685 l 722 439 "},"̈":{"ha":0,"x_min":0,"x_max":0,"o":"m -611 772 l -611 968 l -361 968 l -361 772 m -306 772 l -306 968 l -56 968 l -56 772 "},"̇":{"ha":0,"x_min":0,"x_max":0,"o":"m -364 772 l -364 968 l -56 968 l -56 772 "},"̀":{"ha":0,"x_min":0,"x_max":0,"o":"m -226 769 l -446 968 l -200 968 l -56 769 "},"́":{"ha":0,"x_min":0,"x_max":0,"o":"m -462 769 l -304 968 l -56 968 l -296 769 "},"̋":{"ha":0,"x_min":0,"x_max":0,"o":"m -753 728 l -594 968 l -387 968 l -586 728 m -458 728 l -300 968 l -56 968 l -292 728 "},"̂":{"ha":0,"x_min":0,"x_max":0,"o":"m -506 743 l -281 1004 l -56 743 l -229 743 l -281 810 l -332 743 "},"̌":{"ha":0,"x_min":0,"x_max":0,"o":"m -281 726 l -506 968 l -331 968 l -281 911 l -229 968 l -56 968 "},"̆":{"ha":0,"x_min":0,"x_max":0,"o":"m -315 750 b -575 968 -500 750 -575 828 l -387 968 b -315 882 -387 892 -347 882 b -242 968 -279 882 -242 892 l -56 968 b -315 750 -56 817 -142 750 "},"̊":{"ha":0,"x_min":0,"x_max":0,"o":"m -235 717 b -414 897 -336 717 -414 803 b -235 1076 -414 994 -335 1076 b -56 897 -139 1076 -56 999 b -235 717 -56 797 -136 717 m -235 839 b -176 900 -199 839 -176 864 b -235 954 -176 932 -196 954 b -290 900 -272 954 -290 931 b -235 839 -290 864 -267 839 "},"̃":{"ha":0,"x_min":0,"x_max":0,"o":"m -217 756 b -386 829 -319 756 -356 829 b -408 767 -400 829 -408 804 l -539 767 b -375 971 -539 892 -475 971 b -214 894 -287 971 -239 894 b -193 968 -203 894 -193 917 l -56 968 b -217 756 -56 826 -118 756 "},"̄":{"ha":0,"x_min":0,"x_max":0,"o":"m -443 744 l -443 876 l -56 876 l -56 744 "},"̉":{"ha":0,"x_min":0,"x_max":0,"o":"m -286 797 b -217 829 -250 801 -217 803 b -308 857 -217 861 -260 857 l -331 857 l -331 997 l -308 997 b -56 847 -156 997 -56 943 b -260 704 -56 736 -178 715 "},"̏":{"ha":0,"x_min":0,"x_max":0,"o":"m -515 728 l -753 968 l -507 968 l -349 728 m -222 728 l -418 968 l -212 968 l -56 728 "},"̒":{"ha":0,"x_min":0,"x_max":0,"o":"m -361 763 l -186 988 l -56 988 l -122 763 "},"̛":{"ha":0,"x_min":0,"x_max":0,"o":"m -294 831 b -214 939 -231 831 -214 872 l -214 968 l -56 968 l -56 925 b -294 681 -56 801 -119 681 "},"̣":{"ha":0,"x_min":0,"x_max":0,"o":"m -365 -269 l -365 -74 l -54 -74 l -54 -269 "},"̦":{"ha":0,"x_min":0,"x_max":0,"o":"m -361 -321 l -296 -69 l -56 -69 l -231 -321 "},"̧":{"ha":0,"x_min":0,"x_max":0,"o":"m -233 -362 b -340 -337 -249 -362 -292 -364 l -271 -225 b -226 -233 -253 -231 -237 -233 b -189 -196 -206 -233 -189 -221 b -236 -143 -189 -167 -208 -151 b -332 -136 -265 -135 -296 -136 l -243 0 l -108 0 l -158 -49 b -99 -79 -135 -56 -114 -67 b -56 -187 -67 -107 -56 -147 b -233 -362 -56 -283 -128 -362 "},"̨":{"ha":0,"x_min":0,"x_max":0,"o":"m -225 -319 b -407 -157 -329 -319 -407 -253 b -306 0 -407 -62 -337 -17 l -125 0 b -271 -132 -143 -1 -271 -57 b -231 -178 -271 -169 -251 -178 b -175 -139 -201 -178 -186 -162 l -56 -217 b -225 -319 -87 -271 -135 -319 "},"̵":{"ha":0,"x_min":0,"x_max":0,"o":"m -710 329 l -710 483 l -56 483 l -56 329 "},"̶":{"ha":0,"x_min":0,"x_max":0,"o":"m -1197 321 l -1197 456 l -56 456 l -56 321 "},"̷":{"ha":0,"x_min":0,"x_max":0,"o":"m -485 131 l -485 368 l -56 708 l -56 457 "},"̸":{"ha":0,"x_min":0,"x_max":0,"o":"m -633 0 l -167 789 l -56 789 l -524 0 "},"¨":{"ha":665,"x_min":0,"x_max":0,"o":"m 54 772 l 54 968 l 304 968 l 304 772 m 360 772 l 360 968 l 610 968 l 610 772 "},"˙":{"ha":418,"x_min":0,"x_max":0,"o":"m 54 772 l 54 968 l 363 968 l 363 772 "},"`":{"ha":500,"x_min":0,"x_max":0,"o":"m 274 769 l 54 968 l 300 968 l 444 769 "},"´":{"ha":517,"x_min":0,"x_max":0,"o":"m 54 769 l 213 968 l 461 968 l 221 769 "},"˝":{"ha":807,"x_min":0,"x_max":0,"o":"m 54 728 l 213 968 l 419 968 l 221 728 m 349 728 l 507 968 l 751 968 l 515 728 "},"ˆ":{"ha":560,"x_min":0,"x_max":0,"o":"m 54 743 l 279 1004 l 504 743 l 331 743 l 279 810 l 228 743 "},"ˇ":{"ha":560,"x_min":0,"x_max":0,"o":"m 279 726 l 54 968 l 229 968 l 279 911 l 331 968 l 504 968 "},"˘":{"ha":629,"x_min":0,"x_max":0,"o":"m 314 750 b 54 968 129 750 54 828 l 242 968 b 314 882 242 892 282 882 b 388 968 350 882 388 892 l 574 968 b 314 750 574 817 488 750 "},"˚":{"ha":468,"x_min":0,"x_max":0,"o":"m 233 717 b 54 897 132 717 54 803 b 233 1076 54 994 133 1076 b 413 897 329 1076 413 999 b 233 717 413 797 332 717 m 233 839 b 292 900 269 839 292 864 b 233 954 292 932 272 954 b 178 900 196 954 178 931 b 233 839 178 864 201 839 "},"˜":{"ha":593,"x_min":0,"x_max":0,"o":"m 376 756 b 207 829 274 756 238 829 b 185 767 193 829 185 804 l 54 767 b 218 971 54 892 118 971 b 379 894 306 971 354 894 b 400 968 390 894 400 917 l 538 968 b 376 756 538 826 475 756 "},"¯":{"ha":497,"x_min":0,"x_max":0,"o":"m 54 744 l 54 876 l 442 876 l 442 744 "},"¸":{"ha":394,"x_min":0,"x_max":0,"o":"m 161 -362 b 54 -337 146 -362 103 -364 l 124 -225 b 168 -233 142 -231 157 -233 b 206 -196 189 -233 206 -221 b 158 -143 206 -167 186 -151 b 63 -136 129 -135 99 -136 l 151 0 l 286 0 l 236 -49 b 296 -79 260 -56 281 -67 b 339 -187 328 -107 339 -147 b 161 -362 339 -283 267 -362 "},"˛":{"ha":461,"x_min":0,"x_max":0,"o":"m 236 -319 b 54 -157 132 -319 54 -253 b 156 0 54 -62 124 -17 l 336 0 b 190 -132 318 -1 190 -57 b 231 -178 190 -169 210 -178 b 286 -139 260 -178 275 -162 l 406 -217 b 236 -319 374 -271 326 -319 "},"΄":{"ha":433,"x_min":0,"x_max":0,"o":"m 54 769 l 160 968 l 378 968 l 221 769 "},"΅":{"ha":740,"x_min":0,"x_max":0,"o":"m 406 779 l 293 804 l 335 1128 l 513 1092 m 54 772 l 54 968 l 229 968 l 229 772 m 511 772 l 511 968 l 685 968 l 685 772 "}}}
